<?xml version="1.0" standalone="no"?>
<!DOCTYPE svg PUBLIC "-//W3C//DTD SVG 20010904//EN"
 "http://www.w3.org/TR/2001/REC-SVG-20010904/DTD/svg10.dtd">
<svg version="1.0" xmlns="http://www.w3.org/2000/svg"
 width="752.000000pt" height="752.000000pt" viewBox="0 0 752.000000 752.000000"
 preserveAspectRatio="xMidYMid meet">
<metadata>
Created by potrace 1.14, written by Peter Selinger 2001-2017
</metadata>
<g transform="translate(0.000000,752.000000) scale(0.100000,-0.100000)"
fill="#000000" stroke="none">
<path d="M4331 6543 c-154 -32 -323 -109 -496 -227 -49 -33 -96 -66 -103 -73
-22 -21 -45 -31 -134 -59 -45 -14 -96 -32 -113 -39 -16 -7 -57 -23 -90 -35
-209 -79 -529 -259 -735 -414 -159 -121 -312 -263 -433 -404 -39 -46 -86 -92
-105 -104 -18 -11 -38 -25 -45 -32 -6 -7 -19 -17 -29 -22 -29 -16 -141 -117
-203 -182 -117 -124 -198 -255 -249 -399 -32 -94 -38 -128 -41 -242 -6 -236
97 -477 311 -726 42 -49 82 -103 89 -120 7 -16 27 -66 45 -110 27 -68 120
-239 139 -255 16 -13 70 -89 86 -120 68 -132 213 -297 331 -377 78 -54 181
-104 274 -136 69 -23 91 -29 160 -42 14 -3 36 -7 50 -10 30 -6 179 -18 235
-18 56 0 246 13 254 17 3 2 29 7 57 10 28 3 57 8 65 10 8 3 25 7 39 10 167 29
441 126 653 231 62 31 119 60 127 65 8 5 58 35 110 66 126 75 333 219 386 269
6 5 38 32 70 59 73 62 294 283 354 355 25 29 50 59 55 65 23 25 125 165 158
217 63 99 118 202 172 324 10 22 42 90 71 151 30 61 54 118 54 127 0 9 4 18 9
21 5 3 11 18 14 33 3 16 10 46 16 68 24 91 33 271 18 375 -15 100 -64 237
-116 319 -16 25 -34 75 -41 110 -32 170 -125 348 -255 486 -26 28 -61 68 -78
90 -89 114 -212 219 -339 289 -45 25 -79 53 -106 89 -58 75 -121 137 -189 185
-51 36 -164 88 -219 101 -72 17 -208 19 -283 4z m302 -37 c103 -28 199 -86
280 -171 42 -43 81 -95 75 -100 -2 -3 -28 4 -57 15 -197 72 -568 96 -824 54
-20 -3 -47 -7 -60 -9 -52 -7 -107 -18 -181 -36 -44 -10 -82 -17 -84 -14 -7 7
179 125 268 170 208 104 414 136 583 91z m-8 -219 c11 -3 41 -8 66 -11 65 -9
190 -41 275 -71 66 -24 73 -30 98 -76 29 -53 29 -54 -24 -39 -132 40 -334 46
-468 15 -75 -17 -77 -17 -157 15 -24 10 -127 36 -175 45 -86 16 -295 14 -381
-5 -91 -19 -239 -77 -298 -117 -64 -43 -52 -23 26 44 43 37 87 76 97 85 23 21
103 45 236 72 144 28 168 32 285 42 44 4 81 8 83 9 6 5 318 -2 337 -8z m-1060
-180 c-141 -126 -259 -252 -375 -397 -68 -86 -72 -88 -170 -114 -127 -35 -116
-31 -195 -59 -184 -64 -430 -176 -536 -243 -52 -33 -55 -30 -17 12 88 99 208
211 318 298 47 37 93 75 104 83 34 28 250 170 306 202 84 48 369 186 425 205
28 10 59 22 70 27 37 16 120 47 130 48 6 0 -21 -27 -60 -62z m655 30 c8 -3 31
-8 51 -11 19 -3 69 -16 110 -29 57 -19 69 -26 54 -31 -118 -43 -301 -160 -419
-269 -34 -32 -55 -44 -70 -41 -36 7 -168 8 -226 0 -49 -6 -112 -20 -255 -57
-22 -6 -49 -12 -60 -14 -11 -1 -36 -6 -55 -9 -19 -4 -46 -9 -60 -11 -14 -3
-41 -9 -60 -15 -62 -18 -62 -11 2 67 195 239 432 383 688 420 19 3 36 6 38 8
6 5 247 -2 262 -8z m1040 -90 c30 -22 78 -63 105 -90 50 -49 43 -48 -44 10
-18 13 -69 40 -112 60 -68 33 -81 43 -94 76 -8 20 -15 39 -15 42 0 8 102 -55
160 -98z m-375 48 c32 -4 68 -9 80 -12 11 -3 29 -6 40 -8 11 -2 20 -4 20 -5 0
-1 7 -3 15 -5 42 -9 70 -27 83 -52 15 -28 37 -101 43 -138 1 -11 5 -37 9 -59
4 -21 8 -79 9 -128 3 -82 1 -88 -16 -83 -10 4 -30 8 -45 11 -16 2 -41 19 -56
37 -77 87 -124 130 -180 164 -34 20 -89 61 -122 92 -61 55 -199 151 -218 151
-7 0 -7 3 -1 9 11 12 57 19 159 27 44 4 82 8 84 10 3 3 12 2 20 0 9 -2 43 -7
76 -11z m-210 -140 c33 -23 68 -52 79 -63 18 -21 18 -21 -10 -14 -56 13 -237
6 -299 -13 -88 -26 -205 -73 -237 -96 -15 -11 -28 -17 -28 -13 0 5 -5 3 -12
-4 -14 -14 -126 -16 -146 -3 -15 9 45 66 153 145 101 73 176 114 268 145 l52
18 60 -30 c33 -16 87 -49 120 -72z m568 26 c156 -86 258 -178 310 -279 33 -63
86 -208 101 -275 7 -32 8 -32 -59 13 -81 55 -261 132 -336 144 -41 6 -42 8
-45 69 -9 162 -31 303 -56 350 -14 27 9 21 85 -22z m-483 -141 c54 -18 70 -28
95 -63 29 -40 75 -121 75 -131 0 -2 -21 -3 -47 -1 -27 3 -86 7 -133 9 -47 3
-101 10 -120 15 -19 6 -60 16 -90 21 -30 6 -66 13 -80 16 -33 7 -61 11 -145
18 -132 13 -133 14 -57 49 199 92 358 113 502 67z m203 -123 c23 -23 51 -53
62 -66 l20 -23 -38 5 c-35 4 -66 28 -67 51 0 4 -13 28 -30 52 -25 37 -26 43
-9 34 11 -6 39 -30 62 -53z m-1045 -22 c-7 -7 -51 -21 -98 -30 -47 -9 -92 -18
-100 -20 -14 -3 -139 -22 -199 -31 -14 -2 -37 -6 -51 -9 -14 -3 -41 -7 -60
-10 -19 -3 -58 -11 -87 -18 -74 -20 -55 -1 51 48 97 46 120 52 207 60 31 3 66
8 79 10 13 3 74 7 134 11 61 4 113 8 115 10 12 10 21 -10 9 -21z m167 16 c5
-1 4 -6 -2 -12 -13 -13 -133 -22 -133 -10 0 23 40 29 135 22z m256 -15 c13 -2
62 -10 109 -17 97 -14 126 -29 59 -30 -24 0 -60 -2 -79 -5 -19 -2 -69 3 -110
11 -109 21 -134 25 -179 27 -36 1 -39 3 -23 15 13 10 39 12 108 8 50 -3 102
-7 115 -9z m1287 -63 c68 -101 105 -183 147 -332 6 -19 -2 -15 -39 23 -25 26
-46 53 -47 59 -3 44 -49 186 -84 259 -13 26 -22 48 -19 48 2 0 21 -26 42 -57z
m-1500 20 c-10 -2 -28 -2 -40 0 -13 2 -5 4 17 4 22 1 32 -1 23 -4z m-788 -8
c0 -2 -33 -23 -72 -46 -40 -23 -75 -45 -78 -49 -3 -4 -18 -10 -35 -14 -77 -20
-79 -18 -36 34 26 30 40 37 123 56 51 12 94 22 96 23 1 0 2 -1 2 -4z m510 -27
c0 -11 -52 -69 -57 -64 -3 2 -25 -1 -49 -9 -24 -7 -44 -11 -44 -9 0 3 -8 0
-17 -5 -10 -5 -31 -11 -48 -14 -42 -7 -300 -93 -354 -118 -24 -11 -45 -19 -47
-17 -7 7 122 87 213 132 116 58 224 95 293 102 30 4 56 7 57 8 5 4 53 0 53 -6z
m120 4 c0 -12 -51 -39 -90 -47 -37 -8 -38 -10 5 42 11 13 85 18 85 5z m172 -3
c-4 -4 -38 -10 -75 -13 -38 -3 -74 -9 -80 -13 -7 -3 -4 3 6 15 16 18 29 20 87
19 38 -1 66 -5 62 -8z m581 -6 c-7 -2 -21 -2 -30 0 -10 3 -4 5 12 5 17 0 24
-2 18 -5z m222 -5 c9 -11 15 -48 7 -48 -5 0 -31 10 -58 22 -27 12 -52 22 -56
23 -3 0 -9 3 -13 7 -3 3 21 5 55 3 34 -2 63 -5 65 -7z m123 -21 c15 -12 45
-67 40 -72 -2 -2 -26 4 -55 13 -47 16 -73 40 -73 71 0 12 72 2 88 -12z m-643
-2 c97 -18 265 -118 400 -239 51 -46 39 -56 -64 -49 -70 4 -78 7 -109 38 -124
124 -397 146 -702 57 -72 -21 -185 -65 -242 -93 -35 -18 -37 -18 -31 -2 10 29
44 76 76 105 16 14 50 46 76 71 45 43 76 55 180 72 19 3 37 7 40 9 3 2 31 7
61 11 30 4 58 9 61 11 4 2 35 7 70 10 35 3 66 8 68 10 5 4 62 -1 116 -11z
m205 0 c169 -20 324 -54 346 -77 17 -17 30 -78 17 -78 -6 0 -44 16 -85 35 -84
38 -303 115 -330 115 -10 0 -18 5 -18 11 0 5 3 8 8 6 4 -3 32 -8 62 -12z
m-1559 -37 c-30 -40 -38 -44 -178 -90 -229 -75 -386 -141 -546 -231 -42 -23
-162 -116 -201 -154 -53 -52 -101 -129 -119 -190 -30 -99 -3 -226 68 -319 l24
-31 -29 -46 c-86 -136 -153 -321 -178 -490 -11 -78 -7 -328 6 -364 6 -18 7
-33 3 -33 -12 0 -76 199 -94 290 -33 166 -37 348 -12 515 19 125 83 326 135
425 63 122 88 164 137 238 70 106 101 136 199 194 165 97 358 185 559 253 79
27 232 73 248 74 5 1 -5 -18 -22 -41z m468 38 c-2 -2 -29 -14 -59 -27 -76 -32
-207 -110 -287 -171 -65 -49 -241 -144 -250 -134 -9 9 57 122 83 141 15 11 32
25 38 30 6 6 36 29 66 52 46 34 74 45 165 67 139 34 257 54 244 42z m1647 -16
c0 0 0 -20 0 -45 -1 -25 -4 -45 -8 -45 -8 0 -43 60 -52 88 -7 19 -5 20 26 11
18 -5 33 -9 34 -9z m207 -60 c70 -26 162 -77 229 -126 26 -20 48 -36 48 -37 7
-29 9 -79 3 -72 -31 40 -155 118 -208 131 -5 2 -21 6 -35 9 -14 3 -55 8 -93
10 -40 2 -79 11 -97 22 -28 16 -30 22 -29 69 l2 50 61 -17 c34 -9 87 -27 119
-39z m-702 4 c24 -8 51 -17 59 -19 23 -5 85 -32 183 -78 l88 -41 -58 -27 c-63
-29 -66 -28 -115 16 -52 48 -160 131 -193 148 -39 21 -20 21 36 1z m-885 -30
c-9 -9 -19 -14 -22 -11 -3 2 3 12 12 21 9 9 19 15 21 12 3 -3 -2 -13 -11 -22z
m-731 -18 c-16 -13 -32 -22 -34 -20 -8 7 32 44 48 44 11 0 6 -8 -14 -24z m648
-37 c-42 -63 -172 -189 -197 -190 -23 -1 -50 -5 -141 -20 -33 -6 -74 -13 -91
-15 -17 -3 -98 -22 -181 -42 -83 -20 -148 -32 -145 -27 12 19 95 105 103 105
4 0 40 15 81 34 126 59 370 152 448 171 8 2 44 13 80 23 36 11 66 16 68 11 2
-4 -9 -27 -25 -50z m1359 20 c26 -17 48 -35 48 -39 0 -15 -72 -22 -86 -8 -14
14 -29 78 -18 78 4 0 29 -14 56 -31z m64 0 c4 -8 1 -8 -14 0 -12 6 -24 16 -28
22 -4 8 -1 8 14 0 12 -6 24 -16 28 -22z m-2148 -19 c-13 -22 -70 -88 -127
-148 -57 -59 -110 -117 -118 -129 -8 -13 -63 -58 -122 -100 -58 -43 -122 -91
-141 -107 -74 -63 -248 -244 -295 -306 -27 -36 -50 -67 -52 -70 -7 -8 -43 42
-71 100 -22 45 -27 69 -27 130 0 66 4 82 34 138 98 181 379 352 801 487 63 20
120 38 125 40 6 2 11 4 13 4 1 1 -8 -17 -20 -39z m1454 -20 c87 -24 198 -87
198 -113 0 -7 30 -6 -365 -11 -309 -4 -428 -8 -550 -22 -46 -5 -48 -4 -25 8
57 30 212 88 276 103 10 2 37 9 59 15 136 35 316 44 407 20z m930 -14 c91 -14
200 -71 271 -143 l37 -39 5 -110 5 -109 -24 40 c-86 140 -174 235 -338 357
-13 10 -16 16 -8 13 8 -2 31 -6 52 -9z m-38 -50 c146 -98 262 -226 329 -366
23 -47 26 -64 22 -110 -4 -30 -8 -75 -10 -100 -1 -25 -3 -49 -4 -53 -2 -19
-78 92 -115 166 -20 43 -60 107 -87 143 -27 36 -57 80 -66 97 -15 30 -82 136
-93 147 -3 3 -32 34 -65 68 l-59 62 33 0 c24 0 57 -15 115 -54z m-174 9 l0
-35 -41 27 c-40 27 -41 28 -18 34 51 15 59 11 59 -26z m-12 -100 c3 -28 0 -36
-10 -33 -7 3 -30 11 -50 19 -22 7 -38 20 -38 29 0 8 -3 32 -7 54 l-6 39 54
-35 c48 -31 54 -39 57 -73z m-129 27 c1 -13 -2 -21 -6 -19 -5 3 -26 8 -48 11
-22 4 -44 11 -49 16 -12 12 18 37 59 48 32 9 42 -3 44 -56z m248 -2 c7 -8 27
-35 45 -60 29 -40 30 -43 7 -25 -68 53 -87 73 -97 104 l-12 34 22 -19 c13 -10
28 -26 35 -34z m471 -10 c34 -40 43 -62 48 -121 5 -59 4 -62 -10 -44 -9 11
-16 23 -16 27 0 4 -13 29 -29 55 -16 27 -31 65 -34 86 -4 34 -3 36 12 25 9 -7
22 -20 29 -28z m-2849 -19 c-7 -19 -27 -42 -50 -57 -56 -35 -56 -30 -2 27 26
28 50 55 52 60 1 6 5 8 7 6 2 -2 -1 -18 -7 -36z m731 14 c-7 -9 -15 -13 -19
-10 -3 3 1 10 9 15 21 14 24 12 10 -5z m1140 -11 c0 -2 -12 -4 -27 -4 -21 0
-24 3 -14 9 13 8 41 5 41 -5z m-500 -4 c0 -3 -53 -18 -118 -34 -124 -30 -242
-67 -357 -111 -38 -15 -81 -29 -94 -31 -13 -3 -50 -11 -82 -18 l-58 -14 18 46
c48 120 55 133 75 137 31 8 97 13 241 21 72 4 131 7 132 8 6 4 243 1 243 -4z
m649 -5 c9 -3 22 -14 28 -24 12 -19 11 -19 -30 -7 -23 7 -45 13 -50 14 -37 4
-66 15 -62 23 6 8 81 5 114 -6z m297 -12 c3 -16 7 -34 10 -40 4 -17 -6 -16
-29 1 -14 11 -17 32 -8 64 1 1 5 2 11 2 5 0 12 -12 16 -27z m-571 3 c17 -2 38
-4 48 -5 28 -2 19 -14 -40 -51 -30 -19 -67 -45 -82 -58 -23 -20 -33 -22 -76
-17 -148 20 -203 23 -340 20 -82 -2 -175 -6 -205 -9 l-55 -5 45 15 c70 24 242
72 275 78 17 3 52 10 78 16 26 5 69 12 95 16 26 3 49 8 51 10 4 3 155 -4 206
-10z m391 -28 c9 -30 -4 -34 -31 -8 -32 30 -32 38 0 33 13 -3 27 -14 31 -25z
m-1450 -37 c-9 -16 -25 -54 -36 -84 -17 -45 -26 -57 -48 -61 -43 -8 -101 -11
-104 -5 -5 10 125 149 162 175 40 27 48 19 26 -25z m1317 19 c74 -19 92 -28
112 -54 23 -30 24 -38 20 -132 -5 -110 -20 -243 -29 -251 -3 -3 -27 3 -53 14
-41 17 -49 25 -59 59 -15 54 -37 93 -69 126 -16 18 -27 43 -31 70 -5 45 -20
107 -35 146 -5 13 -9 30 -9 38 0 19 26 16 153 -16z m-1393 10 c0 -5 -4 -10 -8
-10 -5 0 -73 -43 -151 -95 -124 -83 -149 -96 -194 -101 -55 -5 -249 -45 -305
-62 l-33 -11 22 37 c65 108 79 121 148 141 74 22 233 60 271 66 14 2 46 8 72
14 25 6 70 14 100 17 29 3 55 8 57 10 8 8 21 4 21 -6z m1607 -2 c32 -12 41
-30 25 -56 -11 -17 -68 11 -75 38 -8 32 1 36 50 18z m227 -64 c60 -61 79 -87
95 -134 24 -73 9 -70 -42 9 -21 33 -60 80 -86 104 -45 42 -74 97 -52 97 5 0
43 -34 85 -76z m-596 9 c6 -21 14 -62 18 -91 l6 -54 -38 25 c-22 13 -67 34
-102 47 l-62 23 72 52 c47 34 77 50 84 44 6 -5 16 -26 22 -46z m-1797 20 c-14
-26 -50 -63 -61 -63 -23 0 -7 32 28 54 45 30 45 30 33 9z m2289 -59 c0 -14 -3
-24 -7 -22 -53 25 -63 34 -63 53 0 33 10 36 41 14 19 -13 29 -29 29 -45z m521
-1 c28 -50 32 -68 33 -133 1 -72 -11 -190 -20 -199 -2 -2 -5 3 -5 12 -2 23 -2
25 -24 87 -13 40 -19 87 -20 173 -1 64 -1 117 1 117 1 0 17 -26 35 -57z m119
-61 c48 -134 59 -203 56 -347 -2 -71 -7 -140 -10 -152 -3 -13 -8 -32 -11 -44
-11 -53 -56 -172 -62 -166 -1 2 2 19 7 38 6 19 13 54 16 79 2 25 7 57 10 72 7
36 7 232 0 255 -3 10 -7 34 -10 53 -10 64 -16 87 -32 131 -9 24 -18 80 -20
124 -4 75 -3 78 12 57 9 -13 28 -57 44 -100z m-3790 81 c-6 -10 -33 -54 -60
-98 -124 -199 -220 -452 -247 -652 -17 -124 -8 -397 18 -498 5 -22 12 -50 15
-63 9 -43 56 -177 66 -189 6 -7 7 -13 2 -12 -12 0 -83 91 -137 175 -66 102
-117 218 -142 319 -16 65 -18 84 -18 205 0 108 3 137 27 212 60 196 196 382
406 556 41 34 76 62 78 62 1 0 -2 -8 -8 -17z m3021 -9 c24 -12 30 -20 25 -37
-3 -12 -6 -25 -6 -29 0 -19 -17 -5 -37 32 -33 57 -31 60 18 34z m-2316 -2
c-55 -48 -106 -83 -95 -66 7 11 31 32 54 47 40 26 59 35 41 19z m595 -49 c-36
-43 -47 -50 -83 -52 -23 -1 -39 0 -37 2 16 15 156 105 159 102 2 -2 -16 -26
-39 -52z m1966 -50 c-2 -2 -23 8 -45 23 -30 20 -41 33 -41 52 0 25 2 24 46
-22 25 -27 43 -50 40 -53z m-2536 67 c-8 -5 -19 -10 -25 -10 -5 0 -3 5 5 10 8
5 20 10 25 10 6 0 3 -5 -5 -10z m1626 -2 l52 -10 -71 -61 c-75 -65 -80 -67
-140 -54 -20 4 -54 10 -75 12 -20 3 -48 8 -62 10 -14 3 -47 7 -75 10 -27 3
-63 8 -80 10 -36 4 -190 16 -260 20 -64 3 -64 3 -40 17 21 13 25 14 85 23 19
3 46 8 60 10 14 2 59 7 100 11 41 3 77 8 78 9 9 8 383 2 428 -7z m799 -38 c7
-12 15 -263 8 -256 -3 3 -29 54 -57 113 -48 100 -51 111 -43 150 l10 42 38
-19 c21 -11 40 -24 44 -30z m-2381 5 c-9 -14 -18 -25 -21 -25 -5 0 5 18 20 38
17 22 18 13 1 -13z m1729 0 c62 -16 146 -55 169 -79 14 -13 15 -29 9 -118 -1
-15 -5 -16 -27 -8 -21 8 -232 67 -269 75 -5 1 -28 5 -49 10 l-39 8 69 63 c38
35 71 64 74 64 3 0 32 -7 63 -15z m504 -27 c17 -30 18 -38 6 -93 -7 -33 -15
-75 -19 -94 -3 -19 -10 -46 -16 -60 -5 -14 -9 -28 -8 -31 1 -2 -4 -6 -10 -8
-9 -3 -10 8 -6 39 10 63 23 198 25 252 1 35 5 34 28 -5z m-2317 -54 c-16 -46
-28 -68 -42 -72 -28 -7 -190 -92 -210 -109 -29 -26 -21 -7 27 65 54 81 120
139 189 169 28 12 53 20 55 18 1 -2 -7 -34 -19 -71z m2560 29 c63 -40 67 -46
100 -162 13 -46 17 -90 15 -160 -3 -108 -7 -128 -41 -222 -21 -55 -72 -143
-75 -128 -1 6 -6 71 -12 155 -2 39 -10 81 -16 92 -7 12 -10 22 -7 22 3 0 -2
24 -11 53 -12 38 -17 95 -17 219 -1 93 0 168 2 168 1 0 29 -17 62 -37z m-2710
7 c0 -5 -5 -10 -11 -10 -5 0 -7 5 -4 10 3 6 8 10 11 10 2 0 4 -4 4 -10z m875
-19 c-3 -6 -18 -16 -33 -24 -61 -33 -174 -99 -182 -107 -12 -13 -60 -40 -60
-34 0 11 101 134 111 134 11 0 11 0 74 22 56 19 99 23 90 9z m405 -6 c105 -12
177 -21 272 -36 37 -6 78 -12 91 -13 48 -6 47 -16 -1 -65 -200 -202 -399 -463
-514 -677 -44 -82 -31 -77 -168 -74 -94 2 -139 6 -146 13 -19 19 -26 321 -10
427 4 30 9 64 11 75 6 38 37 170 53 225 9 30 16 57 17 60 14 68 50 81 215 75
75 -3 156 -8 180 -10z m-603 -1 c-5 -6 -136 -54 -146 -54 -3 0 6 10 19 22 21
20 65 34 114 37 11 0 17 -2 13 -5z m2183 -16 c0 -5 9 -21 20 -35 11 -14 20
-30 20 -34 0 -16 -40 16 -46 36 -3 11 -8 28 -11 39 -3 12 -1 16 6 12 6 -4 11
-12 11 -18z m-2340 -5 c-1 -13 -104 -83 -166 -112 -33 -15 -94 -49 -136 -74
-42 -26 -80 -47 -83 -47 -8 0 -3 24 20 106 13 46 18 52 52 62 62 18 156 42
188 48 17 3 46 9 65 13 47 12 60 12 60 4z m-671 -115 c-85 -86 -168 -185 -237
-284 -7 -11 -11 -14 -8 -8 3 6 8 26 11 44 17 97 146 243 282 321 26 15 50 28
51 28 2 1 -42 -45 -99 -101z m2671 93 c0 -5 15 -42 34 -83 19 -40 42 -94 51
-120 16 -48 15 -104 -1 -101 -7 1 -83 44 -142 80 -9 6 -10 17 -3 43 5 19 17
70 26 113 10 42 22 77 26 77 5 0 9 -4 9 -9z m696 -72 c18 -83 25 -308 12 -378
-5 -25 -11 -62 -14 -81 -14 -91 -49 -193 -81 -240 -16 -23 -23 -28 -18 -13 3
12 7 30 9 40 2 10 9 37 15 60 6 23 15 61 19 85 6 41 9 314 3 368 -2 14 4 65
13 114 8 49 15 92 14 95 -1 16 3 34 7 30 2 -3 12 -39 21 -80z m-2637 -26 c-35
-48 -67 -90 -71 -93 -167 -125 -328 -313 -384 -449 -19 -46 -23 -51 -32 -35
-5 11 -9 71 -8 135 l2 116 33 39 c37 43 180 184 253 251 33 30 79 56 155 87
59 25 109 43 111 41 2 -2 -24 -43 -59 -92z m281 93 c0 -2 -9 -32 -19 -67 -11
-35 -22 -77 -25 -94 -4 -16 -9 -41 -12 -55 -3 -14 -7 -38 -10 -55 -3 -16 -7
-36 -9 -43 -24 -68 -22 -416 1 -477 6 -14 -1 -16 -62 -10 -60 5 -139 16 -224
30 -14 2 -41 7 -60 10 -92 15 -157 29 -172 36 -16 8 -16 12 -1 47 63 152 196
391 255 458 46 52 338 242 338 220z m1344 -35 c26 -40 43 -91 32 -91 -4 0 -21
6 -39 14 -31 12 -32 16 -30 62 1 27 2 50 2 52 3 9 14 -3 35 -37z m640 -31 l6
-35 -14 35 c-8 19 -15 42 -15 50 -1 26 16 -10 23 -50z m-1034 34 c40 -8 241
-61 285 -76 23 -8 40 -19 40 -28 -2 -38 -18 -132 -35 -200 -10 -41 -21 -86
-24 -100 -12 -63 -50 -157 -69 -173 -77 -62 -298 -137 -512 -172 -55 -9 -110
-18 -123 -20 -12 -2 -74 -7 -138 -11 l-116 -7 17 34 c49 94 218 357 244 379 3
3 19 23 36 45 16 22 39 51 52 65 12 14 31 36 43 50 11 14 64 71 118 128 90 95
99 102 127 97 17 -4 41 -9 55 -11z m1099 -53 c21 -20 40 -55 56 -102 29 -84
56 -228 49 -261 -10 -54 -13 -66 -24 -113 -6 -27 -13 -58 -15 -67 -6 -29 -152
-158 -179 -158 -2 0 0 15 5 33 6 17 12 39 14 47 1 8 9 35 16 60 6 25 13 52 14
60 1 8 5 29 9 45 6 28 11 61 22 140 11 82 3 313 -12 337 -12 19 16 6 45 -21z
m208 -66 c7 -35 8 -103 1 -125 -2 -8 -8 -31 -13 -50 l-8 -35 -13 50 c-7 28
-10 70 -7 95 3 25 6 63 8 85 2 22 4 47 5 55 2 16 17 -26 27 -75z m-3023 -17
c-18 -66 -30 -96 -47 -107 -43 -30 -118 -112 -158 -173 -31 -49 -39 -70 -36
-95 3 -18 3 -33 0 -33 -10 0 -110 71 -127 89 -17 19 -16 23 34 121 69 137 65
132 134 178 65 44 194 112 212 112 7 0 3 -32 -12 -92z m-243 17 c-16 -25 -49
-65 -74 -88 -43 -40 -92 -100 -131 -161 -18 -28 -18 -29 4 -58 25 -33 21 -45
-8 -27 -39 24 -45 47 -22 84 48 77 233 293 252 294 4 1 -5 -19 -21 -44z m418
-38 c-30 -28 -83 -81 -116 -117 l-61 -64 10 49 c6 28 15 56 21 63 10 13 186
121 197 121 3 1 -20 -23 -51 -52z m1948 38 l36 -15 -7 -64 c-12 -119 -50 -206
-125 -285 -54 -58 -68 -62 -51 -15 6 16 23 72 36 124 32 121 31 115 40 180 4
30 9 58 10 63 1 4 2 12 3 17 1 14 16 13 58 -5z m114 -46 c38 -19 40 -23 35
-52 -15 -80 -43 -197 -60 -250 -71 -227 -67 -218 -110 -237 -80 -34 -217 -81
-225 -78 -5 2 9 46 29 98 29 72 46 101 71 120 112 83 191 220 205 353 4 37 9
67 11 67 2 0 22 -9 44 -21z m711 -102 c-6 -36 -11 -29 -23 25 -5 24 -12 52
-15 63 -3 11 5 2 18 -20 15 -25 22 -51 20 -68z m-629 40 c-21 -93 -134 -449
-141 -443 -2 3 2 25 11 48 19 54 73 234 82 275 17 81 39 152 45 148 5 -3 6
-15 3 -28z m153 -58 l42 -28 -14 -78 c-13 -73 -18 -81 -60 -119 -40 -37 -161
-113 -206 -129 -14 -6 -13 5 11 72 15 43 45 140 66 215 l38 137 41 -21 c23
-11 60 -33 82 -49z m-2168 -51 c-63 -105 -168 -317 -168 -338 0 -12 -50 -5
-82 11 -15 8 -13 16 19 76 51 99 113 182 204 273 44 44 82 80 84 80 2 0 -24
-46 -57 -102z m-797 64 c-5 -10 -13 -41 -17 -70 -7 -52 -23 -61 -44 -22 -7 13
-1 28 27 64 37 48 51 59 34 28z m125 -72 c-26 -51 -44 -76 -51 -69 -6 6 -3 21
9 43 16 31 73 106 80 106 2 0 -15 -36 -38 -80z m3418 -53 c-3 -98 -7 -138 -14
-157 -1 -3 -2 -12 -1 -20 1 -8 -10 -55 -24 -105 -14 -49 -27 -97 -29 -107 -8
-31 -35 -74 -70 -113 -42 -45 -43 -43 -16 50 11 39 23 86 26 105 3 19 8 38 9
41 2 3 7 38 10 79 3 40 14 89 24 109 16 32 26 64 36 112 2 9 10 38 19 63 9 26
16 54 16 64 0 13 2 14 9 4 5 -8 7 -64 5 -125z m-3091 76 c-3 -27 -6 -53 -7
-60 -2 -15 -127 -183 -135 -183 -4 0 -13 16 -20 35 -11 32 -10 39 16 86 23 42
134 169 148 169 2 0 1 -21 -2 -47z m3003 -114 l-15 -34 4 55 c4 52 10 88 16
100 1 3 4 -16 6 -41 2 -28 -2 -61 -11 -80z m-407 51 c-4 -8 -17 -26 -28 -40
l-20 -25 10 50 c16 79 19 83 34 55 8 -15 10 -30 4 -40z m190 -57 c-21 -118
-64 -283 -85 -325 -8 -14 -27 -33 -44 -41 -16 -9 -30 -14 -30 -13 0 39 33 203
44 215 37 42 112 202 109 231 -1 7 17 40 21 40 2 0 -5 -48 -15 -107z m-3296
-23 c-45 -102 -61 -166 -58 -240 3 -78 3 -82 24 -142 9 -27 9 -47 2 -75 -6
-21 -13 -54 -16 -73 -3 -19 -8 -42 -10 -50 -4 -15 -15 -97 -21 -160 -6 -63 -5
-246 1 -262 14 -35 -14 -24 -69 29 -59 57 -74 83 -81 143 -3 19 -9 63 -13 98
-9 69 -8 215 3 277 3 22 8 52 10 66 17 121 103 336 177 442 l20 27 23 -22 c23
-22 23 -24 8 -58z m3127 -22 c5 -119 2 -140 -27 -171 -27 -28 -124 -99 -129
-94 -2 2 8 33 21 70 14 37 30 89 37 115 11 44 76 143 89 136 4 -2 7 -27 9 -56z
m-2633 -44 c-5 -92 -8 -101 -29 -88 -7 5 -15 9 -18 9 -21 3 -50 18 -50 27 0
10 90 138 98 138 2 0 2 -39 -1 -86z m-451 68 c-3 -5 3 -36 13 -69 10 -33 15
-66 11 -74 -4 -8 -22 -58 -40 -112 -23 -69 -36 -95 -43 -88 -18 18 -18 173 -1
232 20 69 44 119 56 119 5 0 7 -4 4 -8z m155 -49 c10 -12 5 -11 -18 6 -18 12
-33 24 -33 27 0 9 37 -15 51 -33z m-101 12 c12 -15 5 -39 -9 -30 -12 7 -21 45
-11 45 4 0 13 -7 20 -15z m70 -42 c14 -10 54 -33 90 -51 36 -19 66 -35 68 -37
2 -1 -13 -32 -33 -69 l-37 -66 -31 26 c-38 32 -103 116 -112 145 -7 20 11 69
24 69 4 0 18 -8 31 -17z m71 0 c13 -16 12 -17 -3 -4 -17 13 -22 21 -14 21 2 0
10 -8 17 -17z m2774 -13 c-4 -6 -9 -22 -11 -37 -3 -14 -19 -62 -35 -105 -30
-77 -32 -79 -87 -107 -73 -36 -181 -75 -188 -68 -3 2 2 22 11 43 9 22 18 44
19 49 2 6 8 23 14 38 7 16 12 31 12 35 0 4 38 27 83 51 46 24 103 58 128 76
44 34 65 43 54 25z m-572 -122 c-13 -35 -26 -68 -27 -74 -7 -38 -35 -54 -131
-79 -130 -34 -151 -38 -377 -80 -20 -4 -92 -15 -133 -20 -16 -2 -55 -7 -85
-11 -30 -5 -57 -8 -60 -7 -3 1 -30 4 -60 8 -30 4 -56 8 -57 8 -2 3 42 105 48
111 2 3 45 7 94 10 120 7 212 15 255 21 19 3 52 7 72 10 130 18 444 124 464
156 3 5 9 9 14 9 5 0 -3 -28 -17 -62z m-2245 -80 l42 -37 -21 -48 c-11 -26
-26 -61 -33 -78 -7 -16 -18 -42 -24 -57 -7 -16 -15 -28 -19 -28 -13 0 -67 52
-100 95 l-31 40 20 65 c11 36 29 91 40 123 l21 57 32 -47 c18 -27 51 -65 73
-85z m292 91 c0 -4 -18 0 -40 9 -52 22 -52 35 0 15 22 -9 40 -20 40 -24z
m2974 -31 c-17 -99 -52 -236 -69 -267 -13 -24 -44 -56 -89 -91 -11 -8 -17 -10
-14 -5 27 47 94 221 129 330 38 122 62 140 43 33z m-3049 -37 c24 -49 49 -92
55 -96 15 -9 12 -45 -4 -45 -22 0 -177 80 -182 95 -6 14 62 135 76 135 6 0 30
-40 55 -89z m2944 -43 c-48 -87 -167 -273 -195 -307 -7 -9 -36 -47 -64 -85
-51 -70 -68 -76 -27 -8 31 50 98 199 133 295 27 73 33 82 84 117 30 21 69 50
85 66 17 16 31 26 33 22 2 -4 -20 -49 -49 -100z m-2899 87 c27 -14 29 -19 24
-53 -3 -20 -7 -38 -8 -39 -2 -2 -42 71 -54 99 -5 12 6 10 38 -7z m183 -13 c27
-4 39 -32 13 -32 -29 0 -76 23 -76 37 0 11 5 13 18 8 9 -4 29 -10 45 -13z
m2482 -14 c-3 -18 -8 -46 -11 -63 -3 -16 -7 -37 -8 -45 -2 -8 -16 -22 -33 -31
-46 -26 -195 -89 -191 -81 2 4 17 35 32 68 24 51 38 67 80 93 28 17 67 44 86
61 44 38 52 38 45 -2z m-2593 -60 c-1 -28 -4 -54 -7 -56 -15 -15 -21 25 -16
108 1 19 4 21 13 12 7 -7 11 -34 10 -64z m206 53 c1 -1 3 -1 5 0 1 0 14 -4 28
-9 14 -6 43 -13 65 -16 21 -3 50 -8 64 -11 68 -14 82 -16 293 -43 58 -7 59 -8
73 -47 7 -22 14 -41 14 -42 0 -3 -66 6 -100 13 -14 3 -36 8 -50 10 -57 11
-209 47 -265 64 -33 10 -86 26 -117 36 -32 9 -58 18 -58 20 0 24 18 34 48 25z
m1952 -77 c-17 -44 -36 -83 -41 -88 -17 -18 -10 10 19 75 16 35 32 73 36 83 3
10 9 17 12 14 2 -3 -9 -41 -26 -84z m-2064 50 c28 -7 29 -17 10 -72 -8 -22
-11 -44 -8 -48 4 -4 2 -4 -5 0 -11 6 -53 106 -53 127 0 6 7 8 16 5 9 -3 27 -9
40 -12z m2041 -16 c-61 -144 -55 -136 -110 -148 -29 -6 -68 -13 -87 -16 -19
-3 -54 -9 -78 -14 -31 -5 -42 -4 -39 4 3 6 15 34 27 63 l23 52 126 44 c157 56
155 56 138 15z m-1827 -56 c74 -22 167 -48 205 -57 81 -20 69 -17 163 -35 72
-13 100 -29 87 -50 -6 -10 -350 -7 -400 4 -11 2 -49 7 -85 10 -100 10 -170 28
-170 42 0 11 10 45 36 123 2 7 10 11 17 8 6 -2 73 -23 147 -45z m618 8 c39 -1
72 -3 72 -5 0 -3 -4 -13 -9 -23 -5 -9 -15 -32 -22 -51 -13 -36 -10 -36 -134
-17 -11 2 -30 4 -41 5 -23 1 -32 15 -40 67 l-5 33 53 -5 c29 -2 86 -4 126 -4z
m-1112 -39 c44 -22 91 -43 107 -46 15 -4 28 -15 28 -24 1 -9 3 -33 4 -53 1
-20 6 -69 9 -109 l7 -72 -33 7 c-41 9 -48 11 -73 20 -11 5 -38 14 -60 22 -68
25 -154 68 -159 81 -3 7 8 45 25 85 17 40 35 85 41 101 5 15 13 27 18 27 4 0
43 -18 86 -39z m2540 -19 c-13 -26 -32 -57 -42 -69 -27 -30 -237 -103 -221
-76 2 4 14 28 25 53 19 43 25 47 89 68 37 12 91 33 118 46 28 14 51 25 53 25
1 1 -9 -20 -22 -47z m-531 -13 c-31 -68 -35 -71 -97 -76 -94 -7 -341 -9 -403
-3 l-60 6 55 8 c96 14 332 64 420 89 116 33 113 34 85 -24z m832 39 c-3 -7
-22 -53 -42 -103 -20 -49 -66 -148 -103 -218 -60 -115 -71 -131 -114 -157 -52
-33 -79 -39 -54 -14 64 64 201 304 230 405 19 63 24 72 51 87 26 15 38 15 32
0z m340 -74 c-48 -99 -179 -309 -207 -334 -3 -3 -17 -20 -30 -39 -36 -51 -100
-118 -100 -103 0 6 4 12 8 12 4 0 15 12 24 28 9 15 47 65 83 112 80 101 118
159 170 260 53 103 77 142 82 137 2 -3 -11 -36 -30 -73z m-196 13 c-12 -25
-21 -48 -21 -51 0 -3 -16 -40 -35 -81 -31 -66 -44 -82 -103 -125 -75 -55 -93
-63 -59 -24 29 34 165 229 200 289 35 58 46 53 18 -8z m-2811 23 c0 -5 -2 -10
-4 -10 -3 0 -8 5 -11 10 -3 6 -1 10 4 10 6 0 11 -4 11 -10z m2524 -123 c-41
-100 -121 -231 -197 -325 -45 -55 -64 -70 -136 -104 -101 -47 -185 -80 -305
-119 -105 -34 -128 -37 -99 -11 10 9 50 63 87 120 38 56 72 102 76 102 4 0 41
22 81 48 100 66 222 188 271 272 17 30 36 41 117 73 53 21 105 45 116 53 18
14 20 13 23 -3 2 -11 -14 -58 -34 -106z m-2925 -119 c-35 -142 -32 -359 6
-503 l8 -29 -29 18 c-59 38 -144 108 -153 124 -11 22 -12 260 0 341 12 82 28
166 45 234 1 4 2 13 3 20 0 7 32 -18 71 -55 l70 -67 -21 -83z m430 137 c7 -30
17 -57 22 -61 11 -6 10 -97 -1 -114 -8 -13 -44 0 -47 17 -2 7 -5 51 -9 98 -3
47 -7 94 -9 103 -1 9 0 21 2 25 10 17 30 -15 42 -68z m2071 26 c-10 -37 -39
-85 -46 -78 -3 2 7 31 21 62 27 62 41 70 25 16z m-2033 0 c6 -16 7 -34 3 -41
-4 -7 -11 5 -18 29 -11 47 -2 55 15 12z m830 14 c51 -7 54 -15 7 -16 -21 0
-51 -3 -66 -5 -20 -3 -30 1 -38 16 -12 22 -20 21 97 5z m1155 -32 c-32 -71
-36 -73 -118 -95 -43 -11 -88 -22 -99 -24 -70 -14 -85 -15 -84 -8 0 5 15 36
32 68 20 38 39 61 52 62 11 2 43 6 70 9 28 4 66 10 85 15 19 4 45 8 57 9 22 1
22 1 5 -36z m-1821 -153 c12 -14 33 -37 47 -52 l25 -27 -34 5 c-64 8 -70 10
-82 30 -17 24 -79 164 -82 184 -6 38 11 25 55 -42 27 -40 58 -84 71 -98z m49
154 c25 -3 56 -8 70 -10 14 -3 120 -7 235 -9 187 -5 211 -7 220 -23 43 -75 70
-118 78 -123 13 -9 0 -76 -17 -82 -13 -5 -417 0 -484 6 -35 4 -88 51 -148 132
-16 22 -35 46 -42 53 -7 8 -20 28 -28 44 l-16 31 44 -6 c23 -4 63 -9 88 -13z
m1258 -9 c133 0 242 -1 242 -2 0 -1 -14 -32 -32 -68 -34 -68 -37 -70 -108 -80
-25 -3 -52 -8 -60 -10 -17 -5 -56 -11 -120 -20 -25 -3 -52 -8 -60 -10 -8 -2
-46 -7 -84 -10 -37 -3 -71 -7 -75 -9 -3 -2 -44 -7 -91 -10 -47 -4 -104 -9
-126 -12 -38 -5 -45 -2 -73 28 -36 38 -36 54 1 162 12 38 15 40 63 44 28 2 51
5 53 6 1 2 53 0 115 -3 61 -3 221 -6 355 -6z m1374 -26 c-32 -56 -83 -139 -87
-139 -9 0 53 129 74 153 31 35 37 29 13 -14z m-1975 13 c-3 -4 -12 -34 -22
-67 l-17 -59 -19 24 c-33 43 -59 98 -47 102 21 7 109 7 105 0z m1308 -59 c-69
-87 -213 -213 -243 -213 -6 0 -12 -6 -15 -12 -2 -7 -7 -10 -11 -7 -4 4 19 56
51 118 l58 111 55 16 c30 8 73 21 95 29 22 7 42 11 44 9 2 -2 -13 -25 -34 -51z
m-2121 -53 c5 -19 2 -16 -13 10 -11 19 -20 42 -20 50 0 18 24 -25 33 -60z
m-424 33 c89 -42 136 -60 200 -78 78 -22 90 -31 96 -76 3 -19 18 -83 35 -142
47 -172 147 -365 234 -453 80 -80 241 -168 346 -189 175 -36 376 -17 583 55
60 20 116 25 149 11 37 -14 0 -30 -223 -90 -65 -18 -95 -20 -230 -16 -85 2
-166 7 -180 9 -14 3 -47 8 -75 11 -294 32 -645 152 -916 312 -71 42 -76 48
-88 91 -39 157 -46 320 -17 462 21 105 26 121 34 117 4 -2 27 -13 52 -24z
m2337 -20 c-29 -66 -123 -227 -135 -231 -8 -3 -7 7 6 30 47 84 81 146 101 186
24 46 48 59 28 15z m782 0 c-12 -31 -55 -112 -91 -168 -22 -35 -113 -126 -179
-179 -13 -10 -33 -26 -44 -35 -22 -18 -31 -32 80 115 34 44 78 109 99 145 22
36 60 82 90 106 28 23 52 42 53 42 1 1 -2 -11 -8 -26z m-829 0 c0 -6 -68 -130
-114 -207 -12 -21 -34 -44 -47 -52 -27 -14 -123 -39 -183 -48 -21 -4 -41 -8
-45 -10 -4 -3 -12 -1 -18 2 -8 5 4 32 36 82 26 41 60 99 76 128 29 53 48 64
133 77 44 7 79 15 102 23 27 10 60 13 60 5z m-1882 -53 l23 -30 -26 0 c-21 0
-25 5 -25 30 0 17 1 30 3 30 2 0 13 -13 25 -30z m1566 -42 c-9 -18 -45 -76
-79 -129 l-62 -95 -49 1 c-78 3 -177 16 -196 26 -10 6 -18 7 -18 3 0 -3 -7 -1
-15 6 -8 7 -15 10 -15 7 0 -8 -117 50 -172 85 -48 30 -59 45 -35 45 34 0 202
15 207 18 3 1 37 6 75 10 39 4 129 17 200 30 72 12 140 23 153 24 22 1 22 1 6
-31z m-744 -26 c-27 -4 -32 0 -24 22 6 16 8 16 26 -1 20 -18 20 -18 -2 -21z
m-879 11 c0 -10 2 -46 3 -80 4 -76 -6 -74 -23 4 -7 32 -15 66 -17 76 -4 12 0
17 15 17 13 0 21 -7 22 -17z m106 -11 c23 -13 46 -40 107 -127 27 -38 95 -115
151 -170 155 -153 326 -263 535 -344 l72 -27 -52 -23 c-117 -50 -272 -74 -370
-56 -14 2 -36 6 -50 9 -47 8 -134 47 -174 78 -124 96 -237 258 -271 388 -20
78 -37 249 -27 277 4 13 50 10 79 -5z m2486 -21 c-97 -151 -264 -330 -353
-378 -91 -49 -97 -47 -44 11 62 69 92 105 153 186 26 36 58 74 70 84 20 18
182 125 189 126 2 0 -4 -13 -15 -29z m-2235 -67 c91 -78 266 -196 375 -253 78
-41 89 -55 19 -25 -20 8 -57 22 -82 31 -75 26 -249 120 -335 182 -84 60 -165
130 -165 141 0 4 25 3 56 -2 48 -7 65 -17 132 -74z m252 52 l215 -2 2 -61 c2
-95 17 -165 53 -248 11 -25 17 -45 14 -45 -12 0 -176 88 -255 136 -117 72
-299 211 -299 228 0 3 12 2 28 -1 15 -3 124 -6 242 -7z m366 -26 c48 -39 181
-103 254 -124 53 -14 121 -26 185 -31 17 -2 33 -3 38 -4 15 -2 -32 -65 -129
-169 l-51 -56 -79 2 c-113 1 -195 10 -240 25 -44 15 -106 188 -106 297 0 93
-2 90 46 90 33 0 52 -7 82 -30z m-657 -115 c112 -81 391 -209 533 -245 49 -13
78 -26 88 -40 8 -12 41 -49 73 -82 32 -33 55 -64 50 -69 -4 -4 -21 -14 -37
-23 -27 -13 -34 -12 -106 14 -195 72 -377 187 -530 337 -95 93 -139 143 -125
143 3 0 27 -16 54 -35z m1467 -52 c-25 -37 -64 -88 -86 -113 -33 -36 -27 -24
29 60 80 119 91 133 98 126 3 -2 -16 -35 -41 -73z m538 46 c-97 -104 -253
-236 -369 -312 -35 -23 -115 -46 -115 -33 0 2 17 15 38 27 65 40 193 141 270
214 96 90 246 178 176 104z m-575 -21 c-19 -35 -111 -161 -132 -180 -24 -21
-297 -69 -297 -52 0 3 23 32 52 63 28 31 67 77 86 104 18 26 39 47 45 48 65 4
167 18 207 28 51 13 52 13 39 -11z m866 2 c-3 -5 -12 -10 -18 -10 -7 0 -6 4 3
10 19 12 23 12 15 0z m-91 -51 c-120 -129 -219 -208 -369 -295 -74 -44 -206
-107 -246 -119 -22 -6 -22 -5 6 19 17 14 54 37 84 51 77 36 163 89 272 170 53
38 106 77 119 85 35 24 113 83 134 102 32 29 32 20 0 -13z m-3152 -109 c3 -19
4 -36 4 -37 -3 -4 -70 89 -96 132 l-24 40 56 -50 c41 -38 56 -59 60 -85z
m2762 99 c-20 -32 -193 -169 -309 -244 -59 -39 -61 -39 -175 -43 l-115 -4 79
74 c72 67 95 81 149 93 46 10 239 76 302 104 39 16 71 30 73 30 2 1 0 -4 -4
-10z m78 -76 c-65 -77 -125 -130 -161 -142 -39 -13 -53 -8 -23 8 11 6 26 17
34 23 7 7 30 25 50 41 20 15 59 47 85 72 26 24 50 45 51 45 2 0 -14 -21 -36
-47z m-2886 -30 c10 -16 24 -34 32 -42 25 -26 41 -56 50 -98 6 -24 9 -43 7
-43 -2 0 -97 157 -116 193 -15 28 7 20 27 -10z m3149 17 c-3 -5 -12 -10 -18
-10 -7 0 -6 4 3 10 19 12 23 12 15 0z m-2972 -80 c68 -49 79 -62 103 -120 15
-36 32 -71 38 -79 29 -39 -95 55 -178 134 -52 50 -64 68 -72 110 -7 38 -6 39
13 25 12 -8 55 -40 96 -70z m2937 57 c0 -2 -15 -16 -32 -33 l-33 -29 29 33
c28 30 36 37 36 29z m-870 -69 c-1 -25 -84 -106 -105 -102 -11 2 -42 5 -70 8
-47 5 -62 7 -128 22 -27 6 -28 7 -11 25 17 19 36 24 134 34 107 11 145 17 149
21 9 9 31 3 31 -8z m794 -6 c-16 -15 -128 -107 -139 -115 -5 -4 -23 -19 -40
-32 -16 -14 -55 -42 -85 -63 -30 -20 -57 -40 -60 -43 -24 -31 -352 -224 -500
-296 -146 -70 -332 -146 -390 -158 -8 -2 -67 -18 -132 -35 -269 -71 -552 -83
-773 -34 -289 65 -515 213 -683 448 -18 25 -29 46 -23 46 5 0 11 -4 13 -9 11
-31 202 -163 318 -220 47 -24 116 -63 154 -87 84 -53 184 -92 286 -111 39 -8
241 -8 280 -1 78 15 98 20 183 48 86 29 100 33 182 46 22 3 48 10 58 15 9 5
17 8 17 5 0 -6 126 28 235 65 140 48 320 129 445 201 35 21 80 43 100 49 39
12 53 19 184 75 122 53 297 158 355 212 7 7 16 10 19 7 3 -3 1 -9 -4 -13z
m-1230 -62 l48 -13 -23 -19 c-72 -57 -64 -58 -130 11 -32 34 -59 66 -59 71 0
5 26 -2 58 -14 31 -12 79 -28 106 -36z m96 33 c0 -21 -36 -23 -91 -4 l-54 18
72 -1 c49 -1 73 -5 73 -13z m920 3 c0 -2 -24 -19 -52 -36 -37 -23 -48 -26 -35
-12 21 23 87 59 87 48z m-2663 -67 c26 -25 80 -69 120 -97 47 -34 84 -72 109
-110 21 -31 40 -59 44 -62 3 -3 26 -27 51 -54 l44 -49 -50 26 c-84 43 -196
127 -271 203 -58 59 -76 85 -93 134 -11 34 -16 60 -11 58 5 -2 30 -24 57 -49z
m293 -62 c229 -116 519 -205 760 -232 30 -3 71 -9 90 -12 32 -5 88 -9 164 -12
59 -2 18 -10 -84 -17 -322 -22 -574 12 -821 112 -148 59 -200 93 -231 149 -14
28 -30 64 -34 80 -7 29 -6 29 12 13 11 -9 76 -46 144 -81z m2203 45 c-29 -27
-69 -48 -135 -70 -51 -18 -103 -34 -114 -36 -12 -3 -39 -9 -59 -15 -26 -7 -35
-7 -28 0 6 6 17 12 24 13 24 5 71 26 153 67 43 23 86 44 95 49 25 12 74 28 91
29 8 0 -4 -17 -27 -37z m-635 1 c50 -9 92 -19 92 -22 0 -3 -42 -26 -93 -50
-86 -40 -94 -42 -127 -31 -41 15 -100 49 -100 58 0 17 93 70 113 66 12 -3 64
-13 115 -21z m482 -8 c0 -3 -30 -19 -67 -36 -76 -35 -163 -69 -163 -64 0 8
156 89 184 96 41 9 46 10 46 4z m-140 -13 c0 -5 -50 -32 -111 -61 -79 -38
-120 -51 -144 -49 l-34 3 49 52 49 52 93 4 c51 1 94 4 96 5 1 1 2 -2 2 -6z
m-561 -59 c13 -9 40 -24 60 -34 30 -15 32 -18 13 -19 -42 0 -162 31 -156 42 5
8 39 26 54 27 3 1 16 -6 29 -16z m261 -18 c-25 -26 -41 -34 -62 -33 -15 1 -28
3 -28 5 0 3 112 62 119 63 3 0 -10 -16 -29 -35z m450 -9 c0 -2 -17 -15 -39
-29 -33 -22 -64 -33 -141 -53 -8 -2 -42 -11 -75 -19 -33 -9 -72 -17 -87 -19
-15 -3 -51 -9 -80 -15 -29 -6 -78 -13 -108 -16 -55 -6 -55 -6 -35 13 19 18
134 66 165 68 62 4 165 16 170 19 3 2 24 6 46 9 59 8 86 14 130 30 41 15 54
18 54 12z m-766 -27 c31 -8 56 -17 56 -20 0 -8 -113 -44 -165 -53 -16 -3 -43
-8 -60 -11 -46 -9 -265 -13 -230 -5 17 4 69 17 117 28 48 12 113 34 145 50 32
16 63 28 69 26 6 -1 37 -8 68 -15z m-1259 -68 c109 -52 258 -102 350 -116 11
-2 43 -8 71 -14 168 -33 410 -31 644 5 52 8 140 17 195 20 l100 5 -50 -34
c-27 -18 -70 -47 -95 -64 -139 -95 -194 -107 -465 -107 -213 0 -325 15 -501
68 -120 36 -169 63 -227 125 -53 57 -136 167 -120 159 4 -2 49 -23 98 -47z
m1825 -25 c0 -7 -250 -125 -280 -132 -8 -1 -48 -15 -88 -29 -84 -30 -294 -86
-300 -80 -2 2 9 10 25 18 15 8 71 46 123 83 98 70 110 74 250 90 30 3 57 8 60
9 3 2 23 6 45 9 22 4 65 13 95 20 66 16 70 17 70 12z m-430 -36 c-8 -5 -24 -9
-35 -9 l-20 0 20 9 c11 5 27 9 35 9 13 1 13 0 0 -9z m-1125 -220 c14 -5 36
-12 48 -14 12 -3 33 -8 47 -11 14 -3 41 -8 60 -11 19 -3 42 -7 50 -9 65 -17
385 -24 433 -9 17 5 19 3 11 -5 -12 -13 -98 -35 -180 -47 -156 -23 -353 17
-489 98 -33 19 -22 24 20 8z"/>
<path d="M1663 1952 c-13 -2 -23 -8 -23 -13 0 -10 5 -11 108 -12 39 0 72 -3
72 -5 0 -5 -19 -22 -89 -80 -122 -103 -121 -108 25 -105 141 2 134 1 129 16
-4 8 -33 12 -101 11 -91 -2 -95 -1 -78 15 11 10 54 48 97 86 43 37 76 72 74
78 -3 9 -165 16 -214 9z"/>
<path d="M2062 1918 c-10 -24 -27 -64 -38 -90 -10 -27 -21 -48 -24 -48 -3 0
-20 38 -38 85 -20 51 -39 85 -48 85 -8 0 -14 -2 -14 -4 0 -2 17 -48 39 -102
27 -68 45 -100 59 -105 19 -7 24 1 58 88 l37 95 35 -88 c41 -105 33 -91 55
-96 15 -2 27 17 62 105 34 84 40 108 28 105 -19 -4 -24 -12 -56 -98 -14 -36
-29 -63 -33 -61 -5 2 -22 37 -39 78 -16 41 -38 79 -48 84 -14 9 -20 3 -35 -33z"/>
<path d="M2458 1851 c-2 -79 0 -105 10 -109 11 -4 142 -6 194 -3 42 3 65 74
33 101 -11 9 -13 16 -5 24 14 14 12 61 -3 75 -8 6 -61 12 -120 13 l-106 3 -3
-104z m205 58 c6 -9 7 -24 4 -33 -5 -13 -22 -16 -92 -16 l-85 0 0 33 0 34 81
-1 c64 -1 84 -5 92 -17z m10 -97 c17 -38 -4 -49 -98 -50 l-85 0 0 32 c0 18 2
35 5 37 2 3 41 4 86 4 75 -1 83 -3 92 -23z"/>
<path d="M2785 1952 l-30 -3 1 -100 c1 -55 5 -103 8 -106 8 -8 194 -8 203 0
14 15 -11 20 -92 19 l-85 0 0 34 c0 20 5 35 13 35 6 1 41 3 77 4 94 4 95 4 84
15 -5 5 -46 10 -92 11 l-82 1 0 33 0 33 78 0 c103 0 104 0 100 13 -4 11 -116
18 -183 11z"/>
<path d="M3036 1943 c-34 -18 -39 -61 -12 -88 19 -19 34 -23 102 -24 90 -2
114 -14 94 -50 -10 -20 -19 -22 -91 -20 -73 1 -93 8 -94 32 0 4 -3 7 -7 7 -5
0 -12 0 -18 0 -17 0 6 -44 29 -56 33 -17 179 -10 198 9 19 19 21 73 4 90 -7 7
-49 13 -101 15 -102 4 -125 17 -91 51 17 17 34 21 80 21 68 0 91 -6 91 -26 0
-8 7 -14 15 -14 34 0 2 59 -33 61 -74 6 -147 2 -166 -8z"/>
<path d="M3339 1948 c-34 -13 -39 -25 -39 -105 0 -74 12 -102 48 -104 117 -9
188 -1 204 23 13 21 9 48 -7 48 -8 0 -15 -7 -15 -15 0 -8 -8 -19 -18 -24 -25
-13 -153 -12 -169 1 -17 14 -17 130 -1 146 7 7 43 12 90 12 74 0 79 -1 90 -25
13 -28 23 -32 31 -10 3 7 -2 24 -12 36 -15 19 -28 22 -99 24 -44 0 -91 -3
-103 -7z"/>
<path d="M3834 1952 c-6 -4 -10 -26 -9 -50 l1 -43 -95 3 -96 3 0 43 c0 33 -4
42 -17 42 -15 0 -17 -13 -16 -106 0 -92 2 -105 16 -102 13 2 16 14 15 48 l-2
46 97 -1 97 0 0 -45 c0 -33 4 -45 15 -45 12 0 15 18 15 98 0 103 -3 121 -21
109z"/>
<path d="M4234 1952 c-10 -2 -26 -5 -34 -8 -26 -9 7 -21 50 -17 22 2 42 -2 46
-9 4 -6 7 -49 6 -95 -2 -68 0 -83 13 -83 16 0 17 9 18 121 l0 66 50 -1 c32 -1
52 4 54 12 3 7 -5 12 -19 13 -95 3 -168 4 -184 1z"/>
<path d="M5041 1949 c-30 -12 -39 -38 -37 -112 3 -96 11 -102 137 -102 126 1
139 11 139 110 0 96 -14 108 -128 110 -50 0 -100 -2 -111 -6z m190 -29 c15 -9
19 -22 19 -66 0 -87 -5 -92 -104 -93 -107 -1 -116 6 -111 90 1 38 8 65 16 70
20 12 156 11 180 -1z"/>
<path d="M5338 1947 c-12 -13 -13 -34 -9 -184 1 -25 5 -31 17 -26 12 4 15 20
14 67 -3 133 -9 129 68 53 106 -105 131 -125 152 -120 16 4 18 15 17 106 -2
83 -5 102 -17 102 -12 0 -14 -17 -14 -87 1 -101 10 -102 -105 10 -91 88 -105
97 -123 79z"/>
<path d="M5667 1952 c-15 -3 -17 -18 -17 -108 0 -76 3 -104 13 -105 43 -4 189
0 194 5 14 14 -10 19 -92 19 l-85 1 0 36 0 36 85 -1 c48 -1 88 2 91 7 8 13
-15 18 -96 20 l-75 3 0 30 0 30 88 0 c63 0 87 3 87 13 0 6 -10 12 -22 13 -103
3 -157 4 -171 1z"/>
<path d="M1382 1888 c18 -35 35 -65 38 -68 3 -3 13 -21 24 -42 29 -57 50 -55
86 8 16 30 44 79 61 109 27 49 28 55 12 55 -13 0 -32 -25 -63 -85 -25 -47 -49
-85 -55 -85 -5 0 -30 38 -55 85 -31 59 -51 85 -63 85 -16 0 -14 -8 15 -62z"/>
<path d="M3910 1856 c0 -118 2 -120 123 -121 121 -1 129 5 131 111 2 89 -1
104 -20 104 -10 0 -13 -20 -13 -85 0 -47 -2 -89 -5 -94 -6 -10 -140 -14 -167
-6 -13 5 -16 20 -15 95 1 79 -1 90 -16 90 -16 0 -18 -11 -18 -94z"/>
<path d="M4614 1888 c72 -191 83 -196 133 -63 17 44 34 80 38 80 4 0 21 -37
38 -82 26 -68 35 -83 53 -83 16 0 26 12 42 53 11 28 29 76 41 105 18 46 19 53
5 50 -13 -2 -46 -67 -78 -152 -7 -21 -25 -11 -30 15 -1 8 -13 42 -26 77 -20
49 -29 62 -46 62 -17 0 -27 -16 -54 -85 -18 -47 -37 -82 -41 -78 -4 4 -21 42
-37 83 -18 45 -36 76 -46 78 -14 3 -13 -5 8 -60z"/>
<path d="M5903 1845 c0 -58 4 -108 8 -111 15 -9 22 20 22 97 0 44 3 79 7 79 4
0 45 -36 91 -81 77 -74 125 -107 137 -95 2 3 5 53 6 111 1 93 -1 105 -16 105
-15 0 -18 -13 -20 -90 l-3 -89 -92 89 c-65 64 -99 90 -116 90 l-25 0 1 -105z"/>
<path d="M5740 1539 c-31 -3 -65 -11 -78 -18 -32 -17 -52 -63 -52 -120 0 -115
28 -131 244 -138 82 -2 158 -9 167 -14 18 -9 16 -44 -4 -56 -5 -3 -62 -7 -125
-8 -115 -1 -142 6 -142 39 0 8 -20 12 -67 12 l-68 -1 -1 -35 c-3 -99 29 -113
251 -115 209 -2 261 8 292 53 18 27 21 44 18 96 -6 116 -25 127 -235 134 -154
4 -190 11 -190 35 0 30 25 37 136 37 106 0 114 -1 129 -22 13 -20 24 -23 81
-23 l65 0 -4 43 c-5 50 -26 77 -76 93 -39 13 -252 18 -341 8z"/>
<path d="M1344 1318 l1 -223 257 0 c245 0 258 1 285 21 49 36 59 71 58 202 -2
133 -14 170 -68 199 -28 16 -66 18 -283 21 l-251 3 1 -223z m443 90 c15 -16
25 -119 15 -161 -8 -32 -43 -40 -179 -42 -113 -1 -133 1 -137 14 -8 29 -4 196
5 201 5 3 69 5 144 5 110 -1 139 -5 152 -17z"/>
<path d="M2028 1523 c-2 -10 -3 -110 -3 -223 l0 -205 250 -3 251 -2 -1 52 0
53 -105 2 c-58 1 -139 2 -181 2 l-76 1 3 28 c1 15 2 30 3 34 1 4 58 7 129 7
70 0 144 0 165 0 l37 1 0 45 c0 25 -3 45 -7 46 -5 0 -73 1 -153 1 -80 0 -152
2 -160 4 -22 6 -23 64 -1 65 9 0 88 1 176 2 l160 2 0 50 0 50 -241 3 c-224 2
-242 1 -246 -15z"/>
<path d="M2917 1533 c-2 -5 -4 -106 -4 -225 l0 -218 223 0 224 0 0 58 0 57
-152 0 -153 0 -2 140 c-1 77 -2 152 -2 168 -1 27 -2 27 -65 27 -36 0 -67 -3
-69 -7z"/>
<path d="M3613 1528 c-6 -7 -30 -49 -53 -93 -100 -185 -153 -281 -166 -300
-28 -40 -19 -46 63 -43 l76 3 19 37 19 36 131 0 c139 -1 134 1 177 -57 15 -21
24 -23 86 -22 37 0 70 2 71 4 2 2 -48 97 -111 212 -63 115 -115 212 -115 216
0 13 -32 19 -110 19 -50 0 -81 -4 -87 -12z m143 -190 c19 -38 33 -68 32 -69
-19 -5 -158 -2 -158 3 0 4 17 41 37 83 25 49 40 70 45 62 5 -6 24 -42 44 -79z"/>
<path d="M4090 1315 l0 -225 70 0 69 0 3 58 3 57 119 0 c134 -1 146 -7 146
-77 l0 -38 71 0 71 0 -5 67 c-4 57 -9 70 -31 89 -31 28 -32 30 -6 37 39 10 54
123 25 193 -24 58 -52 64 -310 64 l-225 0 0 -225z m404 96 c13 -11 14 -42 1
-78 -3 -10 -39 -13 -135 -13 l-130 0 0 49 c0 29 5 51 12 53 29 10 238 1 252
-11z"/>
<path d="M4739 1458 c0 -77 0 -308 1 -353 0 -18 6 -20 70 -17 l69 4 0 224 -1
224 -69 0 -69 0 -1 -82z"/>
<path d="M4979 1528 c-3 -43 -4 -416 -1 -428 2 -11 15 -15 50 -13 26 1 56 2
68 2 19 1 21 6 20 86 l-1 85 31 0 c16 0 39 -8 50 -17 10 -10 51 -45 89 -78 39
-33 73 -64 77 -69 6 -9 187 -11 195 -2 2 2 -36 36 -84 76 -48 41 -95 81 -104
90 -9 9 -29 26 -44 38 l-27 21 38 33 c34 30 88 79 176 161 l30 27 -94 0 -94 0
-88 -84 c-67 -62 -95 -83 -115 -82 -14 0 -28 4 -31 8 -3 4 -5 41 -4 83 l1 75
-69 0 c-47 0 -68 -4 -69 -12z"/>
</g>
</svg>
