<?xml version="1.0" encoding="UTF-8"?><svg id="Layer_1" xmlns="http://www.w3.org/2000/svg" viewBox="0 0 166 158"><path d="M137.45,61.01c.8,0,1.58,.37,2.07,1.06,.14,.21,.25,.43,.32,.65h0c.11,.27,.15,.55,.15,.83v-2.54h-2.55Zm-107.45,0v.87c0-.3,.05-.59,.16-.87h-.16Zm0,.87v1.67c0-.28,.04-.56,.15-.82h0c-.11-.29-.15-.56-.15-.85Z" style="fill:#003f37;"/><g><polygon points="104.55 35.25 95.8 35.25 85 27.53 74.2 35.25 65.45 35.25 85 21.29 104.55 35.25" style="fill:#55828b;"/><path d="M139.85,62.74h0c-.07-.23-.18-.46-.32-.66-.49-.69-1.27-1.06-2.07-1.06h2.39c-.17-.47-.48-.89-.91-1.19l-13.6-9.71v6.24l6.52,4.66,2.39,1.71-4.73,3.37-4.19,3-3.95,2.82-36.39,26-37.17-26.55-3.95-2.82-3.41-2.44-4.73-3.37,2.39-1.71,5.74-4.11v-6.24l-12.82,9.16c-.43,.3-.74,.73-.91,1.19-.11,.28-.16,.57-.16,.87s.04,.56,.15,.84h0c-.11,.27-.15,.55-.15,.83v66.98h110V63.55c0-.28-.04-.56-.15-.82Zm-4.94,62.71H35.09v-56.95l8.79,6.29,3.95,2.83,37.17,26.55,36.39-26,3.95-2.82,9.57-6.84v56.95Z" style="fill:#55828b;"/><path d="M140,61.88c0,.29-.04,.56-.15,.84-.07-.22-.18-.45-.32-.65-.49-.69-1.27-1.06-2.07-1.06h2.39c.11,.28,.16,.57,.16,.87Z" style="fill:#55828b;"/></g><rect x="67.78" y="44.5" width="48.54" height="3.46" style="fill:#bcbe00;"/><rect x="52.9" y="52.72" width="63.42" height="3.46" style="fill:#bcbe00;"/><rect x="52.9" y="60.94" width="63.42" height="3.46" style="fill:#bcbe00;"/><polygon points="125.34 35.25 125.34 69.09 121.39 71.91 121.39 39.2 47.83 39.2 47.83 71.35 43.88 68.54 43.88 35.25 125.34 35.25" style="fill:#bcbe00;"/></svg>