<?xml version="1.0" encoding="UTF-8"?><svg id="Layer_1" xmlns="http://www.w3.org/2000/svg" viewBox="0 0 166 158"><path d="M64.13,60.93c6.25,18.44,11.51,28.53,29.97,34.49-17.77,9.18-24.72,15.12-29.97,37-6.3-23.56-13.26-30.28-30.64-36.08,20.52-7.78,24.22-13.96,30.64-35.41h0Z" style="fill:#2d726a; stroke:#2d726a; stroke-miterlimit:10; stroke-width:.87px;"/><path d="M100.22,108.34c10.17-2.77,12.9-9.14,15.52-16.33,2.58,9.37,7.33,13.45,15.89,15.61-9.25,3.19-13.13,8.9-15.7,16.57-2.24-7.93-6.29-13.87-15.71-15.85h0Z" style="fill:#bcbe00; stroke:#bcbe00; stroke-miterlimit:10; stroke-width:.87px;"/><path d="M98.41,25c8.68,20.29,6.83,21.13,25.29,27.11-15.52,9.43-20.21,9.55-24.92,30.23-3.88-16.83-6.49-20.64-25.06-29.26,14.33-5.01,19.54-11.8,24.7-28.07h0Z" style="fill:#2d726a; stroke:#2d726a; stroke-miterlimit:10; stroke-width:.87px;"/></svg>