<?xml version="1.0" encoding="UTF-8"?><svg id="Layer_1" xmlns="http://www.w3.org/2000/svg" viewBox="0 0 166 158"><path d="M83,138.97c-33.07,0-59.97-26.9-59.97-59.97S49.93,19.03,83,19.03s59.97,26.9,59.97,59.97-26.9,59.97-59.97,59.97Zm0-114c-29.79,0-54.03,24.24-54.03,54.03s24.24,54.03,54.03,54.03,54.03-24.24,54.03-54.03-24.24-54.03-54.03-54.03Z" style="fill:#55828b;"/><path d="M100.44,96.53s-6.29,3.33-11.11,3.56c-7.4,0-12.53-4.82-14.86-11.85h15.34l1.95-6.94h-18.62c-.06-.77-.08-1.55-.08-2.35s.03-1.58,.08-2.35h19.94l1.96-6.95h-20.58c2.32-7.07,7.44-11.95,14.84-11.95,3.04,0,5.91,.83,8.45,2.28l2.6-9.22c-3.39-1.58-9.33-2.36-13.26-2.36-12.57,0-21.77,8.9-24.83,21.25h-5.98s-1.95,6.95-1.95,6.95h6.9c-.04,.77-.07,1.56-.07,2.35s.02,1.58,.06,2.35h-8.21s-1.95,6.94-1.95,6.94h11.13c2.84,12.18,11.41,20.76,23.95,21.34,4.8,.22,12.85-1.41,16.91-3.89l-2.6-9.17Z" style="fill:#bcbe00;"/></svg>