<?xml version="1.0" encoding="UTF-8"?><svg id="Layer_1" xmlns="http://www.w3.org/2000/svg" viewBox="0 0 566 130"><path d="M80.89,35.03c-26.99-7.71-55.25,39.83-46.26,62.96,19.27,43.69,98.94-6.42,88.66-43.69-10.28-35.98-61.68,17.99-53.97,37.26,15.42,37.26,80.95-41.12,39.83-62.96-38.55-20.56-66.81,66.81-20.56,60.39,34.69-6.42,25.7-98.94-25.7-35.98-35.98,42.4,5.14,74.53,28.26,24.41C125.86,1.62,11.5,64.58,42.34,103.13c30.84,39.83,86.09-57.82,50.11-75.81C43.62,2.91,24.35,128.83,82.17,99.28c16.7-7.71,29.55-56.53,24.41-70.67-11.56-26.99-35.98-7.71-48.83,8.99-41.12,59.11,51.4,97.66,61.67,23.13C129.71-11.22,17.92,26.04,25.64,77.44c10.28,57.82,114.36,17.99,77.1-29.55-26.99-34.69-83.52,15.42-39.83,42.4,51.39,33.4,88.66-50.11,26.98-52.68-24.41-1.28-69.38,19.27-60.39,51.4,11.56,34.69,62.96,23.13,77.1-2.57C156.69-2.23-34.76,38.89,35.91,94.14c20.56,16.7,68.1,15.42,79.66-12.85,15.42-35.98-25.7-50.11-53.97-42.4-91.22,23.13,51.4,62.96,52.68,21.85,1.28-39.83-111.78,9-46.26,33.4,19.27,6.42,59.11-11.56,57.82-35.98-1.28-33.41-61.67-20.56-78.38-6.42-65.53,56.54,125.92,30.84,57.82-2.57-14.14-7.71-79.66-2.57-68.1,20.56,7.71,16.7,68.1,7.71,73.24-6.42-14.13-11.56-62.96-17.99-73.24,1.28,9,11.56,60.39,15.42,62.96-3.85,3.85-20.56-52.68-8.99-57.82,6.42,2.57,3.86,2.24,7.76,7.38,10.32" style="fill:none;"/><g><path d="M73.76,31.95c-17.98-4.94-33.5,11.62-41.6,25.61-8.23,14.2-13.96,34-2.79,48.16,9.37,11.88,25.56,12.12,38.92,8.13,15.73-4.69,30.29-14.95,40.43-27.8,8.62-10.91,14.75-26.48,7.28-39.63-6.97-12.28-21.58-5.59-30.17,.9-6.25,4.72-11.67,10.61-16.21,16.98-3.93,5.51-7.4,11.75-8.77,18.44-2.03,9.91,5.29,20.22,15.85,19.29,5.43-.48,10.5-3.38,14.8-6.55,5.48-4.04,10.18-9.2,14.16-14.7,7.61-10.52,13.83-24.42,11.43-37.67-2.23-12.34-14.58-21.8-27.08-21.22-12.47,.58-22.07,10.64-27.5,21.09-5.33,10.28-8.7,23.78-4.16,34.96,4.38,10.79,17.74,14.04,27.93,9.74,10.3-4.34,15.32-16.1,16.93-26.46,1.5-9.62,.74-22.21-6.64-29.47-8.89-8.74-21.61-.86-29.14,5.61-8.68,7.45-16.67,16.88-22.1,26.94-4.08,7.57-6.76,16.5-5.21,25.13,1.03,5.76,4.47,11.08,10.05,13.27,6.08,2.39,12.73-.03,17.79-3.6,8.66-6.12,14.12-16.12,18.19-25.65,2.77-6.49,5.27-13.51,5.5-20.64,.13-3.84-.63-7.97-3.48-10.75-2.52-2.46-6.19-3.14-9.6-3.04-10.17,.3-20.16,6.21-28.05,12.17-9.13,6.9-17.55,16.1-21.39,27.05-3.84,10.91-.78,21.73,7.62,29.57,8.97,8.37,20.64,6.77,30.15,.28,11.71-8,20.07-21.05,25.51-33.91,4.94-11.68,8.58-26.26,3.97-38.62-3.9-10.48-15.71-16.2-26.52-14.9-10.64,1.28-18.56,9.86-23.56,18.72-5.8,10.3-8.78,22.42-8.91,34.21-.1,9.36,1.71,20.41,9.2,26.84,8.49,7.29,21.17,3.63,29.85-1.34,6.47-3.7,10.61-11.17,13.81-17.61,4.35-8.79,7.35-18.29,9.47-27.85,1.74-7.86,3.11-16.31,2.08-24.37-.99-7.77-7.03-16-14.85-17.85-8.33-1.97-16.86,3.28-23.11,8.18-7.79,6.09-14.53,13.81-19.23,22.5-6.68,12.36-9.06,27.29-2.54,40.21,5.23,10.37,15.55,17.58,26.9,19.62,12,2.16,24.28-2.23,32.37-11.31,5.3-5.95,8.7-13.23,10.86-20.86,2.3-8.13,3.47-16.92,2.6-25.36-1.21-11.74-7.89-21.52-19.19-25.46-11.58-4.04-24.77-1.9-36.05,2.06-12.72,4.47-24.68,12.15-33.41,22.48-8.18,9.67-13.05,22.4-10.32,35.1,2.84,13.24,12.05,23.3,25.14,26.87,12.66,3.46,26.65,.99,38.37-4.48,11.02-5.15,21.48-14.04,24.92-26.1,3.85-13.48-3.63-28.34-14.48-36.36-12.46-9.21-29.34-6.1-40.58,3.48-11.05,9.42-15.33,24.84-6.75,37.33,5.14,7.49,13.79,12.84,22.07,16.2,6.82,2.76,14.3,3.81,21.58,2.63,12.42-2.03,22.9-10.92,27.98-22.27,4.65-10.39,4.13-23.07-4.09-31.51-10.81-11.1-29.43-11.3-43.5-8.16-16.98,3.79-36.44,13.4-44.68,29.59-8.04,15.79-1.28,35.04,14.74,42.53,15.37,7.18,34.72,2.66,48.49-6.01,12.43-7.82,20.63-21.29,23.79-35.52,1.91-8.59,1.13-17.75-5.03-24.48-5.76-6.3-14.54-9.01-22.76-10.11-10.17-1.36-20.67-.32-30.61,2.06-9.63,2.31-19.14,6.07-27.22,11.86-6.41,4.59-12.19,11.02-13.42,19.07-1.41,9.25,4.19,17.66,10.46,23.88,5.39,5.34,11.56,9.6,18.64,12.36,8.73,3.39,18.3,4.65,27.62,4.34,17.45-.59,36.61-7.88,43.8-25.02,3.51-8.38,5.03-17.68,1.35-26.26-3.14-7.31-9.73-12.43-16.77-15.69-17.03-7.9-35.97-5.37-53.13,.52-5.77,1.98-11.83,4.42-16.47,8.51-2.42,2.14-4.35,5.04-4.05,8.39,.69,7.77,11.2,12.37,17.31,14.85,11.02,4.47,23.17,6.69,35.03,7.02,9.79,.27,21.42-.58,29.4-6.93,6.55-5.21,8.38-15.84,2.8-22.45-6.3-7.48-18.84-6.3-27.32-4.57-11.4,2.32-23.02,7.4-31.74,15.21-6.52,5.85-11.28,14.6-5.72,22.73,3.59,5.25,9.8,8.47,15.48,10.93,7.92,3.42,16.11,3.33,24.45,1.48,16.37-3.62,36.59-14.93,39.9-32.9,1.26-6.84-.54-14.38-5.42-19.43-4.7-4.85-11.6-6.89-18.11-7.77-15.94-2.15-33.41,1.81-47.91,8.39-6.04,2.74-11.07,6.36-15.77,11.01-3.36,3.33-6.6,7.05-8.57,11.4-7.52,16.58,17.86,19.41,28.3,19.64,10.32,.23,20.72-.95,30.79-3.18,8.42-1.87,17.26-4.48,24.43-9.45,4.49-3.12,8.35-8.07,5.69-13.66-1.58-3.34-4.74-5.83-7.73-7.85-4.3-2.9-8.91-5.23-14-6.27-7.06-1.44-14.45-1.49-21.62-1.18-8.27,.36-16.58,1.47-24.57,3.66-9.58,2.62-24.87,9.26-18.79,21.76,2.5,5.15,8.53,7.23,13.74,8.38,8.04,1.78,16.55,1.55,24.69,.72,8.4-.85,16.81-2.59,24.73-5.54,4.84-1.81,11.36-4.5,13.86-9.42,.15-.3,.28-.6,.4-.91,.06-.15,0-.31-.13-.4-4.83-3.88-10.93-6.08-16.81-7.79-7.74-2.24-15.8-3.44-23.85-3.75-12.2-.48-29.93,.82-36.61,12.96-.08,.15-.09,.3,.02,.43,3.81,4.76,10.83,6.69,16.48,8.04,8.09,1.93,16.55,2.54,24.84,1.99,7-.47,14.75-1.83,20.46-6.21,3.92-3.02,6.42-8.77,4.33-13.55-2.11-4.82-8.58-5.99-13.2-6.36-7.64-.63-15.51,.73-22.86,2.77-6.88,1.91-13.9,4.65-19.56,9.1-1.99,1.57-3.79,3.48-4.86,5.8-.7,1.53,.86,3.05,1.48,4.49,.9,2.09,1.77,4.33,3.57,5.84,.79,.66,1.6,1.19,2.51,1.68,.39,.21,.8-.36,.4-.57-2.88-1.55-4.37-3.74-5.61-6.68-.5-1.17-1.01-2.32-1.64-3.43-.46-.8,.15-1.55,.58-2.28,1.6-2.65,4.24-4.64,6.81-6.29,6.65-4.28,14.52-6.77,22.21-8.37,8.62-1.79,35.2-4.47,29.42,12.01-2.38,6.79-10.92,9.32-17.23,10.51-8.56,1.61-17.55,1.29-26.12-.07-6.82-1.07-14.79-2.84-20.16-7.49-.21-.18-1.25-1.01-1.09-1.32,.4-.73,.89-1.41,1.39-2.07,1.19-1.56,2.71-2.85,4.31-3.97,3.49-2.45,7.67-3.85,11.79-4.8,9.37-2.17,19.32-1.83,28.78-.52,8.77,1.21,17.82,3.43,25.64,7.7,1.37,.74,2.67,1.59,3.9,2.55,.41,.32-1.72,2.72-1.97,2.99-2.14,2.23-4.97,3.76-7.73,5.07-7.58,3.6-16.04,5.45-24.31,6.64-8.62,1.24-17.53,1.62-26.16,.29-6.17-.95-13.32-3.01-16.13-9.14-6.58-14.33,16.8-20.06,26.14-21.83,8.27-1.57,16.76-2.2,25.18-2.03,6.21,.12,13.04,.46,18.84,2.91,5.94,2.51,16.97,8.25,16.48,16.15-.41,6.61-8.75,10.62-13.93,12.89-9.12,3.99-19.1,6.08-28.94,7.34-9.86,1.25-20.07,1.63-29.91-.01-5.99-1-14.63-3.1-16.87-9.63-2.82-8.21,6.9-17.11,12.1-21.85,5.19-4.72,11.35-7.84,17.87-10.34,8.06-3.1,16.57-5.12,25.14-6.12,13.84-1.62,34.75-.75,39.61,15.46,6.02,20.14-15.24,35.28-31.53,41.09-8.48,3.03-18.49,4.85-27.31,2.2-6.64-2-14.04-5.88-18.48-11.34-7.14-8.77-.38-18.52,6.92-24.42,9.41-7.61,21.68-12.43,33.61-14.09,8.89-1.24,21.99-.67,25,9.8,1.29,4.46,.57,9.58-2.06,13.41-2.6,3.77-6.85,6.05-11.08,7.51-11.03,3.82-23.7,3.08-35.04,1.26-10.74-1.72-22.38-4.77-31.33-11.21-2.82-2.03-5.76-4.82-6.34-8.41-.61-3.83,2.28-7.01,5.06-9.18,5.62-4.37,12.84-6.77,19.56-8.82,9.37-2.85,18.7-4.57,28.52-3.87,17.49,1.24,38.18,10.73,38.17,30.89,0,10.03-4.72,20.44-12.04,27.22-7.08,6.56-16.6,10.02-25.98,11.59-18.29,3.05-37.93-.96-52.02-13.32-7.18-6.3-14.03-15.12-12.84-25.25,.99-8.46,7.48-15.09,14.16-19.73,8.46-5.87,18.49-9.5,28.5-11.66,10.04-2.17,20.63-2.85,30.78-1.05,8.38,1.49,17.13,5.11,21.89,12.53,5.62,8.74,3.52,19.86,0,28.96-2.88,7.44-6.76,14.69-12.48,20.33-6.47,6.38-14.78,10.84-23.41,13.5-16.82,5.19-37.55,2.82-47-13.78-4.91-8.63-5.07-18.92-.88-27.84,4.18-8.89,12.19-15.6,20.47-20.54,15.68-9.37,35.84-14.44,53.77-9.23,6.65,1.93,12.82,5.74,16.59,11.66,3.19,5.02,4.14,11.09,3.49,16.93-1.44,12.81-10.6,24.26-22.28,29.36-15.97,6.98-34.8,.11-46.84-11.36-6.04-5.75-9.6-13.6-8.6-22,.9-7.58,5.43-14.35,11.08-19.29,5.85-5.11,13.35-8.35,21.1-8.88,8.73-.6,16.95,3.02,23.01,9.2,10.15,10.38,14.38,25.58,7.07,38.69-6.54,11.73-19.45,19.21-32.06,22.69-12.74,3.52-27.58,3.24-38.78-4.48-11.74-8.1-16.52-23.83-13.15-37.39,3.27-13.14,13.24-23.74,24.14-31.21,11.26-7.71,24.83-12.89,38.52-13.6,11.77-.61,24.26,3,30.6,13.66,3.58,6.03,4.56,13.24,4.4,20.14-.21,9.25-2.26,18.76-6.05,27.21-5.74,12.8-17.05,22.47-31.39,23.3-12.25,.71-24.4-5.35-31.6-15.19-8.85-12.1-7.95-27.74-1.96-40.86,4.3-9.42,11.03-17.42,18.85-24.13,6.9-5.92,16.84-12.36,26.29-9.12,5.3,1.82,8.75,6.77,11.09,11.59,1.59,3.27,1.83,6.93,1.83,10.52,0,9.31-2.04,18.72-4.6,27.63-2.7,9.39-6.33,18.76-11.73,26.94-2.13,3.23-4.64,6.28-7.78,8.57-2.82,2.05-6.4,3.42-9.69,4.52-5.19,1.75-10.98,2.43-16.19,.41-4.38-1.69-7.58-5.32-9.67-9.42-5.08-9.99-4.53-22.55-2.41-33.23,2.3-11.56,7.29-23.54,16.06-31.68,8.76-8.14,20.63-9.29,31.07-3.54,11.87,6.54,12.41,21.8,10.14,33.56-2.84,14.78-10.28,29.16-20.26,40.37-7.89,8.85-20.34,18.01-32.72,12.97-11.3-4.6-17.56-17.68-15.18-29.33,2.39-11.67,11.09-21.61,20.03-28.98,8.12-6.68,18.52-13.04,29.26-13.83,3.77-.27,7.84,.47,10.47,3.39,3.13,3.48,3.08,8.78,2.51,13.12-1.15,8.86-4.99,17.7-9.19,25.5-4.62,8.57-11.52,17.68-21.22,20.69-6.45,2-13.09-.15-16.9-5.75-4.8-7.05-3.65-16.65-1.08-24.27,3.95-11.71,12.41-21.82,21.01-30.46,5.46-5.49,12.05-11.1,19.76-12.96,11.47-2.77,17.77,7.61,19.44,17.44,1.93,11.39-.48,24.64-7.71,33.84-7.4,9.42-23.29,12.43-32.28,3.38-8.72-8.78-6.19-24.18-2.24-34.52,4.48-11.73,13.71-24.01,26.83-26.27,13.82-2.38,27.59,8.32,29.51,21.93,1.97,14.05-5.67,28.65-14.19,39.24-4.32,5.37-9.47,10.24-15.42,13.76-4.54,2.69-10.1,4.74-15.42,3.45-5.26-1.29-9.36-6.5-10.45-11.66-1.33-6.28,1.9-13.23,4.86-18.56,3.91-7.05,9.15-13.42,15.05-18.9,5.3-4.93,11.6-9.55,18.7-11.4,6.32-1.64,12.18,.39,15.57,6.08,3.87,6.5,4.03,14.53,2.05,21.65-4.47,16.1-18.44,29.04-32.35,37.34-13.05,7.79-30.78,13.84-45.54,7.31-7.14-3.16-12.96-9.95-15-17.48-2.42-8.94-.14-18.85,3.06-27.28,3.68-9.7,9.5-18.67,16.94-25.92,6.51-6.34,15.24-11.32,24.58-10.7,1.49,.1,2.95,.39,4.39,.79,.28,.06,.45-.38,.15-.47h0Z" style="fill:#fff;"/><g><path d="M150.97,44.8h34.78c11.53,0,15.57,3.79,15.57,13.09v11.43c0,9.29-4.04,13.09-15.57,13.09h-34.78V44.8Zm11.53,27.93h20.45c4.93,0,6.85-1.41,6.85-6.74v-5.08c0-5.35-1.93-6.74-6.85-6.74h-20.45v18.57Z" style="fill:#fff;"/><path d="M208.3,44.8h41.12v8.72h-29.6v6.02h28.04v7.78h-28.04v6.02h30.27v9.03h-41.79V44.8Z" style="fill:#fff;"/><path d="M282.69,44.8h11.53v27.93h25.9v9.66h-37.43V44.8Z" style="fill:#fff;"/><path d="M341.68,44.8h15l20.67,37.6h-12.82l-3.59-6.64h-23.37l-3.37,6.64h-12.87l20.35-37.6Zm.2,22.85h14.75l-7.48-14.13-7.26,14.13Z" style="fill:#fff;"/><path d="M381.44,44.8h34.78c8.88,0,11.26,4.41,11.26,11.16v2.38c0,5.03-1.14,8-6.44,9.24v.1c3.42,.62,6.29,2.13,6.29,8.3v6.39h-11.53v-4.51c0-3.94-1.14-5.25-4.73-5.25h-18.12v9.76h-11.53V44.8h.02Zm11.53,18.49h19.06c3.12,0,4.26-1.24,4.26-3.94v-1.24c0-3.32-1.66-3.94-5.3-3.94h-18.02v9.13Z" style="fill:#fff;"/><path d="M435.9,44.8h11.53v37.6h-11.53V44.8Z" style="fill:#fff;"/><path d="M455.85,44.8h11.53v13.81h5.39l14.53-13.81h15.69l-20.35,18.39,22.73,19.21h-16.31l-16.61-14.43h-5.08v14.43h-11.53V44.8h.02Z" style="fill:#fff;"/><path d="M509,70.08h11.53c.05,3.99,1.66,4.31,4.98,4.31h14.13c2.45,0,4.93-.25,4.93-3.17,0-3.27-1.34-3.47-16.21-3.47-17.35,0-19.31-2.08-19.31-11.32,0-6.79,.62-12.05,15.17-12.05h16.09c13.29,0,14.55,4.51,14.55,11.11v1.19h-11.53c0-2.75-.32-3.89-5.6-3.89h-12.77c-2.6,0-4.36,.89-4.36,2.9,0,3.27,1.41,3.37,13.76,3.32,17.92-.05,22.06,1.04,22.06,12,0,10.12-3.42,11.78-18.74,11.78h-13.96c-10.49,0-14.7-1.98-14.7-10.12v-2.58h-.02Z" style="fill:#fff;"/></g></g></svg>