<?xml version="1.0" encoding="UTF-8"?><svg id="Layer_1" xmlns="http://www.w3.org/2000/svg" viewBox="0 0 376 348"><path d="m67.17,285.12h20.73c6.87,0,9.28,2.26,9.28,7.8v6.81c0,5.54-2.41,7.8-9.28,7.8h-20.73v-22.41Zm6.87,16.65h12.19c2.94,0,4.08-.84,4.08-4.02v-3.03c0-3.19-1.15-4.02-4.08-4.02h-12.19v11.07Z" style="fill:#fff;"/><path d="m101.34,285.12h24.51v5.2h-17.64v3.59h16.71v4.64h-16.71v3.59h18.04v5.38h-24.91v-22.4Z" style="fill:#fff;"/><path d="m145.68,285.12h6.87v16.65h15.44v5.76h-22.31v-22.41Z" style="fill:#fff;"/><path d="m180.84,285.12h8.94l12.32,22.41h-7.64l-2.14-3.96h-13.93l-2.01,3.96h-7.67l12.13-22.41Zm.12,13.62h8.79l-4.46-8.42-4.33,8.42Z" style="fill:#fff;"/><path d="m204.54,285.12h20.73c5.29,0,6.71,2.63,6.71,6.65v1.42c0,3-.68,4.77-3.84,5.51v.06c2.04.37,3.75,1.27,3.75,4.95v3.81h-6.87v-2.69c0-2.35-.68-3.13-2.82-3.13h-10.8v5.82h-6.87v-22.4h0Zm6.87,11.02h11.36c1.86,0,2.54-.74,2.54-2.35v-.74c0-1.98-.99-2.35-3.16-2.35h-10.74v5.44Z" style="fill:#fff;"/><path d="m237,285.12h6.87v22.41h-6.87v-22.41Z" style="fill:#fff;"/><path d="m248.89,285.12h6.87v8.23h3.21l8.66-8.23h9.35l-12.13,10.96,13.55,11.45h-9.72l-9.9-8.6h-3.03v8.6h-6.87v-22.41h.01Z" style="fill:#fff;"/><path d="m280.57,300.19h6.87c.03,2.38.99,2.57,2.97,2.57h8.42c1.46,0,2.94-.15,2.94-1.89,0-1.95-.8-2.07-9.66-2.07-10.34,0-11.51-1.24-11.51-6.75,0-4.05.37-7.18,9.04-7.18h9.59c7.92,0,8.67,2.69,8.67,6.62v.71h-6.87c0-1.64-.19-2.32-3.34-2.32h-7.61c-1.55,0-2.6.53-2.6,1.73,0,1.95.84,2.01,8.2,1.98,10.68-.03,13.15.62,13.15,7.15,0,6.03-2.04,7.02-11.17,7.02h-8.32c-6.25,0-8.76-1.18-8.76-6.03v-1.54h-.01Z" style="fill:#fff;"/><path d="m67.42,264.42h1.62l5.18,9.39,5.18-9.39h1.62l-5.92,10.68h-1.77l-5.91-10.68Z" style="fill:#fff;"/><path d="m81.95,273.98l9.75-8.38h-9.44v-1.18h11.72v1.03l-9.8,8.47h10.01v1.18h-12.23v-1.12h0Z" style="fill:#fff;"/><path d="m94.89,264.42h1.42l3.73,9.34,3.66-9.34h1.86l3.62,9.39,3.78-9.39h1.42l-4.25,10.68h-1.86l-3.63-9.39-3.63,9.39h-1.86l-4.26-10.68Z" style="fill:#fff;"/><path d="m123,264.42h9.12c2.21,0,2.83,1.15,2.83,2.38v.92c0,.77-.43,1.55-1.73,1.68v.06c1.14.06,2.14.49,2.14,2.11v1.27c0,1.49-1.33,2.27-3.1,2.27h-9.27v-10.69h.01Zm10.51,2.3c0-.97-1.08-1.12-1.52-1.12h-7.54v3.41h7.47c.78,0,1.59-.25,1.59-1.31v-.98Zm.41,5c0-1.33-.74-1.53-2.05-1.53h-7.42v3.73h7.64c1.34,0,1.83-.49,1.83-1.43v-.77Z" style="fill:#fff;"/><path d="m137.92,264.42h10.5v1.18h-9.05v3.41h8.69v1.18h-8.69v3.73h9.11v1.18h-10.56v-10.68Z" style="fill:#fff;"/><path d="m150.42,271.74h1.36v.75c0,1.05.56,1.55,2.36,1.55h4.49c2.1,0,2.72-.44,2.72-1.98,0-1.34-.53-1.68-2.33-1.68h-2.75c-4.41,0-5.86-.27-5.86-3.1,0-2.43,1.45-2.98,4.43-2.98h3.11c3.59,0,4.49.92,4.49,2.82v.37h-1.36c-.03-1.7-.21-2.01-4-2.01h-1.53c-2.79,0-3.78.15-3.78,1.9,0,1.27.4,1.7,2.66,1.7h4.28c2.82,0,4,.81,4,2.63v.69c0,2.63-2.15,2.82-4.29,2.82h-4.01c-2.11,0-3.97-.37-3.97-2.7v-.78h-.02Z" style="fill:#fff;"/><path d="m164.96,268.3c0-2.7.92-4,3.81-4h5.53c2.63,0,3.35,1.23,3.35,2.66v.91h-1.27v-.49c0-1.82-1.12-1.9-2.45-1.9h-5.02c-1.39,0-2.51.41-2.51,2.27v4.01c0,1.86,1.12,2.27,2.51,2.27h5.06c1.95,0,2.51-.41,2.51-1.86v-.66h1.36v.72c0,1.93-.62,2.98-3.62,2.98h-5.46c-2.89,0-3.81-1.3-3.81-4v-2.91h0Z" style="fill:#fff;"/><path d="m180.17,264.42h1.45v4.59h9.65v-4.59h1.45v10.68h-1.45v-4.91h-9.65v4.91h-1.45v-10.68Z" style="fill:#fff;"/><path d="m195.56,264.42h1.45v7.98c0,1.03.35,1.64,2.32,1.64h5.02c1.96,0,2.32-.61,2.32-1.64v-7.98h1.45v8c0,2.17-1.09,2.8-3.81,2.8h-4.93c-2.72,0-3.81-.63-3.81-2.8v-8h-.01Z" style="fill:#fff;"/><path d="m215.17,265.6h-5.4v-1.18h12.25v1.18h-5.4v9.5h-1.45v-9.5Z" style="fill:#fff;"/><path d="m229.47,264.42h1.42l3.73,9.34,3.66-9.34h1.86l3.62,9.39,3.78-9.39h1.42l-4.25,10.68h-1.86l-3.63-9.39-3.63,9.39h-1.86l-4.26-10.68Z" style="fill:#fff;"/><path d="m250.17,268.3c0-2.7.92-4,3.81-4h6.15c2.89,0,3.81,1.3,3.81,4v2.92c0,2.7-.92,4-3.81,4h-6.15c-2.89,0-3.81-1.3-3.81-4v-2.92Zm12.32-.54c0-1.86-1.12-2.27-2.51-2.27h-5.86c-1.39,0-2.51.41-2.51,2.27v4.01c0,1.86,1.12,2.27,2.51,2.27h5.86c1.39,0,2.51-.41,2.51-2.27v-4.01Z" style="fill:#fff;"/><path d="m266.41,264.42h2.15l9.79,9.39v-9.39h1.45v10.68h-2.15l-9.78-9.39v9.39h-1.45v-10.68h-.01Z" style="fill:#fff;"/><path d="m282.53,264.42h10.49v1.18h-9.05v3.41h8.69v1.18h-8.69v3.73h9.11v1.18h-10.55v-10.68Z" style="fill:#fff;"/><path d="m295.19,264.42h2.15l9.79,9.39v-9.39h1.45v10.68h-2.16l-9.78-9.39v9.39h-1.45v-10.68Z" style="fill:#fff;"/><path d="m204.66,74.66c-57.03-16.29-116.76,84.18-97.76,133.06,40.73,92.32,209.09-13.58,187.36-92.32-21.73-76.03-130.35,38.02-114.05,78.74,32.59,78.74,171.07-86.89,84.18-133.06-81.47-43.44-141.2,141.2-43.44,127.62,73.32-13.58,54.3-209.08-54.3-76.03-76.03,89.61,10.86,157.5,59.73,51.59,73.32-160.21-168.35-27.15-103.18,54.3,65.17,84.18,181.93-122.2,105.9-160.2-103.18-51.59-143.91,214.52-21.73,152.06,35.3-16.29,62.45-119.47,51.59-149.35-24.44-57.03-76.03-16.29-103.18,19-86.89,124.92,108.62,206.38,130.34,48.89,21.73-152.06-214.52-73.32-198.22,35.3,21.72,122.2,241.67,38.02,162.93-62.45-57.03-73.32-176.5,32.58-84.18,89.61,108.61,70.59,187.36-105.9,57.02-111.33-51.59-2.71-146.63,40.73-127.62,108.62,24.44,73.32,133.05,48.88,162.93-5.44C364.87-4.08-39.72,82.81,109.62,199.57c43.44,35.3,143.91,32.59,168.35-27.15,32.59-76.03-54.3-105.9-114.05-89.61-192.78,48.88,108.62,133.05,111.33,46.17,2.71-84.18-236.23,19.01-97.76,70.59,40.73,13.58,124.91-24.44,122.2-76.03-2.71-70.6-130.34-43.45-165.64-13.58-138.48,119.48,266.11,65.17,122.2-5.43-29.88-16.29-168.35-5.44-143.91,43.45,16.29,35.3,143.91,16.29,154.78-13.58-29.87-24.44-133.05-38.02-154.78,2.71,19.01,24.44,127.62,32.59,133.05-8.14,8.14-43.44-111.33-19-122.2,13.58,5.43,8.15,4.73,16.39,15.59,21.82" style="fill:none; stroke:#fff; stroke-miterlimit:10; stroke-width:.67px;"/><path d="m223.99,32.67c1.26,0,2.51.07,3.74.21-1.2-.13-2.41-.19-3.64-.19-2.76,0-5.6.32-8.52.97,2.9-.66,5.7-.99,8.42-.99m24.04,10.72c1.59,1.62,3.09,3.39,4.47,5.3-.12-.05-.24-.1-.36-.15-1.31-1.89-2.68-3.61-4.11-5.15m-26.55.93c9.8,0,18.95,1.46,27.19,4.33.87.3,1.74.63,2.59.97.03.05.06.09.09.14-8.85-3.51-19.17-5.36-30-5.36-1.67,0-3.37.04-5.06.13-4.95.26-9.95.8-14.97,1.64,6.99-1.23,13.73-1.85,20.15-1.85m-18.33,7.47c6.99,0,14.05,1.41,20.55,4.08-.02,0-.04.01-.06.02-6.56-2.56-13.3-3.86-20.03-3.86-9.42,0-18.4,2.52-26.48,7.36,6.35-3.98,13.04-6.4,19.93-7.23,2-.24,4.05-.36,6.09-.36m52.98.05c.82.42,1.63.86,2.42,1.31-.78-.43-1.57-.85-2.38-1.25-.01-.02-.02-.04-.04-.06m-1.34.88c.14.07.28.14.42.2.6,1.06,1.17,2.15,1.69,3.25-.09-.03-.17-.06-.26-.09-.6-1.16-1.22-2.28-1.85-3.36m-77.91,4.2c-1.32,1.21-2.62,2.43-3.87,3.65-.03.03-.07.05-.1.07,1.3-1.26,2.63-2.51,3.98-3.73m81.35,2.43s.02,0,.04.01c.08.21.16.43.24.64-.09-.22-.18-.44-.28-.66m-20.6,7.9c.76.16,1.5.36,2.23.59.03.04.07.07.1.11-.76-.27-1.54-.5-2.33-.7m7.13,2.75c1.98,1.14,3.85,2.58,5.59,4.29,1.4,1.38,2.72,2.89,3.93,4.52-.11-.02-.23-.03-.34-.05-2.61-3.51-5.59-6.32-8.86-8.35-.1-.14-.21-.27-.31-.41m35.96,4.25c3.79,4.54,6.74,9.61,8.7,14.92-2.01-5.24-4.92-10.24-8.61-14.73-.03-.06-.07-.12-.1-.18m-50.16,4.47c.42.1.85.2,1.27.31-.25,0-.5.02-.74.02-1.14-.09-2.3-.17-3.48-.23.99-.04,1.97-.08,2.95-.1m9.68.08c2.44.1,4.86.27,7.22.5.02.03.03.07.05.1-2.15-.18-4.38-.31-6.64-.38-.21-.07-.42-.15-.63-.22m10.16.82c.61.07,1.23.15,1.83.23.32.04.63.09.95.13.01.02.02.03.03.05-.92-.13-1.85-.24-2.79-.35,0-.02-.02-.04-.03-.07m-19.35.76c3.13.26,6.21.65,9.16,1.17.56.2,1.11.4,1.65.61-3.91-.79-7.92-1.37-11.99-1.73.39-.02.79-.03,1.18-.05m26.09.24c1.01.18,1.99.38,2.96.58,0,0,0,.02,0,.02-.96-.21-1.95-.4-2.94-.58,0-.01-.01-.02-.02-.03m-1.14,1.18c.12.02.23.04.34.06.69,1.12,1.35,2.3,1.96,3.52-.13-.05-.25-.11-.38-.16-.61-1.19-1.25-2.33-1.93-3.42m6.73.01c8.8,2.18,16.11,5.54,21.74,10,0,.05.02.09.03.14-5.72-4.54-13.03-7.94-21.77-10.12,0,0,0-.02,0-.02m-61.94.86c-1.4.27-2.79.56-4.18.86.1-.08.19-.16.29-.24,1.3-.23,2.59-.43,3.89-.62m30.07.04c5.62,1.54,11.08,3.54,16.29,5.95,1.32.61,2.63,1.26,3.9,1.92.01.06.02.12.04.18-5.96-3.11-12.53-5.7-19.57-7.68-.22-.12-.44-.24-.66-.36m-.45,1.44c.2.05.39.11.59.16,1.96,1.11,3.88,2.36,5.71,3.71,2.76,2.04,5.44,4.33,7.97,6.8,0,0-.01,0-.02,0-4.34-4.28-9.11-7.86-14.25-10.68m-38.34.07c-.15.13-.3.26-.45.39l-.1.09s-.07.02-.1.03c.1-.14.2-.29.31-.43.12-.03.24-.05.36-.08m-3.99.92c-.11.17-.23.34-.34.5-7.28,1.9-14.45,4.21-21.31,6.84-4.05,1.56-7.74,3.11-11.18,4.73.12-.11.24-.22.36-.33l.37-.17c10.41-4.73,21.21-8.62,32.09-11.57m66.05.04c.96.34,1.9.71,2.83,1.08.05.11.11.22.16.33-.63-.25-1.26-.5-1.89-.73-.36-.23-.73-.46-1.1-.68m8.31,3.6c.21.11.42.22.63.33-.11.01-.23.03-.34.04-.1-.05-.2-.1-.31-.16,0-.07.01-.14.02-.21m11.39,2.28c4.54,1.18,8.46,3.59,11.7,7.22,0,.02,0,.05,0,.07-3.28-3.52-7.24-5.98-11.71-7.3m-7.26.22c.1,0,.19,0,.29,0,3.15,1.97,6.07,4.21,8.71,6.68-2.69-2.46-5.7-4.69-9-6.68m-102.79.31c-1.24.51-2.49,1.04-3.72,1.59.07-.06.15-.11.22-.17,1.16-.48,2.33-.96,3.5-1.42m91.63,1.41c1.3.78,2.58,1.58,3.81,2.41,0,.06-.01.11-.02.17-1.28-.87-2.61-1.71-3.97-2.52.06-.02.12-.04.18-.06m-2.4.79c.21,1.23.38,2.49.53,3.76-.02,0-.04-.01-.07-.02-.13-1.26-.29-2.51-.48-3.73,0,0,.01,0,.02,0m34.58.75c.26.25.51.51.76.76.74.77,1.46,1.58,2.14,2.41,0,.04.01.08.02.11-.9-1.1-1.87-2.15-2.9-3.15,0-.05-.02-.09-.02-.14m-25.68.13c.12.41.23.83.35,1.25-.06-.05-.13-.09-.19-.14-.07-.23-.13-.46-.2-.69.02-.14.03-.28.05-.42m-79.94.64s-.02.04-.03.06c-.84.86-1.69,1.73-2.53,2.6h-.1c.88-.89,1.77-1.78,2.66-2.66m55.41,1.56c1.09,0,2.17.02,3.22.07-.15.08-.3.17-.45.25-1.07-.05-2.17-.08-3.28-.09-.05-.08-.11-.15-.16-.23.22,0,.45,0,.67,0m-85.69,0c-.19.18-.38.37-.56.55-1.74.89-3.47,1.81-5.18,2.76.07-.17.15-.33.22-.5,1.8-.96,3.65-1.9,5.53-2.82m82,.07s.01.01.02.02c.05.05.09.1.14.16-.36,0-.72.02-1.08.04-.32-.04-.65-.08-.98-.11.64-.04,1.27-.07,1.9-.1m11.24.31c.1.01.21.02.31.03.12.12.24.25.35.37-.39-.05-.78-.1-1.18-.14.17-.09.35-.18.52-.27m-32.71.13c1.93,0,3.79.02,5.6.07-.22.04-.43.08-.65.12l-1.35-.03c-1.77-.04-3.56-.05-5.32-.05-9.09,0-18.12.47-26.88,1.41.06-.03.13-.06.19-.09,4.97-.51,10.13-.89,15.33-1.11,4.81-.21,9.09-.31,13.08-.31m37.31.56c.93.18,1.84.39,2.71.61.01.12.02.25.03.37-.77-.2-1.56-.38-2.36-.55-.13-.14-.25-.29-.38-.43m-32.25.96c.06,0,.13,0,.19,0-4.68.83-9.33,1.9-13.93,3.19,3.6-1.01,7.25-1.89,10.94-2.64.91-.19,1.85-.37,2.81-.55m47.15.33c1.78,1.44,3.47,2.95,5.02,4.5.12.21.25.42.37.63-1.65-1.69-3.44-3.32-5.33-4.88-.02-.08-.03-.17-.05-.25m-9.35.16c1.21.4,2.37.86,3.48,1.36-.01.1-.03.2-.04.3-1.08-.47-2.22-.91-3.4-1.3-.01-.12-.02-.24-.03-.36m-5.96.18s.06.01.09.02c.32.37.65.75.97,1.14-.04-.01-.07-.02-.11-.03-.31-.37-.63-.75-.95-1.12m-73.39.2s-.07.07-.1.11c-3.6.51-7.2,1.1-10.7,1.77-6.33,1.2-12.31,2.63-17.81,4.25.04-.05.08-.09.11-.14.86-.26,1.7-.5,2.53-.72,8.21-2.24,16.94-4.01,25.98-5.26m87.44.36s.06.05.1.08c.12.59.23,1.18.33,1.78-.02-.01-.04-.03-.06-.04-.11-.61-.24-1.21-.37-1.82m-9.42.58s.07.02.1.03c.03.45.06.9.09,1.35-.04-.02-.08-.03-.11-.05-.02-.45-.05-.89-.07-1.34m-105.83.08c-.08.09-.16.18-.24.27-.95.53-1.89,1.07-2.81,1.61.02-.04.04-.09.06-.13.98-.6,1.98-1.18,2.99-1.75m113.02,1.14c.48.26.94.54,1.4.82.02.09.03.18.05.28-.48-.29-.98-.57-1.49-.84.01-.09.03-.17.04-.26m-112.35.15c-.63.71-1.24,1.43-1.84,2.16.58-.72,1.17-1.43,1.78-2.12.02-.01.04-.02.06-.03m145.02.01c.45.74.87,1.5,1.27,2.27-.4-.76-.82-1.51-1.27-2.24,0-.01,0-.02,0-.03m-151.97.11c-.09.2-.18.41-.27.61l-.06.04c-1.19.71-2.37,1.44-3.53,2.17.3-.35.6-.7.9-1.04.97-.6,1.96-1.19,2.97-1.77m-29.32.78c-.72.52-1.44,1.05-2.14,1.59-3.1,2.42-5.53,4.87-7.28,7.35,1.41-2.05,3.1-3.8,4.69-5.2,1.51-1.33,3.09-2.58,4.73-3.74m85.38.87c-1.64.53-3.27,1.09-4.89,1.68,0,0-.01,0-.02,0,1.63-.59,3.26-1.15,4.92-1.69m-24.56.82c-1.61,1.78-3.16,3.54-4.63,5.26,0,0-.01,0-.02,0,1.44-1.72,2.93-3.44,4.43-5.12.07-.04.15-.09.22-.13m92.27.29c1.28,1.05,2.45,2.22,3.51,3.47.76.91,1.47,1.86,2.11,2.87l-.05-.03c-1.48-2.31-3.34-4.36-5.55-6.12,0-.06-.02-.12-.02-.18m-54.73.48h0c2.62,0,5.22.11,7.72.31,2.82.23,5.34.56,7.64,1-.11.09-.22.17-.32.26-4.25-.77-9.15-1.16-14.57-1.16-7.37,0-14.2.7-19.11,1.39.36-.14.73-.27,1.1-.4,6.12-.92,12.02-1.39,17.54-1.39m-70.5.17s-.01.03-.02.04c-.91.61-1.8,1.24-2.67,1.87.89-.65,1.79-1.29,2.69-1.91m124,.23s0,0,0,0c0,.07.02.15.03.22-.01-.07-.02-.15-.03-.22m-34.94,1.6c4.02,1.03,7.35,2.49,9.9,4.33,0,.08,0,.16.01.25-2.64-1.86-6.07-3.31-10.21-4.34.1-.08.2-.16.3-.24m26.17.23c.55.82,1.08,1.64,1.59,2.47,0,.04-.02.09-.02.13-.51-.83-1.03-1.65-1.56-2.46,0-.05,0-.1,0-.14m-1.48.32c.05.07.1.14.14.21-.08,5.05-.6,10.37-1.54,15.85-.03-.01-.05-.02-.08-.04.89-5.51,1.39-10.89,1.48-16.03m-122.14.49c-.28.37-.56.73-.84,1.1-1.4,1-2.79,2.02-4.11,3.04-.77.43-1.51.86-2.24,1.3,2.28-1.87,4.68-3.68,7.18-5.44m7.26,0s-.01.03-.02.04c-.46.17-.92.34-1.37.51.02-.01.03-.03.05-.04.44-.17.88-.35,1.33-.51m40.92.9c-.12.06-.24.11-.36.17l-.62.14c-.1,0-.21,0-.31,0,.43-.1.86-.21,1.28-.31m117.27.39c.74,2.1,1.34,4.26,1.77,6.48-.31-1.52-.69-3.04-1.15-4.56-.19-.65-.4-1.29-.62-1.92m-22.02.63c1.78,2.45,3.32,5,4.59,7.64-.08-.07-.15-.14-.23-.21-1.19-2.35-2.6-4.66-4.17-6.85-.06-.19-.13-.38-.19-.57m-92.54.69c.97.03,1.93.06,2.87.09,10.72.42,21.25,1.61,31.32,3.55-.01.01-.03.03-.04.04-3.23-.6-6.63-1.14-10.1-1.62-8.61-1.19-16.51-1.87-24.06-2.06,0,0,.01,0,.02,0m-17.16.34c-.04.05-.09.11-.13.16-.99.09-1.97.18-2.95.29.1-.07.2-.15.3-.22.91-.08,1.84-.16,2.77-.22m-7.52.74c-.13.09-.25.19-.37.28l-.07.05c-3.1.46-6.16,1.04-9.09,1.71-3.01.7-5.73,1.44-8.27,2.25.1-.19.2-.38.3-.56,5.23-1.67,11.11-2.93,17.51-3.74m100.85,1.17c1.86,3.36,3.45,6.82,4.74,10.31,0,.14-.01.27-.02.41-1.28-3.59-2.87-7.13-4.75-10.57.01-.05.02-.1.03-.15m-84.84.52s-.01.04-.02.06c-4.85,2.61-9.46,5.48-13.77,8.57.04-.06.09-.12.13-.18,4.25-3.03,8.83-5.87,13.65-8.45m67.59.05c1,1.06,1.83,2.22,2.47,3.48-.65-1.19-1.48-2.3-2.47-3.31,0-.06,0-.11,0-.17m-78.21.18s-.01.02-.02.03c-2.56.87-5.05,1.8-7.45,2.78.04-.03.08-.07.12-.1,2.33-.94,4.79-1.84,7.35-2.71m56.64,1.28c.96.2,1.91.41,2.87.63-.96-.21-1.92-.41-2.89-.61,0,0,.01-.01.02-.02m53.12.1s.05.04.07.05c1.94,4.7,2.57,9.95,1.99,15.12.4-4.16.04-8.41-1.12-12.42-.27-.94-.59-1.86-.95-2.75m-98.46.58c-1.35,4.4-2.82,10.12-3.75,16.47.74-5.36,1.99-10.87,3.75-16.47m-38.61,1.41c-.05.17-.09.33-.14.5-4.39,1.71-8.16,3.68-11.49,6.02-.21.15-.43.3-.63.45.12-.21.25-.42.37-.62,3.44-2.46,7.43-4.59,11.89-6.35m-11.37.97c-.05.07-.09.14-.14.21-.86.82-1.69,1.63-2.48,2.43.75-.77,1.52-1.55,2.33-2.35.1-.1.2-.19.29-.29m22.98,2.1c-.08.07-.16.14-.24.21-2.92,1.48-5.72,3.09-8.33,4.76-.67.43-1.3.85-1.9,1.25,0-.04.02-.07.03-.11,3.17-2.18,6.67-4.22,10.44-6.11m95.24,1.16c.48.17.94.33,1.4.5,0,0,0,.02,0,.02-.47-.18-.93-.35-1.41-.52m4.21,1.55c1.31.51,2.59,1.03,3.81,1.56,0,.04-.01.08-.02.12-1.23-.55-2.5-1.09-3.78-1.61,0-.02,0-.05,0-.07m-147.46.15c.01.09.03.18.04.28.55,3.4,2.16,6.75,4.81,9.96-.07.1-.14.2-.21.31-2.69-3.35-4.25-6.89-4.65-10.54m146.19.84s.01,0,.02,0c.2,3.42-.56,7.02-2.07,10.38.13-.33.26-.66.38-1,1.2-3.41,1.76-6.57,1.67-9.4m6.07,2.61s.04.02.05.03c-.32,1.65-.69,3.33-1.09,5.02.32-1.42.61-2.84.88-4.25.05-.26.1-.53.15-.79m3.77.19c2.58,1.3,4.99,2.7,7.19,4.17,0,.03,0,.06-.01.09-1.38-.91-2.8-1.76-4.25-2.55-.97-.53-1.96-1.05-2.96-1.56.01-.05.02-.1.04-.15m-101.67.11c-.04.07-.09.13-.13.2-8.2,6.84-14.29,14.7-17.22,22.19-.04-.01-.08-.02-.12-.04,3.21-8.49,9.49-15.31,14.24-19.57,1.05-.94,2.13-1.87,3.23-2.78m-43.63.84c-.05.11-.11.22-.16.33-1.43,1.71-2.79,3.47-4.04,5.23h0c1.31-1.89,2.71-3.74,4.2-5.56m8.27.52c-.08.14-.16.29-.24.43-1.04,1.03-1.99,2.11-2.82,3.19-.86,1.13-1.96,2.63-2.86,4.27-.36.67.16,1.43.84,2.13,0,0,0,.02-.01.03-.44-.48-.87-.97-1.28-1.48,0,0,0-.05.04-.11,1.69-3.08,3.81-5.91,6.33-8.46m146.74.79c.23.83.44,1.67.64,2.5-.09-.07-.18-.13-.27-.2-.14-.59-.28-1.18-.43-1.76.02-.18.04-.36.06-.54m-132.42.52s-.01.05-.02.08c-3.44,2.77-5.99,5.56-7.78,8.53-.11.18-.23.37-.34.55-.82,1.31-1.84,2.95-.84,4.71.18.31.36.64.53.96-.21-.11-.41-.22-.61-.33-.57-1.34-.62-2.38-.17-3.36,1.83-3.98,4.85-7.63,9.23-11.15m-26.62,5.86c.5.51,1.04,1.03,1.59,1.54-.07.12-.14.25-.2.37-.57-.52-1.11-1.05-1.61-1.58.07-.11.15-.22.22-.33m159.16,1.85s0,.05.01.08c-.58.93-1.25,1.85-2.02,2.74.03-.15.07-.29.1-.44.52-.61,1.26-1.5,1.91-2.38m1.6,0c.42,3.02.62,6.04.58,8.99-.1.12-.19.24-.29.36.05-2.97-.11-5.99-.5-8.99.07-.12.14-.24.21-.37m-156.14,2.23c.5.38,1.01.77,1.54,1.15-.06.13-.11.25-.17.38-.43-.31-.85-.61-1.26-.92-.04-.2-.08-.41-.11-.61m4.61.55c2.16,1.81,4.61,3.48,7.31,4.98.05.1.1.2.15.3-2.93-1.55-5.41-3.24-7.53-5.13.02-.05.04-.1.07-.15m-.92,2.11c2.85,1.94,5.92,3.78,9.14,5.48,0,0,0,.01,0,.02-3.52-1.7-6.56-3.4-9.28-5.15.05-.11.1-.23.14-.34m145.93.51c-.04.15-.08.3-.12.45-3.03,2.63-6.93,5.04-11.88,7.37.04-.1.07-.2.11-.3,3.64-1.79,8.09-4.21,11.9-7.51m-150.09.47c.13.4.27.81.43,1.21,0,.02-.01.03-.02.05-.15-.42-.28-.84-.41-1.26m16.92,4.14c1.22.54,2.49,1.07,3.81,1.56v.03c-1.31-.47-2.56-.95-3.74-1.45-.02-.05-.04-.09-.06-.14m-14.98.43c1.63,3.02,3.88,5.69,6.73,7.96-.03.06-.06.12-.09.18-2.94-2.27-5.19-4.95-6.7-7.97l.06-.17m-25.1.81c-.37,6.63.13,13.34,1.48,19.87-.04-.19-.08-.38-.13-.57-1.36-6.31-1.8-12.78-1.35-19.29m23.32.16c-1.25,3.41-2.35,6.75-3.29,9.99v-.02c.92-3.28,2.03-6.62,3.29-9.97m118.22.2c-8.62,4.45-19.51,7-33.84,7.95-1.15.08-2.31.14-3.46.2,6.02-.3,11.85-.98,17.37-2.02,8.05-1.51,14.63-3.53,19.94-6.13m38.6,1.57c-.23,2.62-.66,5.22-1.26,7.74-.07.03-.14.07-.2.1.55-2.47.94-5,1.17-7.53.1-.1.2-.21.3-.31m-140.06.35s.07.03.1.04c1.07,2.47,2.14,4.43,3.35,6.15,0,.17,0,.34,0,.51-1.41-2.05-2.45-4.39-3.45-6.7m-22.8.17c-.07,2.41.28,4.72,1.03,6.93.1.28.2.56.31.83-.03.09-.05.19-.08.28-1.04-2.47-1.46-5.16-1.26-8.04m168.5.06c-.38,1.33-.77,2.65-1.19,3.96-.03.02-.06.04-.09.06.46-1.35.88-2.69,1.28-4.02m-29.87,1.68s-.03.07-.04.11c-1.44.58-2.82,1.11-3.88,1.5,1.33-.52,2.64-1.06,3.92-1.61m-96.17.56c2.72.56,5.66,1.08,8.99,1.61,4.74.75,9.46,1.33,14.01,1.71,0,.04.02.08.02.12-7.85-.61-15.59-1.76-23.03-3.44m112.38,1.97c-.31.2-.63.4-.95.6,0,0,0-.02.01-.02.32-.19.63-.38.94-.58m29.71,1.38c-.06.14-.12.28-.17.43.04-.12.08-.23.12-.35.02-.02.04-.05.05-.07m-116.75.15c4.01.29,7.98.43,11.82.43.18,0,.37,0,.55,0,0,0,0,0,0,0-.48,0-.95,0-1.43,0-3.64,0-7.31-.12-10.91-.34,0-.03-.01-.07-.02-.1m-51.33.29c2.76,1.87,6.04,3.47,9.79,4.77,0,0,0,.01,0,.02-3.87-1.31-7.11-2.84-9.87-4.64.02-.05.05-.1.07-.14m134,.63s-.04.08-.06.12c-3.32,1.71-6.98,3.18-10.93,4.38.03-.08.07-.16.1-.25,1-.31,2.01-.63,2.98-.97,2.85-.98,5.5-2.08,7.9-3.28m15.6,1.01c-2.63,7.46-5.95,14.6-9.87,21.26,3.27-5.82,6.24-12.22,9.05-19.47.22-.56.43-1.12.64-1.68.06-.04.12-.07.18-.11m-48.61,1.1c-7.95,2.09-16.33,3.74-25.01,4.91-.18-.01-.35-.03-.53-.04.39-.05.78-.11,1.17-.17,9.05-1.3,17.09-2.85,24.37-4.71m-88.86.09c0,.12,0,.25,0,.37,0,0,0,0,0,0,0-.12,0-.24,0-.37m25.86.33c4,.93,8.19,1.78,12.6,2.56.01.05.03.09.04.14-4.28-.77-8.5-1.67-12.65-2.7m104.95.52s-.02.07-.03.11c-3.18,1.6-6.62,3.12-10.26,4.52.05-.08.09-.15.14-.23,1.8-.71,3.59-1.45,5.32-2.21,1.33-.58,3.01-1.33,4.83-2.19m1.21.97c-.54,1.74-1.16,3.46-1.86,5.16.66-1.68,1.24-3.38,1.74-5.09.04-.02.08-.04.12-.06m-157.47.52c.4.62.83,1.22,1.31,1.8-.49-.55-.93-1.11-1.34-1.69,0-.04.02-.07.03-.11m25.47.35s.09.03.14.04h0s-.09-.02-.14-.03h0m40.92.62c.69.11,1.37.23,2.05.34,1.84.29,3.67.57,5.44.82l-.04.1c-2.48-.33-4.97-.7-7.41-1.11-.02-.05-.03-.1-.05-.14m109.61.04c-.19.42-.39.83-.6,1.24-.52.57-1.05,1.14-1.59,1.71.11-.32.22-.65.33-.97.63-.65,1.25-1.32,1.86-1.98m-44.94.16c-.03.06-.06.13-.09.19-3.38.77-7.01,1.39-10.84,1.83,3.77-.5,7.43-1.18,10.92-2.03m-97.92,1.03c1.23.24,2.5.45,3.86.66,7.27,1.12,15.03,1.68,23.07,1.68,1.72,0,3.49-.03,5.25-.08.01.03.02.06.03.08-2.21.08-4.38.12-6.47.12-9.46,0-17.87-.78-25.7-2.39-.01-.03-.03-.05-.04-.08m43.28.28h.07s-.05.01-.08.02c0,0,0-.01,0-.02m-44.09.98s0,0,0,0c2.52,4.27,5.64,8.29,9.29,11.97-.03,0-.07,0-.1-.01-2.66-2.75-5.03-5.63-7.04-8.57-.76-1.11-1.48-2.24-2.15-3.39m43.77.4c.08,0,.15.02.23.03-.17.01-.33.03-.5.04,0-.02.01-.03.02-.05l.25-.02m-2.94.22s-.01.03-.02.05c-1.82.13-3.62.24-5.36.32-.01-.02-.02-.05-.03-.07,1.78-.07,3.59-.18,5.41-.3m69.07.29c-.04.07-.09.13-.13.2-2.88,1.01-5.87,1.97-9.07,2.89,0-.02.02-.04.03-.06,3.14-.94,6.22-1.96,9.18-3.03m28.22,2.25c-.15.38-.31.76-.47,1.13-1.15,1.07-2.35,2.12-3.59,3.16.21-.42.42-.84.63-1.25,1.18-1,2.32-2.01,3.43-3.04m-139.9,4.08c.66,1.09,1.42,2.17,2.25,3.21.06.12.12.23.18.35,0,0-.01,0-.02,0-.48-.61-.93-1.24-1.36-1.86-.37-.54-.73-1.1-1.05-1.65,0-.02,0-.03,0-.05m80.55,1.99c-11.36,2.24-22.74,3.75-33.83,4.49-.02-.02-.05-.04-.07-.06,5.03-.36,10.31-.89,15.7-1.58,6.49-.83,12.47-1.77,18.19-2.85m51.02.87c-.25.43-.5.86-.76,1.29-1.94,1.43-3.96,2.82-6.06,4.17.4-.48.79-.97,1.19-1.45,1.93-1.29,3.82-2.63,5.63-4m-27.66,1.81c-2.68,2.44-5.56,4.5-8.61,6.17.07-.12.14-.24.2-.36,3.03-1.65,5.87-3.61,8.41-5.81m-60.37,1.95s.03.03.05.04c-.64.04-1.29.07-1.93.1,0-.01,0-.03,0-.04.63-.03,1.25-.07,1.88-.1m-4.24.21s0,.02,0,.03c-2.32.09-4.64.14-6.94.16,2.28-.02,4.6-.08,6.95-.18m-25.34.8c.07,0,.13.01.2.02,4.17,3.8,8.7,7.3,13.46,10.44-5.08-3.23-9.65-6.72-13.66-10.45m-3.9,3.41c1.12.93,2.3,1.83,3.53,2.72-1.13-.77-2.24-1.58-3.32-2.43-.07-.09-.14-.19-.21-.28m108.08.65c-.19.3-.38.59-.57.89-1.29.71-2.61,1.41-3.95,2.09.26-.3.51-.6.77-.89,1.26-.67,2.51-1.37,3.75-2.08m-30.43,2.2c-.04.07-.09.14-.13.21-1.86.59-3.76,1.06-5.69,1.42,1.96-.42,3.91-.96,5.83-1.63m4.25.01c-2.36,3.91-4.7,7.26-7.11,10.21-.04.01-.08.02-.12.03,1.81-2.21,3.58-4.63,5.37-7.35.62-.95,1.25-1.92,1.86-2.89h0m31.47,2.8c-.6.72-1.2,1.42-1.82,2.11-.42.47-.85.94-1.29,1.41-.09.06-.17.12-.26.18,1.15-1.19,2.28-2.43,3.37-3.7m-15.33.23c-.22.23-.45.45-.67.68-6.86,3.06-13.93,5.57-21.07,7.47,3.02-.85,6.11-1.84,9.18-2.94,4.19-1.5,8.4-3.24,12.55-5.21m-141.29,5.75c2.61,2.15,5.35,4.19,8.16,6.09.02.07.04.14.07.21-2.79-1.94-5.55-4.05-8.22-6.28,0,0,0-.01,0-.02m115.47,1.37c-.22.3-.43.59-.65.89,0,0-.01,0-.02,0,.22-.3.45-.59.67-.89m-.47,3.52c-.71.74-1.42,1.46-2.15,2.14.05-.06.1-.12.14-.18.64-.62,1.27-1.27,1.9-1.93.03,0,.07-.02.1-.02m-2.6.56c-.13.17-.26.33-.39.5-.08.08-.16.15-.24.23.19-.24.38-.48.57-.72.02,0,.04,0,.06-.01m30.48,1.35c-1.65,1.17-3.34,2.26-5.08,3.28,1.64-.99,3.25-2.04,4.81-3.16.09-.04.18-.08.27-.12m-131.49,1.39c11.13,6.98,23.58,12.07,36.88,15.13-6.47-1.4-12.68-3.26-18.6-5.56-6.27-2.44-12.38-5.56-18.17-9.28-.03-.1-.07-.19-.1-.29m77.09.21c.88.26,1.76.51,2.64.74,0,0-.01.01-.02.02-.87-.24-1.75-.49-2.62-.76m5.44,1.44c3.68.85,7.37,1.47,11,1.83-.02.01-.04.02-.06.04-3.65-.36-7.34-.97-10.98-1.83.01-.01.02-.02.04-.03m23.78,2.05h0c-1.73.12-3.5.18-5.26.18-1.16,0-2.34-.03-3.51-.08.01,0,.03-.02.04-.03,1.25.06,2.5.09,3.74.09,1.67,0,3.34-.06,4.99-.17m-13.26,2.92c-.47.5-.93,1-1.4,1.48.46-.48.91-.97,1.36-1.46.02,0,.03-.02.05-.03m-94.75,6.82c4.15,3.6,8.82,6.65,13.95,9.13.2.2.41.39.61.59-5.32-2.57-10.2-5.83-14.56-9.72m64.83,6.18s.05,0,.08,0c-5.48.81-10.91,1.22-16.21,1.22-2.27,0-4.52-.08-6.75-.22,2.16.14,4.36.2,6.59.2,5.32,0,10.81-.4,16.3-1.2m22.83,3.85c-6.13,2.22-12.38,3.97-18.56,5.17.17-.09.33-.17.5-.26,4.26-.79,8.51-1.84,12.65-3.12,1.82-.56,3.63-1.16,5.41-1.79m-66.98,1.93c8.86,3.21,18.67,4.83,29.23,4.83,3.85,0,7.77-.22,11.71-.66-.32.13-.64.26-.96.38-3.88.45-7.76.67-11.52.67-9.75,0-18.95-1.5-27.35-4.46-.37-.25-.75-.5-1.12-.76M223.99,32c-14.32,0-28.4,8.93-39.14,17.34-.03.03-.07.05-.1.08,1.03-.3,2.06-.6,3.1-.88,10.46-8,23.27-15.18,36.25-15.18,3.56,0,7.13.54,10.67,1.75,7.19,2.47,12.68,7.79,16.95,13.97.9.37,1.79.75,2.66,1.15-5.45-8.41-13.55-15.17-22.92-17.38-2.48-.59-4.97-.85-7.45-.85h0Zm-2.51,11.65c-11.32,0-22.76,1.91-33.64,4.89-.84.64-1.66,1.28-2.46,1.93,10.13-2.9,20.52-4.73,30.96-5.27,1.67-.09,3.35-.13,5.03-.13,10.93,0,21.95,1.86,31.74,6.14-.45-.72-.92-1.43-1.4-2.13-.92-.37-1.86-.73-2.81-1.06-8.8-3.07-18.07-4.37-27.41-4.37h0Zm-36.74,5.77c-2.89.85-5.74,1.78-8.53,2.76-25.65,9.01-49.75,24.49-67.36,45.33-.8.94-1.58,1.9-2.34,2.87,1.1-.73,2.22-1.45,3.35-2.15,8.35-9.88,18.37-18.45,28.81-25.6,13.24-9.07,28.07-16.4,43.6-21.22.82-.67,1.64-1.33,2.47-1.98h0Zm69.62.82c.46.71.91,1.44,1.33,2.17,6.65,3.28,12.65,7.75,17.55,13.59,1.22.97,2.39,2,3.53,3.07-5.53-7.99-13.05-14.49-22.41-18.83h0Zm-68.98.23c-1.04.3-2.07.61-3.11.93-8.45,6.91-16.24,14.78-23.04,23.39,4.17-5.16,8.91-9.87,14.2-13.71,2.69-2.61,5.46-5.14,8.31-7.58,1.17-1,2.38-2.01,3.63-3.02h0Zm17.78.66c-2.07,0-4.12.12-6.17.37-8.78,1.05-16.63,4.57-23.55,9.58-3.46,3.37-6.78,6.88-9.91,10.53,1.45-1.57,2.96-3.08,4.52-4.54,10.33-9.59,22.79-14.37,35.57-14.37,6.67,0,13.43,1.3,20.01,3.91.65-.23,1.31-.44,1.97-.64-7.01-3.16-14.75-4.83-22.44-4.83h0Zm49.95.08c1.11,1.77,2.13,3.59,3.07,5.41.67.23,1.33.47,1.99.72-.72-1.68-1.55-3.33-2.47-4.93-.85-.42-1.72-.82-2.59-1.2h0Zm-13.33,2.64c-.73,0-1.46.02-2.19.05-4.16.19-8.15.91-11.98,2.06.57.26,1.13.52,1.69.8,1.56-.42,3.14-.78,4.75-1.05,2.63-.45,5.26-.67,7.87-.67,5.85,0,11.6,1.1,17.02,3.09-.25-.5-.5-1.01-.76-1.51-5.28-1.79-10.82-2.77-16.4-2.77h0Zm-16.15,2.75c-9.38,3.25-17.69,9.13-24.76,16.37.46.07.91.14,1.37.22,7.15-7.18,15.56-12.86,25.13-15.87-.58-.25-1.16-.49-1.74-.72h0Zm3.66.16c-.65.18-1.29.36-1.92.56,1.79.77,3.56,1.64,5.31,2.61,3.71,2.05,6.88,4.52,9.55,7.32.67.22,1.34.46,2,.74-4.17-4.66-9.29-8.44-14.95-11.23h0Zm30.88.58c.22.5.42,1.01.62,1.52,6.87,2.83,13.15,7.13,18.35,12.46-1.2-1.88-2.5-3.65-3.89-5.31-4.55-3.64-9.66-6.58-15.08-8.67h0Zm-1.23.79c.06.12.11.23.17.35,3.2,6.6,3.68,13.97,3.68,21.22,0,.32,0,.65,0,.97.44.1.87.2,1.31.3.02-4.07-.2-8.13-.71-12.13-.42-3.33-1.31-6.7-2.59-9.98-.61-.25-1.23-.49-1.85-.72h0Zm-24.95,7.86c-8.11,0-16.51,3.27-24.15,7.73.56.03,1.12.06,1.68.09,4.56-2.53,9.35-4.54,14.38-5.75,2.58-.62,5.04-.92,7.36-.92,4.09,0,7.78.91,11.09,2.51-.67-.82-1.37-1.63-2.11-2.4-2.69-.87-5.45-1.26-8.25-1.26h0Zm10.25,2c.84.93,1.63,1.9,2.39,2.91,3.45,2.12,6.43,5.04,8.95,8.46.73.11,1.45.22,2.18.34-1.45-2.11-3.09-4.09-4.93-5.9-2.71-2.66-5.59-4.56-8.59-5.81h0Zm34.54,1.08c1.27,1.83,2.44,3.75,3.49,5.73,5.36,6.52,9.21,14.26,10.85,22.63.52.64,1.02,1.3,1.49,1.98-.12-.91-.27-1.81-.43-2.72-1.92-10.65-7.59-20.23-15.41-27.62h0Zm-34.43.58c2.24,2.77,4.08,5.8,5.57,9.02.47.05.95.1,1.42.15-1.29-2.84-2.88-5.48-4.71-7.92-.74-.45-1.5-.87-2.28-1.25h0Zm34.8,1.66c.3.47.59.94.87,1.42,3.45,5.8,5.7,12.15,7.08,18.71.5.4,1,.82,1.49,1.25-1.27-6.39-3.38-12.41-6.31-17.89-.99-1.21-2.04-2.37-3.13-3.49h0Zm-113.61.3c-2.17,2.35-4.21,4.83-6.13,7.41.07-.02.14-.03.22-.05,1.89-2.52,3.86-4.97,5.91-7.36h0Zm28.13.82c-6.28,0-12.37,1.21-18.19,3.36,2.68-.43,5.37-.8,8.07-1.11,3.57-.79,7.22-1.21,10.93-1.21,1.07,0,2.14.04,3.22.11.18.01.35.03.53.04.69-.02,1.38-.03,2.07-.05.19-.2.39-.4.58-.6-2.43-.36-4.83-.53-7.2-.53h0Zm8.57.76c-.12.12-.24.24-.36.36.27,0,.54,0,.8,0,.47,0,.95,0,1.43,0-.62-.14-1.25-.26-1.87-.37h0Zm-.36.36c-.53,0-1.06,0-1.59.02-.08.08-.16.16-.23.24.46.06.91.13,1.37.21.15-.16.3-.31.46-.47h0Zm2.23,0c.9.2,1.81.42,2.73.67.34.09.37.42.24.67.26,0,.52.02.77.02.66-.41,1.32-.81,1.99-1.2-1.91-.09-3.82-.14-5.73-.16h0Zm-5.89.06c-4.9.14-9.8.5-14.68,1.06-2.71.6-5.37,1.4-7.98,2.38,7.76-1.24,15.63-2.01,23.5-2.19.33-.36.66-.71.99-1.06-.61-.08-1.22-.15-1.84-.2h0Zm13.3.2c-.68.38-1.36.77-2.03,1.17,5.92.27,11.81.89,17.64,1.93,1.84.33,3.68.7,5.52,1.13,1.18-.03,2.35-.04,3.53-.04.44,0,.88,0,1.31,0-5.28-1.5-10.68-2.53-15.97-3.24-3.32-.44-6.65-.76-10-.96h0Zm-10.09.21c-.26.27-.53.55-.79.82.68,0,1.37-.01,2.05-.01.89,0,1.77,0,2.66.02-1.3-.33-2.6-.61-3.92-.83h0Zm-40.18.77c-1.23,1.52-2.4,3.07-3.53,4.65,0,0,0,0,.01,0,1.14-1.57,2.31-3.12,3.52-4.65h0Zm39.4.06c-.52,0-1.05.02-1.57.03-.58.63-1.15,1.27-1.71,1.92.55-.06,1.1-.12,1.65-.17.53-.6,1.07-1.19,1.62-1.78h0Zm4.71,0c.39.1.79.2,1.18.31.03,0,.07,0,.1,0,.2,0,.36-.12.45-.28-.57-.02-1.15-.03-1.72-.04h0Zm2.5.06c-.77.47-1.52.96-2.27,1.45.54,0,1.07.02,1.61.04.76-.49,1.52-.97,2.3-1.43-.55-.02-1.09-.05-1.64-.06h0Zm-32.37.87c-5.27.84-10.5,1.9-15.66,3.13-.07.02-.13.03-.19.05-.4.53-.79,1.07-1.18,1.6,2.21-.55,4.42-1.06,6.63-1.54,1.72-.37,3.45-.72,5.18-1.05,1.72-.81,3.46-1.55,5.22-2.2h0Zm29.27.58c-1.91,0-3.82.09-5.73.26-.37.41-.73.83-1.09,1.25.93-.1,1.85-.19,2.78-.25,1.07-.07,2.14-.12,3.2-.13.55-.38,1.11-.76,1.67-1.13-.28,0-.56,0-.83,0h0Zm2.45.05c-.55.36-1.1.72-1.65,1.09,3.93.07,7.78.57,11.54,1.44.31.04.63.08.95.12,1.14-.13,2.28-.25,3.41-.35-4.66-1.36-9.44-2.11-14.25-2.29h0Zm-9.83.38c-3.56.41-7.1,1.1-10.58,2.05,2.92-.3,5.85-.53,8.77-.66.24-.03.48-.07.71-.1.36-.43.73-.86,1.1-1.29h0Zm-21.8.27c-1.78.28-3.55.59-5.32.93-3.41,1.62-6.73,3.54-9.93,5.71,1.18-.3,2.37-.6,3.55-.88,3.73-2.27,7.64-4.23,11.69-5.75h0Zm28.94.43c-.2,0-.4,0-.6,0-.26.18-.52.36-.78.54.53,0,1.06.01,1.6.02.27-.19.54-.38.82-.56-.34,0-.69,0-1.04,0h0Zm-6.58.38c-.55.06-1.11.13-1.66.2-.02.02-.04.05-.06.07.51-.02,1.02-.04,1.53-.05.06-.07.13-.15.19-.22h0Zm39.56.13c1.77.5,3.53,1.06,5.27,1.67,2.6.08,5.21.24,7.82.48-.21-.5-.43-1-.66-1.49-4.1-.41-8.26-.62-12.43-.66h0Zm-35.63.03c-1.37,0-2.74.02-4.12.06-.34.4-.67.8-1,1.2,1.29-.04,2.58-.06,3.87-.06.28,0,.57,0,.85,0,.55-.4,1.11-.8,1.67-1.2-.43,0-.85,0-1.27,0h0Zm30.79,0c-3.73.09-7.47.31-11.21.66.65.19,1.31.39,1.96.61,3.23,0,6.47.13,9.69.39,1.78-.06,3.58-.1,5.4-.1h.01c-1.94-.59-3.89-1.11-5.85-1.57h0Zm-27.92.02c-.56.39-1.12.79-1.67,1.19,2.14.04,4.29.14,6.46.29.91.06,1.82.14,2.74.23.18-.02.37-.03.56-.04,1.64-.24,3.28-.45,4.92-.64-.21-.05-.43-.1-.64-.15-4.1-.5-8.22-.79-12.35-.87h0Zm-8.52.09c-.22,0-.44.02-.65.03-2.81.41-5.59.99-8.32,1.74,2.65-.27,5.32-.46,8-.57.32-.4.65-.8.98-1.2h0Zm55.14.67c.22.49.44.98.64,1.48,1.57.17,3.12.37,4.68.61-.35-.53-.71-1.04-1.08-1.55-.41-.06-.83-.12-1.24-.17-1-.13-2-.26-3-.37h0Zm-64.56.02c-7.68.8-15.34,2.17-22.9,3.97-1.1.67-2.18,1.37-3.25,2.09,6.76-1.79,13.54-3.23,20.37-4.22,1.9-.69,3.83-1.31,5.78-1.84h0Zm-27.37.18c-.56.14-1.12.27-1.68.41-.17.24-.34.48-.52.72-.21.3-.41.59-.61.89.55-.14,1.1-.28,1.65-.42.38-.54.77-1.07,1.16-1.6h0Zm58.62.04c-.1.01-.2.02-.3.03.39.09.77.19,1.16.3.41-.01.83-.03,1.25-.04-.7-.1-1.41-.2-2.11-.29h0Zm-16.57.18c-1.07.78-2.11,1.57-3.12,2.37.69-.12,1.38-.24,2.08-.36.87-.68,1.75-1.34,2.64-1.99-.53-.01-1.06-.02-1.59-.02h0Zm-4.72.06c-.5.02-1.01.03-1.51.05-.9,1.12-1.77,2.25-2.61,3.4.56-.12,1.13-.25,1.7-.36.79-1.05,1.59-2.08,2.42-3.09h0Zm26.57.02c-1.06,0-2.11.01-3.17.04,1.64.24,3.27.52,4.9.84.22-.02.45-.04.67-.06-.77-.29-1.54-.57-2.32-.82-.03,0-.06,0-.09,0h0Zm-4.42.08c-2.04.07-4.06.18-6.08.34-.14.02-.27.04-.41.06,2.26.22,4.54.5,6.83.86.44,0,.87-.01,1.31-.02.6-.07,1.21-.13,1.83-.19-1.15-.39-2.31-.74-3.48-1.05h0Zm-61.17.04c-16.01,4.02-31.78,10.06-45.84,18.79-.88,1.04-1.74,2.1-2.58,3.17,14.27-9.55,30.64-16.04,47.29-20.35.21-.3.42-.6.63-.89.17-.24.34-.48.5-.71h0Zm80.78.18c1.31.4,2.61.83,3.9,1.29,2.45.43,4.87.95,7.25,1.58-2.24-1.04-4.54-1.97-6.89-2.8-1.43-.04-2.85-.06-4.26-.06h0Zm19.26.09c.35.51.69,1.03,1.02,1.55,1.34.24,2.68.5,4,.8,0-.46.01-.92.02-1.38-1.68-.37-3.36-.69-5.04-.97h0Zm-24.67.01c-2.51.09-4.98.24-7.37.43.34.13.68.26,1.01.4.42.09.84.18,1.26.27,7.74.43,15.41,1.63,22.9,3.71-2.74-1.38-5.58-2.58-8.49-3.62-3.07-.54-6.18-.93-9.31-1.19h0Zm-20.83.07c-4.02.33-7.98.83-11.83,1.47-.41.32-.83.65-1.23.98,4.38-.97,8.79-1.78,13.22-2.43-.05,0-.1,0-.15-.01h0Zm-25.02.14c-2.08.21-4.16.46-6.23.76-8.53,3.11-16.57,7.79-23.55,13.71,1.5-.68,3-1.33,4.51-1.96,7.52-5.73,16.15-10.03,25.27-12.52h0Zm63.34.24c.4.94.77,1.91,1.11,2.88.49.14.98.29,1.47.44-.22-.65-.45-1.3-.69-1.94-.15-.42-.31-.82-.48-1.23-.47-.05-.94-.1-1.4-.14h0Zm-25.54.04c-.9.08-1.79.16-2.67.25.19.07.38.13.58.2,1.45.02,2.91.06,4.36.13-.19-.08-.38-.16-.58-.24-.56-.12-1.12-.23-1.68-.34h0Zm-66.6.37c-.06.02-.13.03-.19.05-1.03,1.45-2.02,2.93-2.98,4.44.02,0,.03,0,.05-.02,1.01-1.51,2.05-3,3.12-4.47h0Zm62.99.06c-.3,0-.59,0-.89,0-.27.03-.55.06-.82.09,2.24.36,4.5.78,6.74,1.27-1.16-.49-2.33-.94-3.52-1.35-.5,0-1.01,0-1.51,0h0Zm-2.2.02c-6.88.12-13.77.82-20.6,2.02-.85.69-1.69,1.39-2.52,2.11,7.68-1.76,15.46-3.09,23.26-4.01.12-.01.23-.03.35-.04-.16-.03-.32-.05-.49-.08h0Zm8.07.12c2.03.84,4.03,1.82,5.98,2.92,7.22,2.04,14.26,4.79,20.75,8.31-.11-.63-.24-1.25-.37-1.87-1.39-.73-2.8-1.42-4.21-2.08-7.02-3.25-14.2-5.63-21.47-7.25-.23-.01-.45-.02-.68-.04h0Zm29.35.13c1.02,1.53,1.96,3.15,2.81,4.84.75.31,1.49.63,2.23.96-.86-1.89-1.83-3.71-2.93-5.45-.7-.12-1.41-.24-2.12-.35h0Zm7.44.06c0,.46,0,.93-.01,1.39,8.84,2.14,17.02,5.7,23.45,11.3-.13-.74-.28-1.48-.43-2.21-6.6-5.29-14.71-8.51-23-10.47h0Zm-107.5.07s-.01,0-.02,0c-1.05,1.49-2.06,2.99-3.05,4.51.06-.02.11-.03.17-.05.92-1.5,1.89-3,2.9-4.47h0Zm41.74.57c-1.36.24-2.7.5-4.02.78-.3.4-.59.8-.88,1.2,1.16-.29,2.32-.57,3.49-.85.47-.38.94-.75,1.42-1.13h0Zm28.12.39c7.43,3.14,14.25,7.8,20.09,13.65.43-.21.86-.42,1.29-.62-2.74-2.75-5.66-5.27-8.72-7.53-1.9-1.4-3.85-2.67-5.84-3.79-2.26-.64-4.54-1.21-6.82-1.7h0Zm36.31.06c-.03,1.69-.09,3.38-.19,5.07.43.2.86.41,1.28.62.11-1.79.19-3.59.22-5.38-.44-.11-.87-.21-1.31-.3h0Zm-63.59.18c-.76.17-1.51.34-2.26.51-.13.1-.26.21-.38.31.7-.13,1.4-.26,2.1-.38.18-.15.36-.29.55-.44h0Zm50.47.25c.75.35,1.48.71,2.22,1.08-.06-.17-.12-.35-.18-.52-.68-.2-1.35-.38-2.04-.56h0Zm-57.03.28c-.14.03-.28.06-.42.09-9.88,2.21-20.18,5.39-30.23,9.59-1.3.99-2.57,2.03-3.8,3.1-.14.12-.28.25-.42.37,10.51-5.01,21.71-9.02,33.18-11.67.26-.07.52-.14.78-.2.3-.43.61-.85.92-1.28h0Zm3.92.3c-1.06.2-2.12.42-3.18.64-.5.69-.99,1.39-1.48,2.1.66-.17,1.32-.33,1.98-.49.08-.07.15-.13.23-.19.79-.68,1.61-1.37,2.46-2.06h0Zm56.61.42c.1.31.2.61.3.92,1.2.65,2.37,1.34,3.51,2.07,1.19.44,2.36.91,3.53,1.41-.32-.72-.67-1.43-1.02-2.13-2.06-.85-4.17-1.6-6.32-2.27h0Zm-1.29.08c.15.45.3.91.44,1.37.48.14.96.29,1.44.44-.1-.32-.2-.65-.3-.97-.52-.29-1.05-.57-1.59-.84h0Zm-58.43.03c-.58.15-1.16.3-1.74.45,0,0-.02.02-.02.03.56-.13,1.12-.25,1.68-.37.03-.04.05-.07.08-.11h0Zm-33.11.11c-1.67.43-3.34.88-5,1.35-.28.43-.57.85-.85,1.28-.07.12-.15.24-.22.36,1.04-.31,2.07-.6,3.11-.89.98-.72,1.96-1.42,2.96-2.1h0Zm31.35.37c-.25.06-.5.11-.75.17-11.55,3.07-22.74,7.13-33.17,11.87-.16.07-.31.14-.47.21-1.19,1.07-2.36,2.19-3.5,3.34,4.82-2.45,9.81-4.6,14.92-6.56,7.01-2.69,14.19-4.99,21.48-6.88.49-.73.98-1.45,1.49-2.16h0Zm59.22.45c.52.26,1.03.53,1.55.81-.04-.13-.08-.27-.12-.4-.09-.03-.18-.05-.26-.08-.39-.11-.77-.22-1.16-.33h0Zm-54.77.26c-.76.17-1.51.35-2.26.53-1.33,1.15-2.66,2.32-3.97,3.51-.82,1.3-1.61,2.61-2.37,3.93,2.73-2.7,5.6-5.4,8.61-7.97h0Zm-35.48.13c-1.09.29-2.18.59-3.27.89-1.64,1.21-3.25,2.49-4.83,3.82-.54.96-1.07,1.92-1.58,2.89,3.03-2.73,6.27-5.29,9.68-7.6h0Zm-5.37.16c-.52.15-1.05.3-1.57.45-.34.55-.66,1.09-.99,1.64.51-.15,1.02-.31,1.53-.46.08-.12.16-.24.24-.36.26-.42.53-.85.79-1.27h0Zm97.17.27c.48,1.58.89,3.19,1.23,4.82.5.26,1.01.53,1.51.81-.33-1.6-.72-3.18-1.17-4.76-.52-.3-1.04-.59-1.57-.87h0Zm1.32.04c.08.28.16.55.24.83,2.28,1.31,4.46,2.76,6.52,4.36.34-.08.67-.15,1.01-.21-.12-.31-.25-.62-.38-.93-1.35-1.05-2.75-2.03-4.19-2.94-1.06-.39-2.13-.76-3.21-1.1h0Zm-100.23.19c-3.76,1.09-7.49,2.28-11.17,3.55-11.64,3.99-23.86,8.9-33.2,17.16-4.89,4.31-8.77,10.16-8.17,16.91.4,4.49,2.43,8.46,5.41,11.95.32-.49.65-.98.98-1.47-2.48-2.91-4.38-6.24-4.99-10.02-1.23-7.72,4.6-14.13,10.21-18.5,11.32-8.81,25.89-13.66,39.42-17.78.15-.05.3-.09.45-.14.35-.56.7-1.11,1.06-1.66h0Zm38.35.24c-.56.14-1.13.29-1.69.43-1.21,1.81-2.36,3.64-3.44,5.5,1.04-.98,2.09-1.95,3.14-2.91.65-1.02,1.31-2.03,1.99-3.02h0Zm-37.62.89s-.01,0-.02,0c-.67,1.04-1.33,2.09-1.97,3.15.09-.07.18-.15.26-.22.56-.99,1.13-1.96,1.72-2.93h0Zm107.45.02c.28.61.55,1.23.8,1.85.03-.48.06-.96.09-1.44-.29-.14-.59-.28-.89-.41h0Zm-108.99.44c-.08.02-.16.05-.24.07-1.07,1.7-2.09,3.42-3.08,5.16.26-.23.52-.47.77-.7.44-.82.89-1.64,1.34-2.45.39-.7.79-1.39,1.21-2.09h0Zm111.16.59c-.03.55-.07,1.1-.11,1.66.29.15.59.3.88.45.91-.11,1.82-.19,2.72-.24-1.14-.66-2.3-1.28-3.49-1.87h0Zm-3.38.14c.23.51.45,1.02.66,1.53.34.27.68.53,1.02.81.07-.01.15-.03.22-.04.04-.47.07-.93.1-1.4-.66-.31-1.33-.61-2-.9h0Zm-42.63.6c-.43,0-.87,0-1.3.02-10.78.32-21.46,3.76-31.47,8.7-.19.36-.37.73-.56,1.09.37-.04.74-.08,1.1-.12,9.41-4.56,19.36-7.74,29.47-8.48.95-.07,1.92-.11,2.88-.11,6.63,0,13.37,1.73,18,6.7.47-.02.94-.03,1.41-.04-.46-.56-.95-1.1-1.48-1.62-4.77-4.66-11.57-6.14-18.05-6.14h0Zm44.65.08c0,.07,0,.15-.01.22.04.02.09.04.13.06-.04-.1-.08-.19-.12-.28h0Zm.12.28c.16.4.32.81.48,1.22.21-.03.41-.07.62-.1.02-.19.03-.38.04-.57-.38-.19-.76-.37-1.14-.55h0Zm6.37.72c-.54,0-1.09.01-1.63.04.58.34,1.16.68,1.73,1.04,7.59.31,14.38,3.57,19.37,9.77-.08-.8-.17-1.61-.27-2.41-5.33-6.07-12.05-8.44-19.21-8.44h0Zm-116.72.28c-.71.6-1.41,1.22-2.11,1.84-.53,1-1.05,2-1.56,3.01.6-.58,1.21-1.15,1.84-1.72.6-1.05,1.21-2.1,1.83-3.13h0Zm112.36,0c-.31.04-.61.08-.92.12-.03.32-.05.63-.08.95.86-.12,1.71-.2,2.55-.25-.51-.28-1.03-.56-1.54-.83h0Zm-1.54.22c-.24.04-.47.08-.71.12,0,.07-.01.14-.02.21.24.2.48.4.72.6.11-.02.22-.03.33-.05-.11-.3-.21-.59-.32-.88h0Zm-.93.16c-.21.04-.43.08-.64.12.11.28.22.57.33.86.15-.03.3-.06.45-.08.02-.24.04-.49.06-.73-.07-.06-.14-.11-.2-.17h0Zm-1.65.34c-1.37.3-2.73.67-4.1,1.1.37.21.73.42,1.09.63.67-.2,1.34-.39,2.02-.56.64-.16,1.27-.31,1.9-.44-.3-.25-.61-.49-.92-.73h0Zm7.38.06c-.57,0-1.14.02-1.72.05,7.72,4.26,14.49,10.12,19.3,17.7,1.31,2.06,2.43,4.21,3.38,6.42.02-.49.03-.97.04-1.46,0-.37.02-.74.02-1.11-2.23-4.65-5.22-9.02-9.03-12.93-3.27-3.36-6.91-6.23-10.81-8.65-.39-.02-.79-.02-1.19-.02h0Zm-4.26.29c-.07,0-.14.02-.21.03.06.16.11.32.17.48.02-.17.03-.34.04-.51h0Zm-8.46.04c.07.34.14.69.21,1.04.35-.12.69-.23,1.04-.34-.41-.24-.83-.47-1.25-.7h0Zm7.92.04c-.26.04-.52.08-.77.13-.02.28-.05.56-.07.84.4.34.8.69,1.19,1.04.05-.53.1-1.05.15-1.58-.16-.14-.33-.29-.5-.43h0Zm-1.23.21c-.14.03-.28.05-.43.08.22.18.44.36.66.55-.08-.21-.15-.42-.23-.63h0Zm1.73.22s0,0,0,0c0,0,0,0,0,0,0,0,0,0,0,0h0Zm0,0c.28.81.55,1.63.8,2.46,2.58,2.46,4.9,5.22,6.88,8.3.25.39.49.77.72,1.16,1.02,1.02,2,2.07,2.93,3.15-1.85-4.04-4.33-7.85-7.52-11.34-1.21-1.32-2.48-2.56-3.81-3.73h0Zm-76.85.31c-2.45,2.32-4.86,4.7-7.22,7.16.74-.1,1.47-.19,2.21-.28.92-.95,1.84-1.9,2.76-2.83.71-1.36,1.46-2.71,2.25-4.05h0Zm75.35.1c.04.12.09.24.13.36,0-.08.01-.15.02-.23-.05-.04-.1-.08-.15-.13h0Zm-6.72.16c-.28.09-.57.19-.85.29.34.19.68.38,1.01.57-.05-.29-.1-.57-.16-.86h0Zm-1.34.02c.03.14.05.28.07.42.14-.05.28-.1.42-.15-.16-.09-.33-.18-.49-.27h0Zm8.19.18c-.09.97-.18,1.94-.29,2.91.39.27.78.54,1.17.81.03-.25.06-.5.09-.75-.3-1-.63-1.99-.98-2.97h0Zm-4.71.1c-.64.19-1.27.39-1.9.6,2.11,1.21,4.16,2.5,6.13,3.87.07-.56.13-1.11.19-1.67-1.44-.98-2.92-1.92-4.42-2.81h0Zm-108.13.1c-4.45,4.07-8.59,8.53-12.39,13.16,1.07-.7,2.15-1.38,3.24-2.05,2.35-2.69,4.79-5.3,7.33-7.8.17-.33.35-.65.52-.98.42-.78.85-1.56,1.29-2.33h0Zm104.72.04c-2.11.75-4.21,1.63-6.26,2.59.24.24.47.48.71.72,1.87-.88,3.77-1.68,5.71-2.38-.05-.31-.1-.62-.16-.94h0Zm-103.16.08c-.17.15-.34.31-.51.47-1.23,2.17-2.39,4.39-3.49,6.64.24-.13.48-.26.72-.39,1.03-2.27,2.12-4.52,3.29-6.72h0Zm137.64.18c.15.77.29,1.54.42,2.32,1.68,1.61,3.22,3.39,4.6,5.32-.02-.13-.04-.27-.06-.41-.12-.84-.26-1.67-.42-2.5-.72-.89-1.48-1.75-2.28-2.58-.73-.75-1.48-1.47-2.26-2.15h0Zm-101.08.06c-.49.48-.97.96-1.45,1.44-.52.53-1.05,1.05-1.57,1.59-.11.22-.23.43-.34.65-.29.55-.57,1.11-.85,1.67.59-.3,1.19-.61,1.79-.9.77-1.5,1.58-2.98,2.42-4.45h0Zm68.03.1s0,.05.01.07c.02,0,.05-.02.07-.02-.03-.02-.05-.03-.08-.05h0Zm.01.07c-.43.14-.86.29-1.28.45.25,1.55.45,3.12.6,4.69.49.13.97.27,1.45.42-.19-1.87-.45-3.72-.77-5.56h0Zm7.88.09c-.07.72-.15,1.44-.23,2.16.1.34.2.69.3,1.03.63.45,1.26.92,1.87,1.39-.3-1.25-.63-2.48-.99-3.69-.31-.3-.63-.59-.95-.88h0Zm24.1.66c.26,1.44.48,2.89.66,4.35.49.56.97,1.15,1.44,1.78-.01-.14-.03-.28-.04-.42-.15-1.47-.35-2.92-.58-4.36-.48-.46-.97-.92-1.48-1.35h0Zm-130.07.74c-3.31,1.5-6.58,3.11-9.79,4.83-.38.84-.75,1.68-1.11,2.53,2.28-1.3,4.61-2.56,6.98-3.77,1.21-1.2,2.48-2.36,3.79-3.48.04-.04.09-.07.13-.11h0Zm-8.86.3c-.16.15-.31.3-.46.45-.19.18-.38.37-.57.55-.86,1.62-1.68,3.27-2.46,4.94.31-.17.61-.34.92-.52.82-1.83,1.67-3.64,2.57-5.42h0Zm97.95.95c-.52.26-1.04.52-1.55.78.61.05,1.21.1,1.81.17.15-.08.3-.15.45-.22-.06-.06-.12-.12-.18-.18-.18-.18-.35-.36-.53-.54h0Zm2.01.1c-.43.2-.86.41-1.29.62.1.1.2.21.3.31.73.09,1.45.19,2.17.3-.39-.42-.78-.83-1.17-1.23h0Zm14.55.17c-.07.56-.14,1.12-.21,1.68.41.3.81.6,1.21.9-.19-.77-.39-1.53-.61-2.3-.13-.09-.26-.19-.39-.28h0Zm-105.37,0c-1.41.67-2.82,1.37-4.21,2.08-.1.1-.2.2-.31.3,1.33-.68,2.68-1.33,4.05-1.97.15-.14.31-.28.46-.41h0Zm81.66.31c-.67,0-1.34,0-2,.02.41.5.79,1.01,1.14,1.53,1.26,0,2.52.04,3.79.1.88-.5,1.78-.98,2.69-1.45-1.86-.14-3.73-.21-5.61-.21h0Zm-3.41.07c-3.2.13-6.38.42-9.44.82,2.75.17,5.49.42,8.22.74.82-.03,1.65-.05,2.48-.06-.32-.43-.66-.84-1.02-1.24-.08-.09-.15-.17-.23-.25h0Zm10.83.3c-.89.45-1.78.92-2.66,1.41,1.75.13,3.49.34,5.21.61-.59-.65-1.19-1.3-1.8-1.93-.25-.03-.5-.06-.75-.08h0Zm-32.59.15c-4.39,0-8.77.12-13.11.31-5.16.22-10.33.59-15.48,1.13-.46.22-.93.45-1.39.68-.15.31-.31.62-.46.93,9.53-1.09,19.14-1.61,28.72-1.61,1.77,0,3.54.02,5.3.05.47,0,.94.02,1.42.03,2.33-.43,4.78-.83,7.31-1.16-4.1-.26-8.21-.36-12.31-.36h0Zm47.52.02c-.14,1.21-.3,2.41-.46,3.61.38.18.76.37,1.14.56.17-1.12.33-2.23.47-3.35-.38-.28-.76-.55-1.15-.82h0Zm-12.02.21c.62.67,1.23,1.34,1.84,2.03,1.17.24,2.32.51,3.46.83-.04-.59-.1-1.19-.15-1.78-1.67-.45-3.39-.81-5.14-1.08h0Zm15.64.6c.18.76.35,1.53.51,2.3,3.19,2.59,6.11,5.44,8.69,8.56-.74-1.73-1.6-3.43-2.59-5.09-2.06-2.06-4.28-3.98-6.6-5.77h0Zm-27.13.2c-.34,0-.67,0-1.01,0,.11.14.21.28.31.43.47.07.93.13,1.39.2-.13-.21-.27-.43-.41-.64-.1,0-.19,0-.29,0h0Zm-3.49.07c-2.81.11-5.56.35-8.15.67,3.93.2,7.91.52,11.83,1.07-.28-.47-.57-.93-.89-1.38-.93-.13-1.86-.25-2.79-.36h0Zm7.56.03c-.49.28-.98.56-1.46.84.52.09,1.03.18,1.55.27.58-.34,1.16-.67,1.75-1-.61-.05-1.22-.09-1.84-.12h0Zm-59.02.22c-.27.14-.54.28-.82.42.21-.03.43-.05.64-.07.06-.12.12-.23.17-.35h0Zm35.93.16c-.98.18-1.95.37-2.89.56-9.44,1.92-18.94,4.78-28.08,8.57,2.22-.44,4.46-.83,6.71-1.17,9.83-3.58,20.02-6.1,30.09-7.5.51-.07,1.03-.14,1.55-.2-2.49-.12-4.95-.2-7.38-.26h0Zm-66,.03c-2.35,1.2-4.62,2.48-6.83,3.83-.31.73-.61,1.47-.91,2.21,1.51-.94,3.05-1.84,4.61-2.71,1-1.14,2.04-2.25,3.12-3.33h0Zm31.3,0c-.47.05-.94.1-1.4.16-.22.44-.43.87-.64,1.31.59-.31,1.17-.61,1.76-.9.09-.19.19-.38.28-.57h0Zm54.41.12c.22.35.43.71.63,1.08.43-.26.85-.51,1.29-.77-.64-.11-1.28-.21-1.91-.31h0Zm17.38.06c.06.6.11,1.2.16,1.8,1.57.5,3.1,1.09,4.56,1.77.08-.56.16-1.11.24-1.67-1.59-.75-3.25-1.38-4.96-1.9h0Zm7.78,0c.32,1.3.6,2.6.83,3.9.53.34,1.06.7,1.57,1.08-.18-1.2-.39-2.4-.63-3.58-.58-.47-1.17-.94-1.77-1.39h0Zm-81.62.04c-.25.03-.5.06-.75.09-.2.21-.4.42-.61.63.45-.24.9-.48,1.36-.72h0Zm66.88.08c.79.88,1.57,1.77,2.32,2.68.84.27,1.67.57,2.5.87-.85-1.07-1.72-2.13-2.62-3.16-.73-.15-1.46-.28-2.2-.4h0Zm-69.84.28c-9.43,1.23-18.79,3.03-27.94,5.53-.89.24-1.81.5-2.74.78-.52.64-1.03,1.3-1.52,1.96,7.48-2.32,14.64-3.87,19.74-4.83,3.62-.69,7.25-1.29,10.9-1.8.52-.55,1.04-1.1,1.56-1.64h0Zm62.88.1c-.53.31-1.06.63-1.59.95,4.22.7,8.35,1.69,12.29,3.11-.47-.59-.94-1.18-1.42-1.77-2.28-.75-4.6-1.37-6.98-1.85-.77-.16-1.53-.3-2.3-.45h0Zm-61.28.26c-.69.37-1.38.75-2.06,1.14.37-.05.75-.1,1.12-.15.31-.33.63-.66.94-.99h0Zm113.49.16c.14.99.25,1.98.34,2.97,1.76,2.85,3.2,6.02,4.26,9.57,3.86,12.9,2.16,24.78-3,35.37-.63,2.29-1.37,4.57-2.2,6.82,3.73-6.16,6.43-12.86,7.76-20.11,2.18-11.86-.19-24.76-7.16-34.61h0Zm-55.05.08c-.11.07-.23.14-.34.21.17.02.33.05.49.07-.05-.09-.1-.19-.15-.28h0Zm-1.13.1c.09.15.17.3.25.44.18-.11.36-.22.53-.33-.26-.04-.53-.08-.79-.11h0Zm-91.49.03c-.31.17-.61.33-.92.5-.38.86-.76,1.72-1.12,2.59.27-.16.54-.31.8-.47.02-.03.03-.07.05-.1.39-.85.78-1.69,1.19-2.52h0Zm6.83.05c-1.24.63-2.46,1.28-3.68,1.95-1.21,1.38-2.36,2.8-3.45,4.26.74-.23,1.47-.46,2.18-.67,1.56-1.93,3.21-3.78,4.94-5.54h0Zm28.7.1c-.15.08-.3.16-.45.24.12-.01.24-.03.36-.04.03-.06.06-.13.09-.19h0Zm57.24,0c.11.21.22.43.33.65.25-.16.51-.32.76-.47-.36-.06-.73-.12-1.09-.17h0Zm49.91.01c.08.83.16,1.67.22,2.51.37.54.73,1.1,1.08,1.68,1.27,2.14,2.35,4.36,3.24,6.64.02-.98.02-1.96,0-2.94-.65-1.44-1.38-2.87-2.18-4.28-.74-1.31-1.53-2.51-2.35-3.61h0Zm-105.84.01c-.47.05-.93.11-1.4.17-1.5,3.13-2.9,6.38-4.17,9.72.5-.13,1-.25,1.5-.38.08-.21.16-.42.24-.63,1.13-2.96,2.41-5.93,3.83-8.87h0Zm71.23.04c.07.9.12,1.8.16,2.71.49.19.99.39,1.48.59-.04-.96-.1-1.91-.17-2.86-.48-.15-.97-.3-1.46-.44h0Zm-72.99.16c-.62.08-1.23.15-1.84.23-.51.53-1.01,1.07-1.51,1.61,1.11-.63,2.23-1.25,3.36-1.84h0Zm56.66.03c-2.68,1.67-5.21,3.42-7.52,5.17-.53.4-1.06.81-1.59,1.22.5.11.99.22,1.49.35,2.61-2.05,5.32-4,8.11-5.8-.16-.32-.32-.63-.49-.94h0Zm54.91.3c.33,2.44.51,4.89.56,7.35.38.84.73,1.68,1.06,2.53.06-2.61-.03-5.22-.27-7.83-.43-.7-.89-1.38-1.36-2.04h0Zm-185.08.04c-1.21.8-2.4,1.62-3.58,2.47-12.91,9.26-24.58,22.22-27.05,38.44-2.67,17.57,7.18,33.63,18.89,45.9-.66-1.27-1.28-2.57-1.86-3.88-10.12-11.42-17.69-25.44-15.87-40.99,1.92-16.4,14.08-29.39,26.99-38.68.8-1.1,1.63-2.19,2.47-3.26h0Zm70.55,0c-.37.05-.74.1-1.11.15-.33.35-.65.7-.98,1.05.69-.41,1.39-.81,2.09-1.2h0Zm109.39.03c.38,3.94.52,7.89.46,11.81.42.88.82,1.78,1.19,2.68.14-4.22.06-8.43-.25-12.61-.45-.65-.91-1.28-1.39-1.88h0Zm-48.41,0c-.29.18-.58.36-.86.55,1.58,3.21,2.33,6.82,2.59,10.5.38.28.75.58,1.11.89-.22-4.13-1.04-8.27-2.83-11.94h0Zm-94.94.21c-1.64.92-3.27,1.88-4.87,2.86-1.28,1.47-2.53,2.97-3.76,4.5,2.36-1.59,4.76-3.1,7.17-4.54.08-.05.16-.1.24-.15.39-.9.8-1.79,1.22-2.68h0Zm117.32.3c-.08.55-.17,1.1-.26,1.65,1.08.56,2.12,1.17,3.12,1.84-.06-.4-.13-.81-.2-1.21-.05-.28-.1-.56-.15-.84-.82-.52-1.65-1-2.52-1.45h0Zm-153.14.46c-.56.38-1.12.76-1.68,1.14-.52.36-1.04.73-1.56,1.1-13.52,18.59-20.93,41.64-16,64.63,1.13,5.28,2.77,10.31,4.87,15.04.68.77,1.38,1.53,2.08,2.28-.06-.27-.13-.53-.19-.8-7.08-15.2-8.85-33-4.81-49.25,3.13-12.58,9.3-24,17.27-34.14h0Zm67.69.19c-5.13,3.01-10.02,6.32-14.59,9.68.71-.08,1.41-.15,2.11-.21,3.21-2.34,6.54-4.61,9.99-6.73.82-.92,1.66-1.83,2.5-2.74h0Zm-30.43.17c-.28.16-.56.32-.84.48-.06.14-.13.28-.19.42.29-.18.58-.36.88-.54.05-.12.1-.24.15-.36h0Zm32.12.08c-1.41.8-2.81,1.63-4.19,2.48-1.87,2.09-3.7,4.22-5.48,6.39.61-.04,1.22-.07,1.83-.1,2.56-3,5.18-5.92,7.85-8.77h0Zm82.37.2c-.14.95-.29,1.91-.45,2.86.36.18.73.35,1.09.54.17-.95.32-1.9.48-2.85-.37-.19-.74-.37-1.12-.55h0Zm-6.86.12c.35.44.69.89,1.03,1.34-.01-.32-.02-.64-.04-.96-.33-.13-.66-.26-1-.38h0Zm-108.66.5c-.27.17-.54.34-.81.51-.31.74-.61,1.48-.91,2.23.24-.16.48-.31.72-.47.32-.76.65-1.52.99-2.27h0Zm-.61.05c-.34.2-.68.4-1.02.6-.08.18-.16.37-.24.55.35-.23.71-.46,1.06-.69.06-.15.13-.31.19-.46h0Zm108.2.35c.74.95,1.46,1.91,2.15,2.88,0-.69-.01-1.38-.03-2.06-.7-.29-1.41-.56-2.12-.81h0Zm3.55.08c.02.45.03.91.05,1.36,1.16.5,2.39,1.05,3.69,1.66.07-.42.14-.84.21-1.25-1.3-.63-2.61-1.22-3.94-1.77h0Zm9.86.32c.11.69.2,1.38.29,2.07,2.2,1.72,4.13,3.78,5.69,6.24.15.1.3.2.45.3.69.47,1.39.95,2.09,1.44-.96-1.93-2.16-3.77-3.6-5.48-1.48-1.75-3.12-3.27-4.91-4.58h0Zm-11.3.05c0,.12,0,.24.01.37.13.05.25.1.38.16-.13-.18-.26-.35-.39-.52h0Zm-111.56.35c-3.12,2.05-6.12,4.26-9.03,6.64,1.58-.72,3.17-1.4,4.76-2.03,1.09-.8,2.2-1.58,3.32-2.33.31-.76.63-1.52.95-2.27h0Zm111.96.17c.38.51.75,1.02,1.12,1.54,0-.36-.01-.72-.02-1.08-.31-.13-.61-.26-.91-.39-.06-.03-.13-.05-.19-.08h0Zm-110.12.3c-.32.2-.64.4-.96.6-.27.64-.53,1.27-.79,1.92.29-.1.59-.2.88-.3.28-.74.57-1.48.87-2.22h0Zm119.8.1c.16,1.05.31,2.1.43,3.16.47.26.93.53,1.39.8-.09-.96-.19-1.91-.31-2.86-.49-.38-1-.75-1.52-1.1h0Zm-52.61.38c-5.9,0-11.83.52-17.71,1.41-2.3.84-4.57,1.73-6.83,2.68,6.16-1.15,15.53-2.35,25.01-2.35,5.05,0,10.12.34,14.75,1.2.56-.45,1.12-.89,1.68-1.34-3.15-.68-6.31-1.06-9.13-1.29-2.58-.21-5.18-.31-7.78-.31h0Zm-68.87.59c-.37.24-.74.49-1.11.73-.17.42-.34.84-.51,1.27.33-.12.65-.23.97-.35.21-.55.43-1.1.64-1.65h0Zm117.88.04c-.07.41-.14.82-.22,1.24,1.42.69,2.9,1.44,4.4,2.25-.05-.45-.1-.89-.15-1.33-1.33-.75-2.67-1.47-4.03-2.15h0Zm-124.69.11c-11.68,7.63-22.02,16.98-29.63,28.11.3.35.6.68.91,1.02,1.42-2.05,2.93-4.02,4.54-5.94,3-6.41,9.22-11.52,16.38-15.51,1.39-1.07,2.79-2.11,4.21-3.12,1.16-1.54,2.36-3.06,3.59-4.57h0Zm119.73.02c.01.83.01,1.66,0,2.49.89,1.34,1.75,2.71,2.55,4.1.14-.7.28-1.4.41-2.09-.94-1.53-1.92-3.03-2.96-4.5h0Zm-110.07.31c-.67.21-1.35.44-2.04.67-.22.56-.43,1.13-.63,1.7.43-.14.85-.29,1.28-.43.45-.65.91-1.3,1.39-1.94h0Zm108.6.05c.03,6.3-.58,12.6-1.57,18.54.44.2.89.39,1.33.6,1.01-5.65,1.62-11.35,1.7-17.01-.48-.72-.96-1.42-1.47-2.13h0Zm5.13.22c-.22,1.3-.46,2.61-.71,3.91.29.48.58.96.86,1.45.32-1.61.63-3.22.92-4.84-.36-.18-.73-.35-1.08-.52h0Zm14.52.33c.73,1.58,1.36,3.2,1.89,4.84,1.58,2.2,3,4.52,4.23,6.96.98.89,1.92,1.82,2.8,2.79-.18-.46-.37-.93-.57-1.39-2.09-4.88-4.95-9.27-8.35-13.2h0Zm-43.84.27c-.55.43-1.09.86-1.63,1.3,4.92,1.07,9.26,2.78,12.42,5.38-.02-.66-.04-1.32-.09-1.98-3.04-2.27-6.82-3.73-10.7-4.7h0Zm-87.33.09c-.19.07-.38.13-.58.2-.22.56-.43,1.13-.64,1.7.18-.06.36-.13.54-.19.22-.57.44-1.14.67-1.71h0Zm3.58.32c-.68.21-1.37.43-2.05.65-.89,1.29-1.72,2.6-2.51,3.93-.43,1.27-.84,2.54-1.23,3.82.16-.05.32-.11.49-.16,1.55-2.87,3.33-5.63,5.3-8.24h0Zm40.94.22c-2.87.57-5.72,1.21-8.54,1.91-.14.37-.27.74-.41,1.11.05,0,.09,0,.14,0,.54,0,1.08,0,1.61,0,.26-.06.51-.12.76-.18,2.12-1,4.27-1.95,6.44-2.85h0Zm-46.07.01c-.93.34-1.87.69-2.81,1.06-1.31.97-2.6,1.97-3.86,3.02,1.97-.86,3.99-1.65,6.02-2.39.21-.57.43-1.14.65-1.7h0Zm85.71.35c-2.62,2.11-5.17,4.33-7.64,6.63.52.1,1.04.21,1.57.32,0,0,0,0,0,0,2.43-2.26,4.97-4.5,7.61-6.64-.51-.11-1.02-.21-1.54-.31h0Zm-91.42.24c-1.03.69-2.06,1.4-3.07,2.12-.37.49-.74.99-1.11,1.48.72-.36,1.44-.7,2.17-1.04.66-.86,1.33-1.72,2.01-2.57h0Zm7.51.25c-.31.1-.61.21-.92.31-.89,2.32-1.69,4.67-2.41,7.04.65-1.3,1.35-2.59,2.1-3.86.39-1.17.8-2.34,1.23-3.5h0Zm123.12.15c.04.42.07.85.11,1.27,2.11,1.18,4.23,2.48,6.29,3.88-.32-.61-.66-1.2-1.02-1.77-1.76-1.18-3.56-2.31-5.38-3.38h0Zm7.46.04c.87,2.06,1.58,4.16,2.13,6.3.45.33.89.68,1.34,1.02-.34-1.49-.74-2.97-1.22-4.42-.71-.99-1.46-1.96-2.24-2.9h0Zm-132.04.31c-.33.12-.66.23-.99.35-.9,2.42-1.72,4.86-2.44,7.32.32-.12.64-.24.97-.35.76-2.46,1.58-4.91,2.46-7.33h0Zm45.61.15c-.66.12-1.29.25-1.88.37-1.48.31-2.96.63-4.44.97-.13.06-.25.12-.38.18,1.05.01,2.08.03,3.1.05,1.19-.54,2.39-1.07,3.6-1.58h0Zm77.73.02c.5,4.81.64,9.74.39,14.68.29.79.57,1.59.83,2.38.46-5.27.55-10.81.13-16.32-.45-.25-.9-.5-1.35-.74h0Zm-87.64.76c-.99.25-1.97.51-2.95.78.9-.02,1.79-.03,2.67-.04.09-.25.18-.49.28-.74h0Zm117,.52c-.02,1.01-.06,2.03-.13,3.04,3.56,11.03,3.06,23.26-.03,34.38-.39,1.39-.81,2.77-1.26,4.14.87-1.46,1.68-2.94,2.41-4.45,3.38-12.26,3.7-25.04-.99-37.11h0Zm-115.92.21c-.45,0-.91,0-1.36,0-.1.28-.21.56-.31.84.5-.13,1-.25,1.5-.37.06-.16.11-.31.17-.47h0Zm1.75,0c-.64.15-1.28.3-1.92.46-.1.27-.19.54-.29.81.86-.43,1.72-.85,2.59-1.27-.13,0-.26,0-.38,0h0Zm-5.78.04c-1.47.03-2.95.09-4.45.16-.42.49-.84.99-1.26,1.49,1.6-.49,3.2-.96,4.8-1.4.3-.08.6-.17.9-.25h0Zm9.27.02c-.93.42-1.85.85-2.76,1.29,9.02.08,18.04.88,26.85,2.1,3.45.48,6.93,1.03,10.4,1.68.41-.39.82-.78,1.23-1.16-10.77-2.15-21.74-3.39-32.7-3.81-.99-.04-2-.07-3.03-.1h0Zm-49.92.02c-.05.02-.1.05-.15.07-.04.05-.07.1-.11.15.09-.07.17-.14.26-.21h0Zm159.54.12c-.09,4.31-.58,8.61-1.4,12.89.18.84.35,1.68.49,2.53.94-4.23,1.57-8.51,1.84-12.8-.28-.88-.6-1.76-.93-2.62h0Zm-159.81.09c-1.16.95-2.3,1.93-3.43,2.93.64-.33,1.29-.65,1.95-.96.49-.66.98-1.32,1.48-1.98h0Zm34.64,0c-1.49.09-3,.2-4.5.34-.83.6-1.64,1.21-2.45,1.82,1.89-.24,3.78-.44,5.68-.6.42-.52.85-1.04,1.27-1.56h0Zm8.64.54c-.75.19-1.5.39-2.24.59.68-.02,1.37-.04,2.05-.05.06-.18.13-.36.19-.54h0Zm-15.26.01c-6.91.74-13.86,2.03-20.37,4.14-.36.67-.71,1.34-1.05,2.03-.02.07-.04.14-.06.21,3.19-1.1,6.45-1.98,9.69-2.73,3.04-.7,6.11-1.28,9.21-1.73.07-.05.14-.1.21-.16.78-.59,1.57-1.18,2.37-1.76h0Zm-26.87.22c-.89.39-1.77.78-2.64,1.2-.76,1.04-1.51,2.08-2.25,3.14.71-.65,1.4-1.28,2.05-1.87.93-.85,1.87-1.67,2.83-2.46h0Zm125.03.03c-.14.71-.29,1.42-.44,2.13,2.45,4.45,4.43,9.1,5.87,13.87.12-1.3.21-2.61.27-3.91-1.53-4.17-3.46-8.22-5.71-12.08h0Zm-128.25.09c-1.05.52-2.09,1.07-3.11,1.63-2.39,1.84-4.71,3.77-6.95,5.79,2.54-1.95,5.44-3.71,8.52-5.29.5-.71,1.02-1.42,1.53-2.12h0Zm46.55.09c-.06.03-.11.06-.17.08.05,0,.09,0,.14,0,0-.03.02-.05.03-.08h0Zm1.49.08c-.51,0-1.01,0-1.52,0-.21.59-.41,1.18-.61,1.78,1.18-.61,2.37-1.2,3.56-1.78-.48,0-.96,0-1.44,0h0Zm-1.65,0c-.41,0-.83,0-1.24.02-.09.25-.18.5-.27.75.5-.26,1-.52,1.5-.77h0Zm-3.29.07c-1.95.06-3.91.16-5.85.3-.52.62-1.04,1.25-1.55,1.88,2.45-.79,4.93-1.51,7.4-2.17h0Zm-5.83.27s-.09.03-.13.04c.03,0,.07,0,.1,0,0-.01.02-.02.03-.03h0Zm-.13.04c-.57.04-1.14.09-1.71.13-.14.18-.29.36-.43.54.71-.23,1.43-.45,2.15-.67h0Zm89.84.02c-.91,4.52-1.95,9.01-3.09,13.45.36.17.72.35,1.08.52.68-2.72,1.32-5.44,1.92-8.17.32-1.43.63-2.87.93-4.32-.27-.5-.55-.99-.84-1.48h0Zm-16.39.2c.04.69.06,1.37.06,2.06,2.01,1.97,3.41,4.4,3.98,7.35.47.17.94.35,1.41.52-.24-1.47-.66-2.92-1.28-4.33-.98-2.23-2.42-4.08-4.18-5.6h0Zm-65.7.18c-5.33,2.77-10.46,5.88-15.3,9.34-.9,1.23-1.79,2.47-2.65,3.72,5.39-4.16,11.2-7.89,17.31-11.17.21-.63.42-1.26.64-1.89h0Zm-9.89.28c-3.22,1.04-6.43,2.18-9.59,3.45-.54.43-1.07.86-1.59,1.3-.73.6-1.46,1.21-2.19,1.83,3.86-1.76,7.82-3.3,11.85-4.66.5-.64,1.01-1.28,1.52-1.92h0Zm-5.25.06c-.75.1-1.49.2-2.24.31-2,1.51-3.97,3.08-5.92,4.7,1.26-.56,2.54-1.1,3.82-1.62,1.42-1.14,2.86-2.27,4.34-3.39h0Zm79.82.57c.05,2.19-.06,4.38-.25,6.51.35.11.7.23,1.05.34.12-1.33.2-2.67.25-4.01.02-.62.03-1.24.03-1.87-.34-.33-.7-.66-1.08-.97h0Zm33.16.07c.27.54.52,1.09.75,1.64.42.32.84.64,1.25.96-.1-.46-.21-.93-.33-1.39-.56-.42-1.12-.82-1.67-1.22h0Zm-1.51.03c.79,1.51,1.44,3.14,1.96,4.92,2.59,9,1.15,19.32-4.15,27.04-.3.44-.62.87-.95,1.3-.01.68-.04,1.36-.07,2.04,7.61-9.19,10.09-22.7,5.48-33.69-.74-.55-1.5-1.09-2.26-1.61h0Zm-95.29,0c-.56.29-1.12.58-1.68.88-4.46,13.51-6.52,28.18-3.89,41.85.32.03.64.05.96.08-2.56-14.03.29-29.85,4.61-42.81h0Zm-47.29.09c-.06.03-.11.06-.16.08-.04.06-.08.11-.12.17.09-.08.19-.17.28-.25h0Zm-.28.25c-1.59,1.42-3.15,2.89-4.69,4.42-5.07,5.02-10,10.49-13.82,16.59-.06.68-.09,1.37-.08,2.07,3.98-6.66,9.83-12.85,15.05-17.84,1.13-1.75,2.32-3.5,3.55-5.24h0Zm37.35.12c-.74.24-1.48.48-2.22.73-2.37,3.04-4.65,6.14-6.81,9.29.96-.73,1.94-1.45,2.92-2.16,1.96-2.68,4.01-5.3,6.11-7.87h0Zm53.84.69c-.41.38-.81.76-1.22,1.14,7.04,1.37,14.06,3.13,20.87,5.42.05-.43.09-.87.13-1.31-1.99-.64-3.99-1.25-5.97-1.82-4.55-1.32-9.16-2.46-13.81-3.43h0Zm67.03.08c-.13,3.99-.43,8.01-.9,12.01.19.36.38.73.56,1.1.15.31.28.61.41.91.5-3.69.87-7.4,1.07-11.12-.34-.98-.72-1.95-1.13-2.91h0Zm1.25.12c-.03.93-.07,1.86-.12,2.79.99,2.81,1.71,5.71,2.19,8.66.21-.95.41-1.89.59-2.84-.64-2.94-1.52-5.81-2.66-8.6h0Zm-71.07.65c-7.61,7.26-14.46,15.36-20.53,23.88-3.9,5.48-7.58,11.3-10.64,17.42.49,0,.98-.01,1.46-.02.72-1.38,1.44-2.73,2.16-4.02,7.61-13.72,17.73-26.17,29.11-36.95-.53-.1-1.05-.2-1.58-.3h0Zm-77.5.02c-.32.11-.64.21-.96.32-.21.69-.41,1.39-.6,2.08.29-.11.59-.21.89-.31.04-.08.07-.15.11-.23.18-.62.37-1.24.56-1.87h0Zm-.87.03c-.05.1-.1.21-.16.31.02,0,.04-.02.07-.02.03-.1.06-.19.09-.29h0Zm137.37.15c.11.47.21.95.3,1.42,1.39,1.16,2.71,2.39,3.9,3.67-.38-.87-.78-1.72-1.2-2.55-.97-.88-1.98-1.73-3.01-2.53h0Zm-147.4.07c-1.12,1.03-2.31,2.14-3.54,3.31-1.33,2.04-2.58,4.09-3.76,6.1.77-.63,1.56-1.24,2.37-1.82,1.57-2.58,3.21-5.11,4.93-7.59h0Zm9.87.1c-.15.05-.3.1-.44.16-.21.7-.42,1.4-.63,2.1,0,0,.01,0,.02,0,.33-.76.68-1.5,1.05-2.25h0Zm136.52.2c2.98,13.32.16,27.86-4.41,40.75.63-.37,1.26-.74,1.88-1.13,1.19-3.7,2.2-7.45,3.04-11.23,2.02-9.08,2.54-18.49.8-27.33-.43-.36-.86-.71-1.3-1.06h0Zm-137.93.31c-4.83,1.79-9.37,4.08-13.4,6.98-.74,1.22-1.46,2.45-2.17,3.69,1.07-.88,2.17-1.72,3.3-2.51,3.59-2.52,7.55-4.49,11.67-6.07.19-.7.39-1.4.59-2.1h0Zm1.82,1.22s-.03.01-.05.02c-.71,1.45-1.36,2.93-1.94,4.44-.36,1.56-.69,3.14-.97,4.71.24-.17.47-.33.71-.5.66-2.89,1.41-5.78,2.25-8.67h0Zm12.98.24c-5.33,2.37-10.47,5.14-15.22,8.43-.16.68-.31,1.35-.45,2.03,1.08-.77,2.18-1.5,3.28-2.21,2.69-1.73,5.48-3.31,8.35-4.77,1.34-1.19,2.69-2.35,4.06-3.48h0Zm-13.91.09c-.17.06-.35.12-.52.19-.01.03-.03.07-.04.1-.88,3.03-1.66,6.1-2.34,9.18.04-.03.09-.06.13-.09.48-1.78,1.06-3.53,1.72-5.25.32-1.38.67-2.76,1.05-4.13h0Zm-.54.19c-.31.11-.62.23-.93.35-.52,1.93-.99,3.87-1.39,5.83.65-2.06,1.42-4.09,2.3-6.08,0-.03.02-.06.03-.09h0Zm-17.2.85c-2.31,1.78-4.34,3.71-5.96,5.82,1.9-2.02,3.89-3.96,5.96-5.82h0Zm31.68.38c-1.38.63-2.74,1.28-4.09,1.97-4.49,3.99-8.79,8.26-12.77,12.81-.09.51-.18,1.02-.27,1.53-.02.2-.03.4-.05.6,5.32-6.16,11.19-11.82,17.18-16.9h0Zm88.74.89c-.04.44-.08.88-.13,1.33,1.55.53,3.08,1.09,4.61,1.68-.05-.53-.12-1.04-.22-1.54-1.41-.51-2.83-1-4.26-1.47h0Zm39.57.55c2.2,5.05,3.61,10.58,4.07,16.64.26-1.37.51-2.74.73-4.11-.42-3.12-1.12-6.23-2.12-9.3-.8-1.11-1.7-2.19-2.68-3.22h0Zm1.6.24c.39.99.75,1.99,1.08,2.99,1.13,1.56,2.07,3.19,2.77,4.89.09-.72.18-1.44.27-2.16-1.11-2.06-2.52-3.96-4.12-5.72h0Zm-42.36.19c-.06.58-.13,1.16-.21,1.72-.99,7.61-2.97,15.22-5.56,22.66.43-.3.86-.6,1.27-.91,2.63-7.51,4.7-15.26,5.55-23.11-.35-.12-.7-.24-1.05-.36h0Zm6.85,1.03c.09.52.15,1.04.19,1.56,1.66.66,3.29,1.36,4.91,2.1.09-.49.17-.98.26-1.48-1.76-.78-3.55-1.5-5.36-2.18h0Zm-1.2,1.01c.27,2.9-.2,6.27-1.57,10.18-1.64,4.67-4.72,8.34-8.58,11.25-.24.69-.49,1.38-.74,2.06.71-.48,1.41-.98,2.09-1.51,6.34-4.88,10.84-13.31,10.19-21.43-.46-.18-.92-.37-1.39-.55h0Zm-88.18.73c-2.28,1.74-4.48,3.56-6.6,5.46-6.38,5.73-11.93,12.83-14.66,20.5.46.15.93.29,1.39.43,3.18-8.59,10.05-16.51,17.33-22.56.83-1.28,1.68-2.55,2.55-3.82h0Zm-21.85.31c-.4,1.28-.76,2.57-1.07,3.87.14-.1.27-.2.41-.31.2-1.19.42-2.38.67-3.56h0Zm-20.83.49c-1.19,1.27-2.35,2.57-3.47,3.9-1.18,2.53-1.87,5.26-1.91,8.2.39-.69.8-1.37,1.22-2.04.36-3.73,1.85-7.07,4.15-10.06h0Zm138.74.23c-.09.5-.18.99-.28,1.49.36.17.71.34,1.06.51.13-.48.25-.97.38-1.46-.39-.18-.77-.37-1.16-.54h0Zm-131.69.16c-3.81,3.15-7.08,6.94-9.57,11.47-.16.3-.17.6.04.87.62.77,1.28,1.51,1.98,2.21.2-.45.41-.89.62-1.34-.64-.6-1.25-1.31-1.06-1.67.81-1.47,1.79-2.85,2.81-4.18.87-1.13,1.81-2.19,2.82-3.19.66-1.2,1.32-2.39,2-3.55.12-.21.24-.41.36-.62h0Zm35.9.37c-.65.5-1.3,1.01-1.93,1.53-.3.24-.59.48-.89.73-2.47,3.8-4.77,7.66-6.88,11.57-2.12,3.93-4.05,8.05-5.7,12.29.39.1.78.19,1.17.28,3.55-9.31,8.48-18.1,14.22-26.4h0Zm94.21.36c-.1.55-.2,1.09-.3,1.63-1.57,8.16-3.84,16.27-6.71,24.2.43-.19.87-.39,1.3-.59,2.91-7.85,5.4-16.17,7.02-24.63-.43-.2-.87-.41-1.31-.61h0Zm13.65.03c-.12,1.34-.26,2.66-.42,3.95.18.7.36,1.4.52,2.11.64.47,1.28.94,1.9,1.44-.52-2.53-1.19-5.03-2-7.5h0Zm26.17.06c-.22,1-.46,2-.71,2.99.5,4.46.47,8.99-.04,13.46-.67,5.96-2.17,11.78-4.37,17.32.83-1.02,1.63-2.06,2.39-3.11,3.36-9.94,4.43-20.58,2.73-30.67h0Zm-35.99.1c-.12.49-.24.98-.37,1.47,1.15.58,2.29,1.17,3.42,1.79,1.75.95,3.45,1.99,5.09,3.12.07-.52.14-1.04.21-1.56-2.66-1.79-5.46-3.38-8.35-4.81h0Zm34.91.21c-.56,2.48-1.23,4.94-1.99,7.38.11,1.06.11,2.1.01,3.12.89-2.58,1.68-5.19,2.35-7.82-.1-.9-.22-1.79-.37-2.68h0Zm-154.22.46c-.25.18-.5.36-.75.54-.19.7-.36,1.41-.52,2.12.31-.24.63-.47.94-.7.1-.65.21-1.3.33-1.95h0Zm117.86.26c-.73,2.79-1.5,5.57-2.29,8.32-1.48,5.14-3.09,10.28-4.88,15.37.51-.24,1.02-.49,1.53-.74,2.58-7.37,4.8-14.86,6.73-22.42-.36-.18-.72-.36-1.09-.53h0Zm-132.28.02c-.89.73-1.74,1.5-2.56,2.31-1.6,2.92-3.13,5.94-4.57,9.04.35.33.71.64.95.84,1.87-4.15,3.94-8.22,6.19-12.18h0Zm13.54.35c-.21.15-.42.31-.62.46-.11.66-.21,1.31-.31,1.97.16-.13.33-.25.49-.38.14-.69.29-1.37.44-2.05h0Zm128.91.07c-.1,1.15-.23,2.29-.37,3.44.28.19.57.39.85.58.07-.53.14-1.06.21-1.59-.21-.81-.44-1.62-.68-2.42h0Zm-129.95.7c-.37.28-.73.56-1.09.84-4.01,3.16-7.64,7.01-9.79,11.69-.63,1.38-.35,2.76.26,4.11.79.43,1.6.85,2.41,1.25.03-.05.07-.1.1-.15-.42-.86-.86-1.7-1.34-2.54-.93-1.62.3-3.12,1.17-4.59,1.98-3.29,4.76-6.07,7.81-8.51.14-.71.29-1.41.46-2.11h0Zm2.17.13c-.2.14-.39.28-.59.42-.29,1.86-.53,3.72-.71,5.58.05-.06.1-.11.15-.17.2-1.09.4-2.17.61-3.23.17-.86.35-1.73.54-2.6h0Zm150.71.46c-.12.89-.25,1.79-.39,2.68.42,1.67.6,3.4.49,5.18-.02.25-.04.5-.06.75.43-1.22.84-2.45,1.23-3.69-.16-1.61-.57-3.25-1.27-4.92h0Zm-1.23.15c-.19,1.47-.41,2.94-.65,4.41.19,1.4.33,2.81.41,4.22.4-2.03.76-4.06,1.08-6.11-.22-.86-.5-1.7-.84-2.53h0Zm-151.01.51s-.03.02-.04.03c-.43,2.07-.81,4.15-1.15,6.24,0,.1-.02.2-.02.29.07-.09.15-.18.22-.27.04-.45.09-.9.14-1.35.2-1.67.48-3.32.85-4.95h0Zm-.54.41c-.19.15-.38.29-.56.44-.44,2.2-.74,4.42-.9,6.66.25-.3.5-.6.75-.9.02-.11.04-.22.05-.33.15-1.96.37-3.91.66-5.86h0Zm130.32,1.65c-.07.52-.15,1.04-.23,1.56.47.33.93.67,1.39,1.02-.13-.69-.28-1.38-.43-2.06-.24-.17-.48-.35-.73-.52h0Zm-1.06.98c-.41,2.84-.94,5.66-1.6,8.45.14-.14.27-.27.41-.41.11-.12.41-.45.8-.9.48-2.17.88-4.32,1.21-6.44,0-.04.01-.08.02-.12-.27-.2-.55-.39-.83-.58h0Zm3.69.97c.13.64.26,1.29.37,1.94.11-.26.22-.52.32-.78.12-.31-.01-.62-.26-.82-.14-.12-.29-.23-.44-.35h0Zm-1.47.63c.11.55.21,1.1.3,1.65.33-.6.47-1.06.25-1.23-.18-.14-.37-.28-.55-.42h0Zm-130.71.24c-.41.47-.82.95-1.22,1.42-.06.65-.1,1.29-.14,1.94.37-.44.75-.89,1.12-1.32.04-.23.08-.45.12-.68.04-.45.08-.91.12-1.36h0Zm-28.63.33c-.33.48-.66.97-.99,1.46.83.89,1.71,1.74,2.65,2.57.28-.53.56-1.05.86-1.57-.87-.78-1.72-1.6-2.52-2.45h0Zm-1.89.45c-1.55,2.38-2.98,4.84-4.27,7.37-6.93,13.61-8.4,28.51-5.29,42.28.19.41.38.81.58,1.21.33.35.66.69.99,1.03-3.74-13.91-2.31-28.8,3.98-42.16,1.43-3.03,3.08-5.94,4.91-8.73-.31-.33-.61-.67-.9-1.01h0Zm163.07.3c-.15.35-.32.7-.49,1.05-.23.45-.48.9-.74,1.33.48,3.64.65,7.32.46,10.99.59-.64,1.15-1.3,1.68-1.99.07-3.81-.25-7.62-.91-11.38h0Zm-1.54.34c-.65,1.16-2.02,2.84-2.92,3.89-.22,1.01-.46,2.02-.72,3.03,1.53-1.49,2.86-3.11,3.94-4.88-.09-.68-.19-1.36-.31-2.04h0Zm-132.46.27s-.02.02-.03.04c-.12.73-.23,1.45-.33,2.18.08-.1.16-.19.24-.29.03-.64.07-1.28.12-1.93h0Zm1.28.27s-.05.05-.07.08c-.4,2.38-.75,4.8-1.05,7.24.15,2.01.43,4,.82,5.96.13.04.26.08.38.13-.4-4.44-.42-8.92-.09-13.4h0Zm153.45.54c-.82,2.39-1.72,4.75-2.7,7.08-.01.3-.03.6-.05.91,1.49-2.49,2.48-5.16,2.75-7.99h0Zm-179.29.09c-.04.06-.07.13-.11.19.04.03.07.06.11.1,0-.1,0-.19,0-.29h0Zm23.77.04c-2.39,2.89-4.65,5.89-6.74,8.98.04.09.09.18.13.27.24.12.49.23.74.35,1.81-2.63,3.74-5.2,5.77-7.68.02-.64.06-1.28.1-1.91h0Zm-22.63,0c-.16.27-.32.55-.48.83.18.16.37.31.55.46-.04-.43-.06-.86-.07-1.29h0Zm-1.14.25c0,.54.02,1.09.07,1.65.19-.36.39-.72.59-1.07-.22-.19-.44-.38-.66-.57h0Zm178.05.19c-.44,1.25-.91,2.5-1.4,3.74,0,.46,0,.93-.02,1.39.73-1.61,1.22-3.32,1.42-5.13h0Zm-2.65.06c-.69,3.58-1.51,7.14-2.47,10.66.58-.65,1.12-1.33,1.62-2.02.05-.11.1-.22.15-.33.3-1.19.59-2.39.86-3.6,0-.12,0-.24,0-.36,0-1.48-.05-2.93-.16-4.36h0Zm1.14.11c-.3,1.54-.63,3.08-.98,4.6,0,.56-.01,1.12-.03,1.68.38-.9.76-1.82,1.12-2.73,0-1.19-.04-2.38-.11-3.56h0Zm-151.9.12c-.07.08-.14.17-.21.25-.15,2.78-.16,5.57-.02,8.34.09-.9.2-1.79.3-2.68-.15-1.95-.17-3.92-.07-5.91h0Zm-.45.54c-.18.21-.35.42-.52.64-.04,1.13-.04,2.26,0,3.4.16-1.35.34-2.69.53-4.03h0Zm-22.98,0c.07.83.2,1.67.38,2.53.7.53,1.42,1.05,2.15,1.56.23-.54.47-1.08.71-1.62-.06-.05-.13-.09-.19-.14-1.02-.73-2.04-1.51-3.04-2.34h0Zm-2.18.44c-.45.85-.87,1.71-1.27,2.59-3.72,8.2-3.44,14.73-.6,19.93.19-.74.4-1.48.6-2.22-.13-.33-.26-.67-.38-1.01-2.12-6.18-.72-12.56,2.42-18.62-.26-.22-.52-.44-.77-.67h0Zm1.03.17c-.09.16-.17.33-.26.49.11.09.22.19.34.28-.03-.26-.06-.52-.08-.78h0Zm6.37.4c-.21.47-.42.94-.62,1.4,2.89,2.65,6.32,4.79,10,6.54-.47-.78-.95-1.57-1.31-2.36-2.83-1.55-5.48-3.34-7.88-5.42-.05-.04-.11-.09-.19-.16h0Zm-6.3.37c.26,2.18.86,4.48,1.86,6.88.25-.62.5-1.24.75-1.86-.52-1.33-.9-2.62-1.17-3.88-.49-.37-.97-.76-1.44-1.14h0Zm4.73.13c-.14.32-.29.64-.43.96.34.24.69.49,1.03.73.11-.26.23-.52.34-.78-.32-.29-.63-.6-.94-.9h0Zm148.02,1.18c-3.85,3.86-8.74,6.66-13.63,9.06-.24.68-.48,1.36-.73,2.04,4.83-2.16,9.72-4.83,13.63-8.26.26-.94.5-1.89.72-2.84h0Zm-147.41.5c-.23.53-.46,1.07-.68,1.6,3.33,2.19,6.9,4.1,10.35,5.76.24-.38.48-.75.72-1.12-3.61-1.88-7.08-3.95-10.39-6.24h0Zm18.18.82c-.25,2.14-.46,4.28-.62,6.42.37.14.73.27,1.1.4.02-.26.04-.51.07-.77-.31-2.01-.49-4.04-.55-6.05h0Zm-19.92.07c-.33.77-.66,1.54-.98,2.32.21.55.45,1.1.7,1.66,0,.01,0,.02.01.03.43-1.1.87-2.2,1.33-3.29-.36-.24-.71-.47-1.06-.72h0Zm172.9.19c-.33.73-.71,1.45-1.13,2.15-.03.63-.06,1.27-.11,1.9.04-.06.08-.12.12-.17.37-.83.73-1.65,1.08-2.49.02-.46.04-.92.05-1.39h0Zm-23.26.14c-.39.38-.79.75-1.21,1.12-1.19,4.37-2.7,8.63-4.54,12.7.5-.27.99-.55,1.47-.83,1.76-4.24,3.18-8.62,4.28-12.99h0Zm22.15,1.19c-.27.64-.55,1.28-.83,1.91-.02.06-.03.13-.05.19.3-.42.58-.85.85-1.29.01-.27.02-.54.03-.81h0Zm1.01.96c-.32.54-.66,1.06-1.03,1.58-.04.1-.09.2-.13.3-.5,6.72-2,13.46-4.36,19.91.48-.47.95-.95,1.42-1.43,2.21-6.65,3.7-13.49,4.1-20.36h0Zm-51.73.81c-7.32,5-16.97,7.54-24.88,9.02-7.06,1.33-14.27,2.01-21.5,2.16-.23.44-.46.89-.69,1.34,2.82-.05,5.64-.17,8.45-.36,12.79-.85,26.84-3.19,37.92-10.21.24-.65.47-1.3.7-1.96h0Zm49.84.34s-.07.09-.1.14c-.52,1.17-1.07,2.33-1.63,3.48.38-.41.75-.83,1.11-1.26.21-.78.42-1.57.62-2.36h0Zm-157.73.13c-.28.41-.55.83-.83,1.25.32.15.64.3.97.44.16-.25.33-.49.49-.73-.13-.28-.26-.56-.4-.84-.08-.04-.15-.07-.23-.11h0Zm7.49.2c-.07.68-.14,1.35-.2,2.03.04.28.09.56.14.84.09.03.18.06.26.09-.09-.99-.15-1.97-.2-2.96h0Zm-20.94.06c-.13.34-.26.68-.39,1.02-.11.28-.21.56-.32.84,0,.02.02.04.03.06,1.79,3.67,4.46,6.57,7.63,8.88.23-.46.47-.91.7-1.37-3.2-2.45-5.87-5.53-7.66-9.43h0Zm-1.47.17c-1.61,4.07-3.04,8.24-4.24,12.47.26.64.55,1.26.87,1.85,1.19-4.33,2.6-8.56,4.12-12.63-.28-.57-.53-1.13-.76-1.69h0Zm15.89.04c-.11.16-.23.33-.34.49.18.39.36.79.54,1.18,1.59.68,3.21,1.29,4.85,1.85.03-.46.06-.93.1-1.39-1.75-.65-3.47-1.36-5.15-2.14h0Zm157.5.02c-.43.6-.88,1.18-1.35,1.75-.19.72-.39,1.43-.59,2.14-.08.28-.16.56-.24.84.76-1.52,1.48-3.06,2.18-4.61,0-.04,0-.08,0-.12h0Zm-50.05.2c-.41.28-.82.55-1.23.81-1.22,3.34-2.55,6.64-3.98,9.89.36-.11.73-.22,1.09-.34,1.44-3.39,2.83-6.85,4.12-10.36h0Zm-109.52.43c.06.1.12.19.17.29.03-.05.07-.1.1-.16-.09-.04-.18-.09-.28-.13h0Zm.17.29c-.04.06-.09.13-.13.2.12.06.24.12.36.18-.08-.13-.15-.25-.23-.38h0Zm1.07.29c-.09.13-.17.26-.26.39.54.27,1.08.54,1.62.81-.11-.25-.22-.5-.33-.75-.35-.15-.69-.3-1.03-.45h0Zm-.84.09c.12.21.25.42.36.62.07-.11.14-.22.21-.33-.19-.1-.39-.2-.58-.3h0Zm156.71.25c-2.57,2.91-5.87,5.43-9.34,7.6-.19.58-.38,1.16-.57,1.73,1.05-.66,2.09-1.34,3.11-2.05,2.21-1.53,4.34-3.29,6.23-5.23.2-.68.39-1.37.58-2.06h0Zm-156.34.37c-.17.25-.33.51-.49.76.39.18.77.36,1.15.53,0,0,0-.01,0-.02-.18-.42-.41-.85-.65-1.28h0Zm141.19.28c-2.5,2.72-5.47,4.99-8.68,6.88-.29.7-.59,1.4-.91,2.1,2.34-1.32,4.57-2.8,6.68-4.48.98-.78,1.9-1.62,2.78-2.51.06-.66.1-1.32.13-1.99h0Zm-142.63.03c-1.43,2.27-2.78,4.59-4.02,6.96.27.21.54.41.82.6,1.27-2.42,2.66-4.8,4.15-7.12-.31-.15-.63-.3-.95-.45h0Zm144.24.02c-.55.67-1.14,1.32-1.75,1.94-.26,3.02-.75,6.05-1.5,9.05.58-.28,1.17-.58,1.75-.88.83-3.34,1.31-6.72,1.49-10.11h0Zm-140.97.15c.19.44.38.89.57,1.33.05.11.09.22.14.33,1.27.56,2.51,1.08,3.69,1.57.02-.39.04-.78.06-1.18-1.5-.66-2.99-1.34-4.46-2.06h0Zm5.72.12c-.04.45-.08.91-.11,1.36.2.06.39.13.59.19-.1-.49-.19-.99-.28-1.48-.07-.02-.14-.05-.2-.07h0Zm.47.16c.04.48.09.95.14,1.43.37.12.74.24,1.11.35-.11-.49-.22-.98-.32-1.47-.31-.1-.62-.21-.93-.31h0Zm148.31.33c-.19.2-.38.4-.57.6-.13.45-.26.89-.39,1.34.32-.64.64-1.29.96-1.93h0Zm-147,.11c.04.47.09.93.14,1.4.11.03.21.07.32.1.13-.41.26-.81.41-1.22-.29-.09-.58-.19-.87-.28h0Zm-8.68.1c1.48,3.45,2.92,7.09,5.38,9.96,0-.52,0-1.04,0-1.56,0-.37,0-.74.02-1.1-1.37-1.91-2.49-4.05-3.52-6.45-.62-.27-1.25-.56-1.89-.85h0Zm5.7.29c-.02.32-.04.63-.06.95.36.16.72.31,1.07.46.02-.35.05-.7.08-1.04-.36-.12-.73-.24-1.09-.37h0Zm5.24.32c-.15.4-.29.8-.42,1.2,1.59.46,3.17.88,4.72,1.28.15-.39.3-.79.45-1.18-1.59-.4-3.18-.83-4.75-1.3h0Zm-3.56.24c.08.41.17.81.26,1.21-.05-.39-.09-.78-.13-1.17-.04-.01-.08-.03-.13-.04h0Zm113.11.1s-.01,0-.02.01c-.3.14-.6.28-.89.42-.24.65-.48,1.29-.73,1.93.31-.13.63-.26.95-.4.24-.65.47-1.31.7-1.96h0Zm-111.87.29c.08.35.17.7.26,1.05.01-.05.03-.1.04-.14-.03-.28-.07-.56-.1-.84-.07-.02-.13-.04-.2-.06h0Zm.52.16c-.08.25-.15.49-.22.74.02.16.04.33.06.49.38.15.77.31,1.15.46.12-.43.25-.86.39-1.28-.46-.13-.92-.27-1.38-.41h0Zm146.82.12c-.96,1.93-1.96,3.83-3,5.71-1.31,3.79-2.77,7.51-4.4,11.14-.83,1.84-1.71,3.66-2.65,5.43.75-.6,1.48-1.2,2.21-1.82,3.23-6.54,5.8-13.42,7.84-20.46h0Zm-149.24.18c-.03.38-.05.77-.07,1.15.37.15.73.3,1.09.44.03.01.05.02.08.03-.06-.41-.11-.82-.16-1.24-.31-.13-.62-.26-.93-.39h0Zm148.01.02c-5.06,10.01-11.37,19.34-17.94,27.5-.67.84-1.36,1.67-2.05,2.49.99-.62,1.97-1.26,2.94-1.91,1.84-2.29,3.61-4.62,5.32-6.98,3.53-4.87,6.9-10.11,9.96-15.6.63-1.82,1.22-3.66,1.77-5.51h0Zm10.93.23c-1.01,1.69-2.1,3.34-3.28,4.95-.6,1.77-1.27,3.51-2.01,5.22,1.02-1.26,1.99-2.54,2.91-3.86.87-2.08,1.66-4.18,2.37-6.32h0Zm-47.38.03c-4.63,2.08-9.42,3.85-14.29,5.37-.1.25-.21.49-.32.74-.12.27-.23.54-.35.81,3.22-.99,6.4-2.07,9.55-3.24,1.51-.56,3.09-1.17,4.72-1.83.23-.62.46-1.23.68-1.85h0Zm-110.63.09s0,.02,0,.03c0,0,0,0,0,0,0,0,0-.02,0-.03h0Zm0,.03c.1.43.2.87.32,1.3.19.08.38.15.56.23.08-.35.17-.7.27-1.06-.38-.16-.77-.31-1.15-.47h0Zm9.21.1c-.15.4-.3.79-.44,1.19.83.21,1.66.41,2.46.6,8.49,2.03,17.18,3.34,25.93,3.97-.11-.49-.21-.98-.3-1.47-4.86-.4-9.69-1-14.46-1.75-4.24-.67-8.71-1.47-13.18-2.53h0Zm104.44.06c-.5.23-1.01.44-1.51.66-1.14,3.16-2.35,6.3-3.64,9.41.47-.14.95-.27,1.42-.42,1.32-3.18,2.56-6.4,3.73-9.65h0Zm-112.42.03c-.03.09-.05.18-.08.28.06.02.11.04.17.07-.03-.11-.06-.23-.09-.34h0Zm-3.3.13c-.08,1.63-.14,3.25-.17,4.88.32.45.66.89,1.01,1.32.03-1.92.1-3.84.22-5.76-.35-.14-.7-.29-1.07-.44h0Zm3.39.21s.02.06.02.09c0-.03,0-.05-.01-.08,0,0,0,0-.01,0h0Zm.02.09c.05.38.1.77.16,1.15.06.02.13.05.19.07-.12-.41-.23-.81-.34-1.22h0Zm6.25.37c-.21.56-.41,1.12-.61,1.68.38.13.76.27,1.15.4.21-.6.42-1.19.63-1.78-.39-.1-.78-.19-1.17-.29h0Zm-5.11,0c-.1.35-.19.7-.27,1.05,1.46.57,2.94,1.12,4.42,1.66.12-.35.24-.69.36-1.03-1.51-.53-3.01-1.09-4.5-1.67h0Zm108.72.22c-.42.18-.84.35-1.25.52-1.15,3.07-2.4,6.11-3.73,9.11.38-.1.76-.2,1.13-.3.45-1.02.89-2.04,1.32-3.06.87-2.05,1.71-4.14,2.53-6.27h0Zm-111.04.02c.1.73.21,1.45.33,2.18.05-.29.1-.58.16-.86-.12-.42-.23-.83-.34-1.25-.05-.02-.1-.04-.16-.06h0Zm.72.29c-.08.34-.16.68-.22,1.02.28.99.59,1.98.94,2.96.06-.55.14-1.09.23-1.63-.12-.7-.23-1.4-.33-2.11-.21-.08-.41-.16-.62-.24h0Zm.8.32c.11.36.22.72.33,1.07.06-.29.13-.58.2-.87-.18-.07-.35-.14-.52-.21h0Zm156.54.38c-.81,1.34-1.68,2.66-2.58,3.95-11.56,27.62-36.62,49.93-61.57,64.82-18.47,11.03-41.59,20.33-64.03,20.33-9.52,0-18.91-1.67-27.78-5.6-10.28-4.55-19.2-12.84-24.96-22.73-.83-.86-1.63-1.73-2.41-2.63,1.77,3.69,3.97,7.27,6.66,10.68,12.11,15.36,29.88,21.07,48.17,21.07,10.24,0,20.63-1.79,30.3-4.68,31.7-9.46,61.06-30.14,81.5-56.04,6.77-8.58,12.78-18.58,16.71-29.17h0Zm-156.21.7c-.07.32-.13.64-.18.96.28,1.6.61,3.19.99,4.77.34.79.7,1.58,1.08,2.36.17.11.33.21.51.31.12-.5.24-.99.37-1.49-1.09-2.24-2.02-4.55-2.77-6.92h0Zm6.12.15c-.07.21-.14.42-.22.63-.05.14-.09.27-.14.41,10.08,3.55,20.55,6.22,31.15,8.07-.18-.52-.35-1.05-.51-1.57-10.04-1.76-20.37-4.14-30.28-7.54h0Zm-7.64.34c-.26,1.51-.4,3.02-.4,4.55.43.44.89.85,1.37,1.26-.01-.37-.02-.74-.02-1.12-.37-1.56-.68-3.12-.95-4.69h0Zm6.13.29c-.69,2.02-1.3,4.07-1.84,6.13.28.57.56,1.14.86,1.69.62-2.54,1.34-5.03,2.14-7.41-.39-.14-.77-.27-1.15-.41h0Zm31.19.75c.09.49.18.98.29,1.46,3.82.25,7.64.38,11.46.38.62,0,1.23,0,1.85,0,.22-.45.44-.9.66-1.34-.54,0-1.09,0-1.63,0-4.22,0-8.43-.17-12.63-.5h0Zm-50.75.04c-.23.45-.46.9-.69,1.35,3.43,2.34,7.39,4.04,11.41,5.34-.01-.48-.02-.95-.03-1.43-3.83-1.29-7.5-2.99-10.69-5.27h0Zm135.67.11c-3.07,1.67-6.32,3.03-9.56,4.15-1.08.37-2.16.73-3.26,1.06-.25.61-.51,1.22-.76,1.82,4.39-1.24,8.62-2.85,12.59-4.92.34-.7.67-1.4.99-2.11h0Zm14.09.36c-1.27.74-2.55,1.43-3.82,2.08-.15.59-.3,1.17-.47,1.76,1.23-.65,2.44-1.33,3.63-2.04.22-.6.44-1.19.65-1.8h0Zm-151.29.29c-1.7,3.37-3.19,6.85-4.44,10.41-.11.32-.22.63-.33.95.31.22.62.43.94.64,1.23-3.92,2.81-7.72,4.66-11.42-.28-.19-.56-.39-.83-.58h0Zm16.06.25c-.1.86-.15,1.73-.15,2.6.11.46.22.92.34,1.38.49.4,1.01.78,1.55,1.15-.18-.66-.35-1.33-.52-1.99-.45-1.04-.85-2.09-1.22-3.14h0Zm136.54.06c-.65.41-1.3.81-1.96,1.2-.24.63-.48,1.27-.72,1.89-2.99,7.72-6.51,15.34-10.8,22.46.79-.48,1.59-.97,2.38-1.46,4.56-7.58,8.28-15.7,11.1-24.09h0Zm-42.89.01c-10.27,3.12-20.92,5.17-31.42,6.68-2.39.34-4.8.66-7.21.93,2.22.23,4.45.44,6.69.6,10.55-1.43,21.05-3.59,31.25-6.65.23-.52.46-1.04.69-1.56h0Zm-58.09.27c.35,1.6.77,3.19,1.25,4.76.33.06.65.11.98.17-.51-1.59-.94-3.21-1.29-4.86-.31-.02-.63-.04-.95-.07h0Zm86.15.01c-.51.29-1.03.57-1.56.84-1.17,2.4-2.47,4.74-3.88,6.98.59-.22,1.18-.45,1.76-.68,1.35-2.3,2.57-4.7,3.67-7.15h0Zm-70.45.4c-.48,0-.96.02-1.43.02-.94,1.96-1.82,3.94-2.62,5.95.4.05.79.11,1.19.16.89-2.1,1.86-4.15,2.86-6.13h0Zm-54.07.25c-.01.81-.02,1.63-.01,2.44.25.24.51.48.78.7.21.18.42.35.64.52-.06-.74-.09-1.48-.09-2.21-.46-.46-.9-.95-1.32-1.45h0Zm96.9.28c-.37.11-.75.23-1.12.34-.96,2.14-1.96,4.26-2.98,6.35.39-.04.78-.09,1.17-.14,1.02-2.19,1.99-4.38,2.93-6.55h0Zm-97.94,1.06c0,.63,0,1.26.01,1.89.34.11.68.23,1.02.33,0-.38,0-.76-.01-1.14-.36-.35-.7-.71-1.02-1.09h0Zm154.6.04c-1.5,1.85-3.1,3.64-4.79,5.38-.44,1.33-.91,2.64-1.41,3.95,1.32-1.29,2.59-2.61,3.81-3.96.87-1.76,1.67-3.55,2.39-5.37h0Zm-21.09.02c-2.16,1.06-4.23,1.99-6.11,2.81-1.82.8-3.66,1.56-5.51,2.28-.41.7-.83,1.4-1.27,2.08,4.25-1.57,8.41-3.34,12.41-5.37.17-.6.33-1.2.48-1.8h0Zm1.29.88c-.59.31-1.17.62-1.77.92-1.21,4.25-2.94,8.45-5.22,12.55-2.78,4.99-6.14,9.6-9.94,13.83.96-.49,1.93-.99,2.89-1.5,6.34-7.53,11.28-16.13,14.02-25.72,0-.02.01-.05.02-.08h0Zm-158.79.14c-.18.64-.35,1.29-.52,1.94,1.79,2.62,4.25,4.87,7.19,6.8.11-.35.23-.71.34-1.06-2.91-2.06-5.35-4.58-7.02-7.67h0Zm27.71.27c.02.56.06,1.12.13,1.69.21.06.41.11.62.16-.15-.53-.29-1.05-.43-1.58-.11-.09-.22-.18-.32-.27h0Zm-29.18.1c-2.8,10.73-4.03,21.74-2.74,32.32.31.27.62.53.93.8-1.28-10.42.1-21.23,2.77-31.55-.35-.51-.67-1.03-.96-1.57h0Zm180.45.71c-.89,1.11-1.82,2.19-2.78,3.26-2.01,4.06-4.39,7.94-7.09,11.59-1.09,2.19-2.29,4.3-3.58,6.33,5.33-6.05,9.76-12.91,13.06-20.28.13-.3.26-.59.39-.89h0Zm-153.95.07c0,.47.02.94.03,1.41.53.16,1.06.32,1.59.47-.07-.48-.13-.96-.18-1.44-.48-.14-.96-.28-1.44-.43h0Zm1.4.09c0,.12.02.23.03.35.23.07.45.13.68.19-.24-.18-.47-.36-.71-.54h0Zm108.33.05c-.38.11-.77.22-1.15.32-.26.59-.52,1.18-.79,1.77.4-.1.79-.2,1.19-.3.25-.59.5-1.19.75-1.79h0Zm-105.17.41c.07.26.14.51.22.77.21.05.41.1.62.14-.09-.18-.18-.36-.27-.54-.19-.12-.38-.25-.57-.37h0Zm-2.45.08c.24.18.49.36.74.53-.01-.11-.03-.22-.04-.34-.23-.06-.47-.13-.7-.19h0Zm38.5.06c.17.53.35,1.06.54,1.58,2.77.47,5.55.89,8.34,1.25.17-.46.35-.91.53-1.37-2.11-.29-4.2-.6-6.27-.93-1.04-.17-2.09-.34-3.14-.52h0Zm66.83.06c-4.41,1.13-8.91,1.95-13.48,2.51-.21.46-.43.92-.65,1.38,4.49-.44,8.97-1.13,13.34-2.15.26-.58.53-1.16.78-1.74h0Zm-104.01.23c.06.23.13.46.2.69.49.32,1,.62,1.52.91-.13-.42-.26-.84-.38-1.27-.45-.11-.9-.22-1.34-.33h0Zm-4.43.11c.11,4.2.43,8.52,1.05,12.81.37.09.73.17,1.1.25-.65-4.19-1.01-8.46-1.12-12.74-.34-.1-.68-.21-1.02-.32h0Zm3.84.06c.05.37.1.74.17,1.11.29.07.57.15.86.22-.08-.27-.16-.54-.24-.81-.26-.17-.52-.34-.78-.52h0Zm2.78.07c-.02.09-.04.18-.06.27.29.06.57.13.86.19-.27-.15-.54-.3-.8-.46h0Zm1.23.21c-.03.11-.05.22-.08.32.09.02.19.04.28.06-.07-.13-.14-.26-.2-.38h0Zm-1.47.02c.04.08.08.16.12.25.02-.07.03-.14.05-.21-.06-.01-.12-.03-.17-.04h0Zm104.99.08c-.47.13-.94.26-1.41.38-.85,1.98-1.72,3.95-2.63,5.91.48-.14.96-.28,1.44-.42.9-1.94,1.76-3.9,2.6-5.86h0Zm-103.95.15c.07.04.14.08.21.12.04.02.08.05.12.08,0-.04.02-.08.03-.12-.12-.03-.24-.05-.36-.08h0Zm-.91.02c-.08.32-.15.64-.22.96.18.1.36.2.54.29,0,0,0,0,0,0,.13.03.26.06.39.09-.24-.45-.48-.89-.71-1.34h0Zm1.55.12c.29.54.59,1.07.9,1.6,8.54,1.78,17.33,2.47,26.13,2.47,2.49,0,4.97-.05,7.45-.16-.12-.28-.24-.55-.35-.83-.08-.19-.15-.37-.22-.56-1.9.06-3.8.09-5.69.09-7.7,0-15.39-.51-22.97-1.68-1.72-.27-3.48-.57-5.24-.94h0Zm-.31.06c-.09.37-.17.73-.25,1.1.43-.2.67-.78.25-1.1h0Zm-5.15,0c.4,2.58,1.2,5.17,2.47,7.75.1-.82.22-1.64.35-2.46-.67-1.63-1.13-3.27-1.42-4.91-.47-.12-.94-.25-1.41-.38h0Zm38.54.21c.26.75.54,1.51.83,2.25.33-.01.66-.02.98-.03-.29-.67-.55-1.36-.8-2.04-.34-.06-.67-.11-1.01-.17h0Zm67.64.13c-.37.09-.75.18-1.13.27-.93,2.04-1.9,4.06-2.9,6.06.41-.11.81-.22,1.22-.34.97-1.99,1.91-3.99,2.81-5.99h0Zm-56.57.08c-.19.45-.38.9-.56,1.35.23.03.45.06.68.08,2.17-.18,4.34-.4,6.51-.64-2.22-.23-4.43-.5-6.62-.79h0Zm-47.34.18c.28.92.58,1.84.9,2.75.15-.78.3-1.56.48-2.34,0-.03-.02-.05-.02-.08-.45-.11-.9-.22-1.35-.33h0Zm1.28.1c.02.08.05.16.07.23.01,0,.03,0,.04,0,.01-.05.02-.11.04-.16-.05-.03-.1-.05-.15-.08h0Zm.11.24s-.01.05-.02.07c.25.79.51,1.57.78,2.35.12-.62.25-1.24.38-1.86-.06-.11-.12-.22-.18-.34-.01,0-.02,0-.04,0-.12,0-.24-.03-.36-.09-.19-.04-.38-.09-.57-.13h0Zm1.24.16c-.08.04-.17.06-.27.07.08.02.16.04.24.05,0-.04.02-.08.03-.12h0Zm-.28.07h0s0,0,0,0c0,0,0,0,0,0h0Zm.25.06c-.02.09-.04.19-.06.28.82,1.48,1.73,2.95,2.72,4.4,2.15,3.13,4.6,6.07,7.28,8.83.74.08,1.49.16,2.24.23-.02-.02-.04-.04-.06-.06-4.19-3.99-7.79-8.48-10.63-13.35-.38-.08-.76-.16-1.14-.25-.12-.03-.23-.05-.35-.08h0Zm86.32.3c-5.02.56-10.1.81-15.2.81-4.37,0-8.74-.18-13.08-.5-2.09.28-4.19.54-6.29.76,4.57.41,9.15.67,13.7.79,1.98.05,4,.09,6.05.09,4.63,0,9.38-.16,14.15-.59.22-.45.45-.91.67-1.36h0Zm-43.31.12c-.05.13-.1.26-.14.39.41-.03.83-.06,1.24-.1.02-.05.04-.1.06-.14-.39-.05-.77-.1-1.16-.15h0Zm69.6.09c-3.72,1.4-7.49,2.66-11.31,3.8-.25.55-.51,1.1-.77,1.65,3.6-1.01,7.19-2.13,10.72-3.38.46-.68.92-1.37,1.35-2.07h0Zm-67.77.14c-.24.02-.49.04-.73.06-.19.47-.38.95-.56,1.43,2.2-.17,4.39-.37,6.57-.59.54-.06,1.09-.11,1.64-.17-2.3-.2-4.61-.45-6.91-.72h0Zm-1.98.16c-2.46.18-4.92.32-7.39.41.2.46.4.92.62,1.38,2.09-.1,4.18-.22,6.26-.37.17-.48.34-.95.51-1.42h0Zm98.01.73c-1.81,1.78-3.7,3.5-5.66,5.16-.71,1.43-1.45,2.85-2.22,4.25,2.18-1.71,4.27-3.49,6.27-5.35.57-1.34,1.11-2.7,1.61-4.07h0Zm-54.04.01c-.4.04-.79.08-1.19.11-1.25,2.52-2.54,5-3.85,7.43.47-.09.94-.19,1.41-.28,1.26-2.4,2.47-4.83,3.62-7.26h0Zm26.27.36c-.62.23-1.23.45-1.85.67-.88,1.29-1.79,2.54-2.75,3.77-3.8,4.84-8.71,8.83-14.21,11.8-.46.82-.92,1.65-1.4,2.47,8.54-4.09,15.18-10.78,20.21-18.7h0Zm-69.55.22c-.4.03-.8.06-1.2.09-.83,2.38-1.55,4.8-2.13,7.25.26.34.52.68.79,1.01.62-2.82,1.5-5.61,2.54-8.35h0Zm-45.26,0c-.12.64-.23,1.29-.34,1.94.27.67.58,1.34.92,2.01.08-.55.17-1.11.26-1.66-.3-.76-.58-1.52-.84-2.29h0Zm1.26,0c-.15.76-.29,1.52-.41,2.28.82,2.11,1.75,4.2,2.79,6.26.06.11.11.22.17.33.07.09.14.17.21.26.39.47.78.94,1.19,1.4.3.05.61.09.91.13-1.95-3.46-3.56-7.02-4.85-10.67h0Zm36.55.46c-.34.02-.69.03-1.03.04,1.3,2.99,2.95,5.68,4.88,8.07.09-.41.18-.83.28-1.24-1.63-2.16-3-4.46-4.13-6.87h0Zm104.79,1.46c-.53.52-1.07,1.04-1.62,1.55-1.71,4-3.76,7.87-6.09,11.52,1.55-1.75,3.03-3.56,4.43-5.44.67-1.34,1.3-2.72,1.89-4.13.48-1.16.95-2.32,1.39-3.49h0Zm-164.43.01c-.11.34-.21.69-.32,1.04,4.98,3.06,11.16,5.27,17.61,6.86-.06-.39-.12-.78-.17-1.16-5.88-1.38-12.09-3.44-17.12-6.74h0Zm-1.28.42c-3.45,11.02-3.44,21.94-.35,32.04.47.32.95.63,1.43.94-2.72-8.57-3.37-17.78-1.57-26.58.4-1.95.89-3.88,1.46-5.79-.33-.2-.65-.4-.96-.61h0Zm124.69.24c-.46.13-.91.26-1.37.39-.26.54-.53,1.07-.79,1.61.46-.12.93-.25,1.4-.38.26-.54.51-1.08.77-1.62h0Zm-2.58.73c-4.64,1.27-9.34,2.38-14.06,3.35-.26.5-.53,1-.8,1.5,1.44-.3,2.89-.61,4.32-.93,3.22-.72,6.47-1.49,9.73-2.33.27-.53.54-1.06.81-1.59h0Zm3.26.5c-.48.13-.96.27-1.44.4-2.1,4.39-4.39,8.69-6.87,12.85.7-.34,1.39-.69,2.08-1.06,1.71-3.07,3.28-6.16,4.76-9.13.5-1.02,1-2.04,1.48-3.06h0Zm-101.65.13c-.11.76-.2,1.51-.29,2.27.37.63.76,1.25,1.19,1.88.49.72,1.01,1.42,1.55,2.1.53.09,1.06.17,1.59.26-.28-.52-.56-1.05-.83-1.58-1.3-1.63-2.36-3.28-3.21-4.93h0Zm-1.28.45c-.21,1.68-.36,3.36-.44,5.05.38.08.76.15,1.13.22.07-1.15.17-2.3.3-3.44-.36-.61-.68-1.22-.99-1.83h0Zm100.09.2c-.41.11-.82.22-1.23.32-2.41,4.69-5.04,9.27-7.85,13.71.6-.23,1.2-.48,1.8-.74,2.61-4.36,5.04-8.81,7.28-13.3h0Zm35.31,1.78c-2.65,2.12-5.4,4.12-8.23,6.01-1.29,1.6-2.61,3.18-3.97,4.74,3.38-2.01,6.66-4.17,9.8-6.49.84-1.39,1.64-2.81,2.4-4.26h0Zm-51.2.58c-6.73,1.34-13.51,2.39-20.25,3.25-5.7.73-11.46,1.3-17.23,1.68.48.45.96.88,1.46,1.3,11.82-.78,23.61-2.39,35.2-4.72.24-.43.47-.87.71-1.3.04-.07.08-.14.11-.21h0Zm.61,1.22c-.48.1-.96.2-1.43.29-2.49,4.53-5.3,9.1-8.44,13.5.48-.02.97-.04,1.45-.07,3.09-4.38,5.88-8.99,8.43-13.72h0Zm-41.4.17c-.09.4-.17.81-.25,1.21.73.84,1.5,1.65,2.3,2.41.42-.03.83-.05,1.25-.08-.3-.28-.6-.57-.89-.87-.86-.86-1.66-1.76-2.41-2.68h0Zm-1.07.23c-.06.27-.11.53-.17.8-.19.93-.34,1.86-.45,2.8.34-.02.68-.03,1.03-.05.11-.85.25-1.71.42-2.56-.28-.32-.55-.65-.82-.98h0Zm93.05.24c-.79.62-1.58,1.22-2.39,1.82-4.58,7.63-10.23,14.47-16.79,20.15,2.14-1.23,4.22-2.57,6.24-4.01.45-.48.9-.97,1.34-1.47,4.52-5.07,8.35-10.61,11.6-16.49h0Zm-138.32.11c.06.39.13.79.19,1.18.75.18,1.5.34,2.25.5.01-.39.03-.78.05-1.16-.82-.16-1.65-.34-2.49-.52h0Zm3.62.74c-.02.39-.04.78-.06,1.18,1.43.29,2.86.55,4.28.79-.41-.47-.8-.94-1.18-1.43-.02,0-.05,0-.07-.01-.96-.16-1.95-.33-2.97-.52h0Zm-4.55.17c1.2,7.75,3.38,15.41,6.99,22.18-1.27-2.91-2.19-5.99-2.75-9.14-.05-.29-.1-.58-.15-.86-1.3-3.86-2.28-7.84-2.97-11.9-.37-.09-.75-.18-1.12-.27h0Zm9.18.62c.25.46.5.91.76,1.36.38.06.76.12,1.14.17-.45-.48-.9-.96-1.33-1.45-.19-.03-.38-.06-.57-.09h0Zm-5.81.15c-.12,3.8.1,7.61.72,11.39.83,2.46,1.8,4.86,2.91,7.21-2.09-5.8-2.77-12.07-2.51-18.37-.38-.08-.75-.15-1.12-.23h0Zm7.29.07c.26.46.52.92.8,1.37,2.1.31,4.18.56,6.18.77-.49-.47-.97-.96-1.44-1.44-1.85-.2-3.7-.43-5.54-.7h0Zm7.78.93c.51.49,1.02.96,1.55,1.44,4.1.37,7.85.55,10.95.62,1.71.04,3.41.06,5.12.06,3.13,0,6.27-.06,9.4-.19.03-.46.08-.91.13-1.37-3.27.15-6.55.23-9.82.23-5.79,0-11.58-.25-17.33-.79h0Zm-9.67.02c.91,1.05,1.88,2.06,2.9,3.03-.6-.93-1.17-1.88-1.72-2.84-.39-.06-.78-.12-1.17-.19h0Zm40.56.34c-.91.05-1.81.1-2.72.15-.06.46-.11.92-.16,1.37,1.44-.06,2.88-.14,4.31-.22-.49-.42-.97-.85-1.44-1.3h0Zm-38.25.02c.29.31.59.61.89.91-.18-.28-.35-.57-.52-.86-.12-.02-.25-.04-.37-.05h0Zm6.56.83c8.29,8.08,18.57,14.53,28.98,19.41,1.06.3,2.14.57,3.21.81-.16-.28-.31-.55-.46-.83-10.83-4.76-20.89-11.39-29.39-19.16-.77-.07-1.55-.14-2.34-.23h0Zm-5.66.09c.92,1.48,1.9,2.94,2.95,4.38.13.18.27.36.4.55,6.6,5.22,14.49,9.08,21.92,12.3,4.4,1.9,8.85,3.27,13.33,4.16-.08-.13-.16-.26-.24-.38-1.24-.54-2.49-1.1-3.73-1.68-.27-.08-.53-.15-.8-.23-11.81-3.55-24.79-10.06-33.84-19.09h0Zm40.06.28c-.42.03-.85.05-1.27.08,7.41,6.34,17.26,9.59,27.27,9.74.25-.35.51-.7.76-1.04-.51.02-1.02.03-1.52.03-9.1,0-18.05-2.74-25.24-8.8h0Zm-5.58.31c-.33.01-.67.03-1,.04-.51,6.59.95,13.1,3.92,18.67.48.21.96.42,1.44.62-1.85-3.11-3.19-6.47-3.9-9.83-.66-3.11-.76-6.3-.46-9.5h0Zm81.64.81s-.04.03-.06.04c-.02.04-.05.08-.07.12.04-.05.09-.1.13-.16h0Zm-.13.16c-1.25,1.48-2.53,2.93-3.84,4.36.57-.32,1.14-.64,1.71-.97.73-1.12,1.44-2.25,2.13-3.39h0Zm-116.29.2c9.49,14.85,24.42,25.8,41.2,31.09.48-.24.95-.49,1.42-.75-15.4-4.61-29.31-14.23-38.96-27.17-1.27-1.01-2.5-2.06-3.66-3.17h0Zm127.77.33c-3.92,4.4-8.34,8.37-13.12,11.78-1.6,1.7-3.28,3.31-5.02,4.84,4.82-2.83,9.33-6.21,13.43-10.03,1.68-2.1,3.25-4.31,4.71-6.59h0Zm-13.78.81c-2.04,1.22-4.09,2.38-6.15,3.49-1.02,1.21-2.08,2.4-3.17,3.55,2.44-1.16,4.86-2.4,7.24-3.71.71-1.09,1.41-2.2,2.08-3.32h0Zm14.62.07c-1.76,1.99-3.61,3.9-5.55,5.71-2.26,2.84-4.71,5.49-7.32,7.91-8.53,7.9-18.81,13.57-29.74,17.53-.94.64-1.9,1.27-2.87,1.88-.41.26-.83.52-1.25.78,18.94-6.14,36.06-17.06,46.74-33.8h0Zm-41.8,1.2c-.6.29-1.2.56-1.8.82-.44.73-.88,1.46-1.34,2.19.57-.21,1.14-.43,1.71-.67.48-.78.96-1.56,1.43-2.35h0Zm28.58.06c-.41.24-.81.48-1.23.72-.55.84-1.11,1.67-1.68,2.5.98-1.06,1.95-2.13,2.9-3.22h0Zm-164.85,1.23c.2.84.42,1.68.66,2.51.44.45.88.89,1.32,1.33.05.05.11.11.16.16-.06-.19-.12-.38-.18-.57-.55-.99-1.07-2-1.57-3.02-.13-.14-.26-.28-.39-.41h0Zm136.93.13c-.61.29-1.23.57-1.86.84-.08.03-.16.07-.24.1-.64,1.03-1.29,2.05-1.96,3.06-2.03,3.09-4.24,6.09-6.68,8.89.79-.2,1.58-.41,2.37-.62,3.13-3.8,5.89-8,8.37-12.27h0Zm-4.27.15c-4.69,1.82-9.66,2.94-14.63,3.26-.26.37-.53.75-.8,1.12,4.77-.07,9.55-.83,14.1-2.3.45-.69.89-1.38,1.33-2.07h0Zm29.25.19c-.18.1-.36.2-.55.3-.21.33-.43.65-.64.98.4-.42.8-.85,1.19-1.28h0Zm-160.52.98c.18.66.37,1.33.57,1.99.16.3.33.59.49.88,1.99,1.95,4.04,3.84,6.14,5.64-.1-.66-.19-1.32-.27-1.99-.13-.11-.25-.22-.38-.33-2.22-1.95-4.42-4.01-6.55-6.19h0Zm-1.6.16c.43.84.88,1.66,1.34,2.47-.16-.52-.32-1.04-.47-1.57-.29-.3-.58-.6-.87-.91h0Zm133.34.13c-.59.22-1.19.42-1.79.62-2.54,3.9-5.23,7.69-8.04,11.36.69-.16,1.37-.32,2.06-.49,2.75-3.71,5.34-7.56,7.77-11.49h0Zm27.6.01c-6.53,6.93-13.82,13.19-21.86,18.23,1.12-.26,2.24-.55,3.36-.87,1.15-.79,2.28-1.59,3.39-2.41,3.92-2.89,7.64-6.06,11.17-9.45,1.38-1.79,2.69-3.63,3.95-5.51h0Zm1.22.25c-1.67,1.8-3.4,3.56-5.17,5.26-2.37,3.07-4.92,5.99-7.69,8.73-.44.43-.88.86-1.33,1.29.82-.31,1.64-.65,2.46-1,4.31-4.4,8.23-9.19,11.74-14.27h0Zm-7.54.44c-5.33,2.69-10.66,4.96-15.74,6.77-3.27,1.17-6.64,2.24-10.09,3.19-.48.59-.97,1.16-1.47,1.73,7.84-1.91,16.03-4.68,24.06-8.26,1.12-1.11,2.2-2.26,3.25-3.43h0Zm-152.26,1.57c.45,1.41.95,2.8,1.5,4.18,1.89,2.85,3.97,5.55,6.24,8.07-.17-.65-.32-1.29-.47-1.95-2.62-3.11-4.95-6.46-6.96-9.99-.1-.1-.21-.21-.31-.31h0Zm-1.01.08c2.57,8.25,6.82,15.96,12.55,22.6-.63-1.33-1.21-2.67-1.73-4.02-1.73-2.25-3.33-4.66-4.8-7.24-1.34-2.36-2.51-4.77-3.5-7.24-.88-1.33-1.72-2.7-2.51-4.1h0Zm153,.4c-.99.47-1.98.93-2.98,1.37-6,5.98-12.91,11.14-20.32,15.47.98-.11,1.96-.23,2.93-.38,7.41-4.62,14.39-10.12,20.36-16.47h0Zm-38.3.17c-2.99,4.07-6.26,7.97-9.85,11.48.53-.02,1.06-.05,1.6-.09,3.52-3.5,6.72-7.34,9.66-11.39-.23,0-.46,0-.69,0-.24,0-.48,0-.72,0h0Zm-106.57,4.11c.08.66.17,1.32.28,1.98,3.24,2.72,6.6,5.26,10.1,7.6-.27-.76-.52-1.53-.76-2.3-3.32-2.24-6.53-4.66-9.62-7.28h0Zm-.66,1.19c.22,1.46.49,2.91.82,4.35.35.42.71.83,1.07,1.24-.39-1.59-.71-3.19-.96-4.8-.31-.26-.62-.53-.93-.79h0Zm36.19.9c1.02,2.83,2.37,5.54,4.1,8.09,2.94,4.32,6.72,7.62,11,9.83-6.25-3.89-11.01-9.85-14.36-16.43-.25-.49-.5-.99-.73-1.49h0Zm113.08,1.57c-2.36,1.36-4.79,2.59-7.27,3.67-.13.06-.25.11-.38.17-.79.81-1.59,1.6-2.41,2.38,1.56-.59,3.1-1.23,4.61-1.92,1.88-1.34,3.69-2.78,5.45-4.3h0Zm-31.67.59c-.28.07-.56.14-.85.21-.39.53-.78,1.05-1.18,1.57.05-.01.1-.02.16-.03.12-.03.24-.05.37-.08.51-.55,1.01-1.1,1.5-1.67h0Zm32.88.24c-2.16,1.27-4.38,2.43-6.66,3.47-2.52,1.81-5.16,3.45-7.9,4.92-1.33,1.16-2.69,2.29-4.08,3.38,6.73-2.91,13.03-6.87,18.64-11.76h0Zm-114.3.4c3.12,7.16,8.33,13.26,15.47,16.72-1.79-1.02-3.52-2.23-5.16-3.65-4.31-3.7-7.68-8.15-10.3-13.07h0Zm78.52.05c-5.16,1.17-10.45,2-15.72,2.34-.4.4-.81.8-1.22,1.19,5.22-.23,10.47-.93,15.76-2.01.4-.51.79-1.01,1.19-1.53h0Zm3.8.41c-.8.2-1.6.38-2.4.56-.67.71-1.35,1.41-2.05,2.09-1.3,1.66-2.64,3.28-4.01,4.87.09,0,.19.01.28.01,2.97-2.16,5.69-4.72,8.17-7.54h0Zm-38.49.35c.1.16.19.32.29.48.54.11,1.09.21,1.63.3-.64-.26-1.29-.52-1.93-.79h0Zm-.98.22c.17.29.34.58.51.87.48.21.96.41,1.44.61.04,0,.08.01.12.02-.27-.41-.54-.82-.8-1.23-.43-.09-.85-.17-1.27-.27h0Zm36.55.11c-.69.15-1.38.3-2.06.44-1.69,2.15-3.42,4.25-5.19,6.3.02,0,.05,0,.07,0,.07-.05.13-.1.2-.15,1.93-1.41,3.75-2.96,5.46-4.62.51-.65,1.02-1.31,1.53-1.97h0Zm-33.65.46c1.51.6,3.02,1.16,4.55,1.68,2.53.26,5.08.38,7.63.38.69,0,1.37,0,2.06-.03.41-.38.81-.77,1.21-1.16-1.24.06-2.49.09-3.73.09-3.95,0-7.87-.3-11.72-.96h0Zm-80.04.28c.1.42.21.84.33,1.26.06.22.12.43.18.65,3.98,4.22,8.5,7.93,13.49,11.05-.4-.65-.78-1.3-1.14-1.97-.61-.39-1.22-.8-1.82-1.21-4.1-2.83-7.79-6.12-11.04-9.78h0Zm77.89.4c2.03,3.23,4.61,6.07,7.62,8.34.26-.17.53-.35.79-.53-2.72-2.07-5.11-4.65-7.06-7.52-.05-.02-.1-.04-.15-.06-.4-.07-.8-.15-1.2-.23h0Zm1.32.25s.02.03.03.04c.5.21.99.41,1.49.61,3.33,1.35,6.73,2.49,10.19,3.42.43-.35.85-.71,1.27-1.07-2.55-.64-5.09-1.39-7.59-2.25-1.8-.18-3.6-.43-5.39-.75h0Zm-79.81.06c.56,2.17,1.25,4.31,2.06,6.41.61.79,1.23,1.56,1.87,2.31-1.14-2.44-2.09-4.96-2.82-7.52-.37-.4-.74-.8-1.11-1.2h0Zm10.41.74c.25.77.51,1.54.79,2.31,5.79,3.73,11.94,6.92,18.48,9.46,14.29,5.56,29.71,8.28,45.07,8.76,2.09-.3,4.16-.66,6.22-1.07-.57,0-1.14.01-1.72.01-24.32,0-48.54-6.25-68.84-19.47h0Zm86.05.25c-.53.02-1.05.04-1.58.05-.69.65-1.39,1.28-2.1,1.9.41.1.81.2,1.22.3.84-.73,1.66-1.48,2.46-2.25h0Zm41.4.02c-1.83.7-3.67,1.31-5.53,1.85-1.12.76-2.26,1.51-3.42,2.23,2.19-.5,4.35-1.1,6.46-1.8.84-.74,1.67-1.5,2.48-2.27h0Zm-128.12,1.08c1,2.81,2.24,5.54,3.71,8.19.5.32,1.01.64,1.52.95-1.47-2.62-2.74-5.36-3.77-8.18-.49-.31-.97-.63-1.46-.96h0Zm128.17.3c-.84.32-1.68.61-2.54.9-1.68,1.48-3.4,2.91-5.18,4.27,1.5-.67,2.98-1.4,4.43-2.17,1.12-.98,2.21-1.97,3.28-3h0Zm-43.92.85c-.42.37-.85.73-1.28,1.09,4.13,1.05,8.34,1.78,12.57,2.18.55-.35,1.08-.71,1.61-1.08.04-.05.09-.1.13-.15-4.37-.33-8.72-1.03-13.03-2.04h0Zm34.97.49c-1.69.39-3.39.71-5.1.97-.94.58-1.88,1.15-2.83,1.71,1.27-.14,2.53-.31,3.79-.52.24-.04.48-.08.72-.12.48-.27.95-.54,1.41-.82.67-.4,1.34-.81,2.01-1.22h0Zm-37.46.29c-1.49,1.23-3.03,2.4-4.62,3.49.28.21.56.42.85.62.17-.12.34-.24.52-.36,1.54-1.09,3.02-2.23,4.46-3.43-.4-.1-.81-.21-1.21-.32h0Zm29.43,1.07c-2.65.29-5.31.43-7.98.43-1.31,0-2.62-.03-3.94-.1-.25.18-.5.36-.76.54-.22.25-.43.5-.65.75,1.69.11,3.39.17,5.08.17,1.82,0,3.63-.06,5.45-.19.94-.52,1.87-1.05,2.8-1.59h0Zm7.97,0c-1.11.25-2.23.48-3.36.67-4.54,2.56-9.53,4.75-14.69,5.95-1.13.53-2.28,1.04-3.43,1.54,1.03-.07,2.05-.17,3.06-.29,6.51-1.37,12.72-4.32,18.43-7.88h0Zm-21.82.2c-.07.05-.13.1-.2.14-.33.38-.66.76-.99,1.13.43.04.87.07,1.3.1.36-.23.72-.47,1.07-.72.16-.18.32-.37.48-.55-.55-.03-1.1-.07-1.65-.11h0Zm13.95,1.12c-.96.11-1.93.19-2.89.26-3.97,2.18-8.06,4.14-12.21,5.87,1.65-.16,3.29-.44,4.92-.82.11-.05.21-.1.32-.15,3.33-1.55,6.63-3.28,9.86-5.16h0Zm-15.76.11c-3.19,2.03-6.73,3.7-10.33,5.14.31.09.61.17.93.25.32.08.65.15.97.22,2.57-1.15,5.04-2.39,7.38-3.69.39-.43.78-.86,1.17-1.29.17-.19.33-.38.5-.57-.2-.02-.41-.04-.61-.06h0Zm1.91.16c-.6.39-1.21.76-1.83,1.12-.37.21-.75.43-1.14.64-1.28,1.4-2.61,2.79-3.99,4.17.58.05,1.17.08,1.75.09,1.93-1.93,3.81-3.93,5.62-5.99-.14,0-.28-.02-.42-.03h0Zm23,.89c-6.14,2.74-12.73,4.6-19.71,5.41-1.26.27-2.54.47-3.82.61-.79.33-1.58.66-2.38.98,7.53-.19,14.94-1.59,21.97-4.11,1.34-.94,2.66-1.9,3.95-2.9h0Zm-44.1.47c-1.27.84-2.58,1.63-3.92,2.36.45.13.9.26,1.35.39,1.17-.67,2.32-1.39,3.43-2.13-.29-.2-.58-.41-.86-.62h0Zm1.64.09c-.26.18-.52.36-.78.53,2.06,1.44,4.32,2.63,6.73,3.49.42-.16.85-.33,1.27-.5-2.57-.75-5-1.96-7.22-3.52h0Zm-83.82.6c.69,1.48,1.45,2.92,2.27,4.34,5.23,5.41,11.52,9.97,18.74,13.35,1.1.52,2.22,1,3.34,1.46-.99-.78-1.96-1.62-2.91-2.51-.36-.34-.72-.68-1.08-1.03-7.66-3.69-14.6-8.83-20.36-15.61h0Zm126.63.04c-1.41.61-2.85,1.18-4.3,1.7-1.76,1.23-3.56,2.41-5.39,3.54,1.58-.49,3.14-1.02,4.7-1.59,1.71-1.16,3.37-2.38,4.99-3.65h0Zm-47.02,2.02c-.46.27-.93.52-1.4.78,2.62.77,5.28,1.41,7.97,1.9.74-.26,1.48-.53,2.22-.8-2.97-.44-5.91-1.07-8.79-1.88h0Zm-2.77.36c-2.46,1.25-5.03,2.31-7.7,3.14-3.2.99-6.42,1.48-9.57,1.48-4.76,0-9.36-1.1-13.5-3.24,1.61,1,3.32,1.87,5.13,2.57,2.14.83,4.32,1.43,6.53,1.84.38.01.75.02,1.13.02,6.69,0,13.35-2.17,19.35-5.39-.46-.14-.91-.27-1.37-.42h0Zm-65.8.09c.37.65.75,1.3,1.15,1.94,5.4,3.19,11.33,5.7,17.73,7.44,8.08,2.2,16.42,3.21,24.81,3.21,7.83,0,15.7-.88,23.42-2.49-.77.01-1.54.02-2.31.02-1.67,0-3.34-.03-5.01-.08-5.37.78-10.82,1.2-16.26,1.2-15.28,0-30.47-3.31-43.52-11.24h0Zm81.89.88c-.46.2-.91.4-1.38.6.74.21,1.5.39,2.26.54.58.04,1.15.07,1.73.1.26-.25.51-.5.76-.76-1.13-.09-2.26-.25-3.39-.48h0Zm-3.16.03c-.46.18-.91.35-1.37.52.84.12,1.67.23,2.51.33.22-.09.43-.18.64-.27-.61-.17-1.2-.36-1.79-.57h0Zm-79.1.1c2.62,4.3,5.86,8.35,9.69,12.08.73.35,1.46.69,2.21,1.01-4.07-3.49-7.56-7.62-10.38-12.18-.51-.3-1.02-.61-1.52-.92h0Zm91.34.29c-1.07.1-2.14.16-3.21.16-.25,0-.49,0-.74,0-.24.24-.49.48-.73.72.45,0,.9.01,1.35.01.39,0,.78,0,1.18-.01.72-.29,1.44-.58,2.15-.88h0Zm-11.1.45c-.73.3-1.46.6-2.2.89,1.9.27,3.8.47,5.7.58.33-.31.65-.63.98-.95-.53-.07-1.05-.16-1.57-.26-.97-.07-1.94-.16-2.91-.27h0Zm12.59.27c-.3.02-.6.04-.9.06-.92.05-1.83.09-2.75.1-.3.12-.61.24-.91.36.12,0,.24,0,.35,0,.87,0,1.76-.04,2.65-.12.26-.02.52-.05.78-.08.26-.11.51-.22.77-.33h0Zm-7.95.1c-.05.05-.11.11-.16.16.55.07,1.11.13,1.67.18.1-.09.19-.18.28-.28-.6-.01-1.19-.03-1.79-.06h0Zm-9.38.11c-.78.28-1.56.54-2.34.8-5.96,2.01-12.32,3.33-18.64,3.33-2.51,0-5.01-.21-7.47-.66-3.11-.12-6.23-.71-9.26-1.91-.7-.27-1.37-.57-2.04-.89,5.74,3.28,12.14,4.63,18.7,4.63,7.9,0,16.04-1.96,23.58-4.88-.78-.11-1.55-.24-2.33-.38-.07-.01-.14-.02-.2-.04h0Zm10.88.23c-.29.29-.59.57-.88.85.23,0,.46.02.69.02.7-.26,1.39-.52,2.09-.79-.64,0-1.27-.04-1.89-.08h0Zm19.88.31c-5.9,1.85-11.93,3.24-17.94,4.24-2.71.45-5.44.83-8.18,1.13-.56.48-1.13.95-1.7,1.41,7.85-.7,15.76-2.09,23.45-4.22,1.47-.82,2.93-1.67,4.36-2.56h0Zm-22.52.46c-.54.52-1.09,1.03-1.64,1.54.98-.33,1.96-.67,2.94-1.02.15-.15.31-.29.46-.44-.59-.02-1.17-.05-1.76-.08h0Zm2.45.11c-.38.14-.76.28-1.15.42-.78.74-1.57,1.47-2.37,2.18,2.37-.8,4.71-1.67,7.01-2.6-.58.01-1.15.02-1.73.02s-1.18,0-1.77-.02h0Zm20.66.5c-1.64.53-3.28,1.03-4.95,1.49-7.78,4.33-16.06,7.78-24.5,10.39-4.13,1.27-8.37,2.32-12.68,3.12-1.63.87-3.28,1.66-4.95,2.38,16.81-2.51,33.26-8.9,47.06-17.36h0Zm-24.75.93c-2.29.76-4.59,1.46-6.88,2.09-2.9.8-5.86,1.5-8.85,2.1,2.35-.03,4.69-.11,7.04-.26,2.12-.55,4.23-1.16,6.32-1.81.8-.7,1.6-1.41,2.37-2.13h0Zm.58,1.16c-.98.33-1.96.65-2.95.96-.56.49-1.13.97-1.7,1.45.71-.07,1.42-.14,2.13-.22.85-.72,1.69-1.45,2.53-2.2h0Zm-4.66,2.42c-1.54.14-3.07.26-4.61.36-1.97.51-3.95.97-5.94,1.39,1.1-.02,2.2-.04,3.29-.08,1.85-.06,3.72-.16,5.59-.3.56-.45,1.12-.91,1.67-1.37h0Zm.42,1.19c-.7.06-1.4.12-2.1.17-4.66,3.73-9.68,7.08-14.95,9.67,1.11-.17,2.22-.36,3.32-.56,2.32-1.24,4.6-2.62,6.82-4.14,2.37-1.62,4.67-3.34,6.9-5.15h0Zm-66.55,4.57c1.57,1.34,3.22,2.59,4.96,3.73,8.84,3.12,18.19,4.52,27.65,4.52,3.89,0,7.79-.24,11.68-.69,1.76-.68,3.5-1.44,5.22-2.29-5.34.82-10.75,1.26-16.13,1.26-11.62,0-23.09-2.02-33.38-6.53h0Zm1.78,2.52c7.92,6.28,16.73,9.03,25.68,9.03,6.84,0,13.76-1.6,20.42-4.47-1.2.18-2.4.34-3.6.48-5.37,2.06-10.94,3.26-16.61,3.26-4.87,0-9.8-.89-14.73-2.9-2.82-1.15-5.49-2.56-7.99-4.2-1.07-.38-2.13-.78-3.18-1.21h0Z" style="fill:#fff;"/></svg>