<?xml version="1.0" encoding="UTF-8"?><svg id="Layer_1" xmlns="http://www.w3.org/2000/svg" viewBox="0 0 314 97"><g><path d="m22.71,49.84h23.04c7.64,0,10.31,2.51,10.31,8.67v7.57c0,6.16-2.68,8.67-10.31,8.67h-23.04v-24.91Zm7.64,18.51h13.55c3.27,0,4.53-.93,4.53-4.47v-3.37c0-3.55-1.28-4.47-4.53-4.47h-13.55v12.3Z" style="fill:#fff;"/><path d="m60.68,49.84h27.24v5.78h-19.61v3.99h18.57v5.16h-18.57v3.99h20.05v5.98h-27.69v-24.9Z" style="fill:#fff;"/><path d="m109.96,49.84h7.64v18.51h17.16v6.4h-24.8v-24.91Z" style="fill:#fff;"/><path d="m149.04,49.84h9.94l13.69,24.91h-8.49l-2.38-4.4h-15.48l-2.23,4.4h-8.52l13.48-24.91Zm.13,15.14h9.77l-4.96-9.36-4.81,9.36Z" style="fill:#fff;"/><path d="m175.38,49.84h23.04c5.88,0,7.46,2.92,7.46,7.39v1.58c0,3.33-.76,5.3-4.27,6.12v.07c2.27.41,4.17,1.41,4.17,5.5v4.23h-7.64v-2.99c0-2.61-.76-3.48-3.13-3.48h-12v6.47h-7.64v-24.9h.01Zm7.64,12.25h12.63c2.07,0,2.82-.82,2.82-2.61v-.82c0-2.2-1.1-2.61-3.51-2.61h-11.94v6.05Z" style="fill:#fff;"/><path d="m211.46,49.84h7.64v24.91h-7.64v-24.91Z" style="fill:#fff;"/><path d="m224.67,49.84h7.64v9.15h3.57l9.62-9.15h10.39l-13.48,12.18,15.06,12.73h-10.8l-11-9.56h-3.37v9.56h-7.64v-24.91h.01Z" style="fill:#fff;"/><path d="m259.88,66.59h7.64c.03,2.65,1.1,2.86,3.3,2.86h9.36c1.62,0,3.27-.17,3.27-2.1,0-2.17-.89-2.3-10.74-2.3-11.49,0-12.79-1.38-12.79-7.5,0-4.5.41-7.98,10.05-7.98h10.66c8.8,0,9.64,2.99,9.64,7.36v.79h-7.64c0-1.82-.21-2.58-3.71-2.58h-8.46c-1.72,0-2.89.59-2.89,1.92,0,2.17.93,2.23,9.11,2.2,11.87-.03,14.62.69,14.62,7.95,0,6.7-2.27,7.8-12.41,7.8h-9.25c-6.95,0-9.74-1.31-9.74-6.7v-1.71h-.01Z" style="fill:#fff;"/></g><g><path d="m22.98,26.83h1.8l5.76,10.44,5.76-10.44h1.8l-6.58,11.87h-1.97l-6.57-11.87Z" style="fill:#fff;"/><path d="m39.14,37.46l10.84-9.31h-10.49v-1.31h13.03v1.14l-10.89,9.41h11.13v1.31h-13.59v-1.24h-.01Z" style="fill:#fff;"/><path d="m53.52,26.83h1.58l4.15,10.38,4.07-10.38h2.07l4.02,10.44,4.2-10.44h1.58l-4.72,11.87h-2.07l-4.03-10.44-4.03,10.44h-2.07l-4.73-11.87Z" style="fill:#fff;"/><path d="m84.75,26.83h10.14c2.46,0,3.15,1.28,3.15,2.65v1.02c0,.86-.48,1.72-1.92,1.87v.07c1.27.07,2.38.54,2.38,2.35v1.41c0,1.66-1.48,2.52-3.45,2.52h-10.3v-11.88h.01Zm11.68,2.56c0-1.08-1.2-1.24-1.69-1.24h-8.38v3.79h8.3c.87,0,1.77-.28,1.77-1.46v-1.09Zm.46,5.56c0-1.48-.82-1.7-2.28-1.7h-8.25v4.15h8.49c1.49,0,2.03-.54,2.03-1.59v-.86Z" style="fill:#fff;"/><path d="m101.35,26.83h11.67v1.31h-10.06v3.79h9.66v1.31h-9.66v4.15h10.12v1.31h-11.74v-11.87Z" style="fill:#fff;"/><path d="m115.23,34.97h1.51v.83c0,1.17.62,1.72,2.62,1.72h4.99c2.33,0,3.02-.49,3.02-2.2,0-1.49-.59-1.87-2.59-1.87h-3.06c-4.9,0-6.51-.3-6.51-3.45,0-2.7,1.61-3.31,4.92-3.31h3.46c3.99,0,4.99,1.02,4.99,3.13v.41h-1.51c-.03-1.89-.23-2.23-4.45-2.23h-1.7c-3.1,0-4.2.17-4.2,2.11,0,1.41.44,1.89,2.96,1.89h4.76c3.13,0,4.45.9,4.45,2.92v.77c0,2.92-2.39,3.13-4.77,3.13h-4.46c-2.35,0-4.41-.41-4.41-3v-.87h-.02Z" style="fill:#fff;"/><path d="m131.4,31.14c0-3,1.02-4.45,4.23-4.45h6.15c2.92,0,3.72,1.37,3.72,2.96v1.01h-1.41v-.54c0-2.02-1.24-2.11-2.72-2.11h-5.58c-1.54,0-2.79.46-2.79,2.52v4.46c0,2.07,1.24,2.52,2.79,2.52h5.62c2.17,0,2.79-.46,2.79-2.07v-.73h1.51v.8c0,2.15-.69,3.31-4.02,3.31h-6.07c-3.21,0-4.23-1.44-4.23-4.45v-3.23h.01Z" style="fill:#fff;"/><path d="m148.3,26.83h1.61v5.1h10.73v-5.1h1.61v11.87h-1.61v-5.46h-10.73v5.46h-1.61v-11.87Z" style="fill:#fff;"/><path d="m165.4,26.83h1.61v8.87c0,1.14.39,1.82,2.58,1.82h5.58c2.18,0,2.58-.68,2.58-1.82v-8.87h1.61v8.89c0,2.41-1.21,3.11-4.23,3.11h-5.48c-3.02,0-4.23-.7-4.23-3.11v-8.89h-.01Z" style="fill:#fff;"/><path d="m187.2,28.14h-6v-1.31h13.61v1.31h-6v10.56h-1.61v-10.56Z" style="fill:#fff;"/><path d="m203.08,26.83h1.58l4.15,10.38,4.07-10.38h2.07l4.02,10.44,4.2-10.44h1.58l-4.72,11.87h-2.07l-4.03-10.44-4.03,10.44h-2.07l-4.73-11.87Z" style="fill:#fff;"/><path d="m226.1,31.14c0-3,1.02-4.45,4.23-4.45h6.84c3.21,0,4.23,1.44,4.23,4.45v3.25c0,3-1.02,4.45-4.23,4.45h-6.84c-3.21,0-4.23-1.44-4.23-4.45v-3.25Zm13.69-.6c0-2.07-1.24-2.52-2.79-2.52h-6.51c-1.54,0-2.79.46-2.79,2.52v4.46c0,2.07,1.24,2.52,2.79,2.52h6.51c1.54,0,2.79-.46,2.79-2.52v-4.46Z" style="fill:#fff;"/><path d="m244.14,26.83h2.39l10.88,10.44v-10.44h1.61v11.87h-2.39l-10.87-10.44v10.44h-1.61v-11.87h-.01Z" style="fill:#fff;"/><path d="m262.07,26.83h11.66v1.31h-10.06v3.79h9.66v1.31h-9.66v4.15h10.12v1.31h-11.73v-11.87Z" style="fill:#fff;"/><path d="m276.14,26.83h2.39l10.88,10.44v-10.44h1.61v11.87h-2.4l-10.87-10.44v10.44h-1.61v-11.87Z" style="fill:#fff;"/></g></svg>