<?xml version="1.0" encoding="UTF-8"?><svg id="Layer_1" xmlns="http://www.w3.org/2000/svg" viewBox="0 0 314 97"><path d="m18.33,48.02h23.79c7.88,0,10.65,2.59,10.65,8.95v7.82c0,6.36-2.77,8.95-10.65,8.95h-23.79v-25.72Zm7.88,19.11h13.99c3.37,0,4.68-.96,4.68-4.61v-3.48c0-3.66-1.32-4.61-4.68-4.61h-13.99v12.7Z" style="fill:#fff;"/><path d="m57.55,48.02h28.13v5.97h-20.24v4.12h19.18v5.32h-19.18v4.12h20.7v6.17h-28.59v-25.71Z" style="fill:#fff;"/><path d="m108.43,48.02h7.88v19.11h17.72v6.61h-25.6v-25.72Z" style="fill:#fff;"/><path d="m148.78,48.02h10.26l14.14,25.72h-8.77l-2.46-4.54h-15.99l-2.31,4.54h-8.8l13.92-25.72Zm.14,15.63h10.09l-5.12-9.66-4.97,9.66Z" style="fill:#fff;"/><path d="m175.98,48.02h23.79c6.07,0,7.7,3.02,7.7,7.63v1.63c0,3.44-.78,5.47-4.41,6.32v.07c2.34.42,4.3,1.46,4.3,5.68v4.37h-7.88v-3.09c0-2.7-.78-3.59-3.24-3.59h-12.39v6.68h-7.88v-25.71h.01Zm7.88,12.65h13.04c2.13,0,2.91-.85,2.91-2.7v-.85c0-2.27-1.14-2.7-3.63-2.7h-12.33v6.24Z" style="fill:#fff;"/><path d="m213.23,48.02h7.88v25.72h-7.88v-25.72Z" style="fill:#fff;"/><path d="m226.88,48.02h7.88v9.44h3.68l9.94-9.44h10.73l-13.92,12.58,15.55,13.14h-11.15l-11.36-9.87h-3.48v9.87h-7.88v-25.72h.01Z" style="fill:#fff;"/><path d="m263.23,65.31h7.88c.03,2.73,1.14,2.95,3.41,2.95h9.66c1.68,0,3.37-.17,3.37-2.17,0-2.24-.92-2.38-11.09-2.38-11.87,0-13.21-1.42-13.21-7.75,0-4.65.42-8.24,10.37-8.24h11.01c9.09,0,9.95,3.09,9.95,7.6v.81h-7.88c0-1.88-.22-2.66-3.83-2.66h-8.73c-1.78,0-2.98.61-2.98,1.99,0,2.24.96,2.31,9.41,2.27,12.26-.03,15.09.71,15.09,8.21,0,6.92-2.34,8.06-12.82,8.06h-9.55c-7.17,0-10.05-1.35-10.05-6.92v-1.77h-.01Z" style="fill:#fff;"/><g id="Layer_2"><path d="m23.6,25.42h1.69l5.27,9.48h-1.74l-1.22-2.33h-6.4l-1.22,2.33h-1.56l5.19-9.48Zm3.35,5.93l-2.55-4.84-2.55,4.84h5.1Z" style="fill:#fff;"/><path d="m34.54,26.71v2.64h5.97c1.72,0,2.2.53,2.2,2.24v1.07c0,1.74-.49,2.24-2.2,2.24h-5.53c-1.71,0-2.23-.49-2.23-2.24v-.25l1.47-.34v1.53h7.05v-2.85h-5.94c-1.69,0-2.2-.48-2.2-2.24v-.83c0-1.77.52-2.24,2.2-2.24h5.05c1.58,0,2.23.44,2.23,2.08v.21l-1.35.39v-1.38h-6.7v-.02Z" style="fill:#fff;"/><path d="m47.05,25.42h7.64c1.38,0,2,.52,2,1.84v1.1c0,.79-.25,1.45-1.58,1.62,1.07.13,1.63.77,1.63,1.86v1.22c0,1.26-.88,1.86-2.63,1.86h-7.07v-9.49h.01Zm8.02,2.09c0-.68-.3-.83-.98-.83h-5.47v2.63h5.47c.68,0,.98-.18.98-.85v-.95Zm.07,4.18c0-.88-.28-1.14-1.04-1.14h-5.47v3.05h5.47c.79,0,1.04-.25,1.04-1.12v-.79Z" style="fill:#fff;"/><path d="m60.65,25.42h1.58v8.15h7.18v1.32h-8.76v-9.47h-.01Z" style="fill:#fff;"/><path d="m78.58,25.42h1.58v3.88h7.47v-3.88h1.58v9.48h-1.58v-4.29h-7.47v4.29h-1.58v-9.48Z" style="fill:#fff;"/><path d="m97,25.42h1.69l5.27,9.48h-1.74l-1.22-2.33h-6.4l-1.22,2.33h-1.56l5.19-9.48Zm3.36,5.93l-2.55-4.84-2.55,4.84h5.1Z" style="fill:#fff;"/><path d="m106.57,25.42h7.64c1.38,0,2,.52,2,1.84v1.1c0,.79-.25,1.45-1.58,1.62,1.07.13,1.63.77,1.63,1.86v1.22c0,1.26-.88,1.86-2.63,1.86h-7.07v-9.49h.01Zm8.02,2.09c0-.68-.3-.83-.98-.83h-5.47v2.63h5.47c.68,0,.98-.18.98-.85v-.95Zm.07,4.18c0-.88-.28-1.14-1.04-1.14h-5.47v3.05h5.47c.79,0,1.04-.25,1.04-1.12v-.79Z" style="fill:#fff;"/><path d="m120.17,25.42h1.58v9.48h-1.58v-9.48Z" style="fill:#fff;"/><path d="m129.89,34.9h-1.58v-8.19h-4.34v-1.29h10.26v1.29h-4.35v8.19h.01Z" style="fill:#fff;"/><path d="m138.41,25.42h1.69l5.27,9.48h-1.74l-1.22-2.33h-6.4l-1.22,2.33h-1.56l5.19-9.48Zm3.36,5.93l-2.55-4.84-2.55,4.84h5.1Z" style="fill:#fff;"/><path d="m150.29,34.9h-1.58v-8.19h-4.34v-1.29h10.26v1.29h-4.35v8.19h.01Z" style="fill:#fff;"/><path d="m156.84,25.42h1.58v9.48h-1.58v-9.48Z" style="fill:#fff;"/><path d="m164.98,25.42h6.55c1.71,0,2.2.49,2.2,2.24v4.99c0,1.74-.49,2.24-2.2,2.24h-6.55c-1.69,0-2.23-.48-2.23-2.24v-4.99c0-1.76.53-2.24,2.23-2.24Zm7.2,8.15v-6.86h-7.84v6.86h7.84Z" style="fill:#fff;"/><path d="m178.08,25.42h.99l7.09,6.33c.33.3.7.7,1.08,1.19-.15-.88-.15-1.65-.15-2.33v-5.2h1.45v9.48h-.88l-7.29-6.59c-.28-.25-.64-.53-.95-1.07.09.7.11,1.38.11,2.08v5.58h-1.45v-9.48Z" style="fill:#fff;"/><path d="m199.42,25.42h7.64c1.38,0,2,.52,2,1.84v2.11c0,1.32-.62,1.84-2,1.84h-6.06v3.7h-1.58v-9.48Zm1.58,1.23v3.31h5.44c.7,0,1.03-.18,1.03-.99v-1.32c0-.79-.31-.99-1.03-.99h-5.44Z" style="fill:#fff;"/><path d="m212.48,25.42h7.64c1.38,0,2,.52,2,1.84v2.11c0,1.32-.62,1.84-2,1.84h-1.39l4.34,3.7h-2.35l-3.86-3.7h-2.79v3.7h-1.58v-9.48h-.01Zm1.57,1.23v3.33h5.44c.7,0,1.03-.16,1.03-.98v-1.38c0-.79-.33-.98-1.03-.98h-5.44Z" style="fill:#fff;"/><path d="m228.09,25.42h6.55c1.71,0,2.2.49,2.2,2.24v4.99c0,1.74-.49,2.24-2.2,2.24h-6.55c-1.69,0-2.23-.48-2.23-2.24v-4.99c.01-1.76.54-2.24,2.23-2.24Zm7.21,8.15v-6.86h-7.84v6.86h7.84Z" style="fill:#fff;"/><path d="m244.88,34.9h-1.58v-8.19h-4.34v-1.29h10.26v1.29h-4.35v8.19h.01Z" style="fill:#fff;"/><path d="m250.77,27.11h7.84v1.16h-6.37v2h3.83v1.16h-3.83v2.33h6.45v1.14h-7.92v-7.78Zm4.71-4.11h1.6l-2.51,3.12h-.95l1.87-3.12Z" style="fill:#fff;"/><path d="m263.1,26.71v6.86h7.41v-2.78h-3.83v-1.22h5.42v3.06c0,1.74-.52,2.24-2.23,2.24h-6.13c-1.69,0-2.23-.48-2.23-2.24v-4.99c0-1.77.53-2.24,2.23-2.24h6.13c1.63,0,2.23.46,2.23,2.13v.24l-1.58.31v-1.4h-7.41Z" style="fill:#fff;"/><path d="m275.53,27.11h7.84v1.16h-6.37v2h3.83v1.16h-3.83v2.33h6.45v1.14h-7.92v-7.78Zm4.71-4.11h1.6l-2.51,3.12h-.95l1.87-3.12Z" style="fill:#fff;"/><path d="m286.39,25.42h9.12v1.26h-7.55v2.64h4.61v1.25h-4.61v3.01h7.62v1.31h-9.2v-9.47h.01Z" style="fill:#fff;"/></g></svg>