<?xml version="1.0" encoding="UTF-8"?><svg id="Layer_1" xmlns="http://www.w3.org/2000/svg" viewBox="0 0 376 348"><g><path d="M204.34,75.85c-55.91-15.97-114.47,82.53-95.84,130.45,39.93,90.51,204.99-13.31,183.69-90.51-21.3-74.54-127.79,37.27-111.81,77.2,31.95,77.2,167.72-85.19,82.53-130.45-79.87-42.59-138.43,138.43-42.59,125.12,71.88-13.31,53.24-204.98-53.24-74.54-74.54,87.85,10.65,154.41,58.56,50.58C297.52,6.63,60.59,137.08,124.48,216.94c63.89,82.53,178.36-119.8,103.82-157.06-101.16-50.58-141.09,210.31-21.3,149.08,34.61-15.97,61.23-117.13,50.58-146.42-23.96-55.91-74.54-15.97-101.16,18.63-85.19,122.47,106.49,202.33,127.78,47.93C305.5-19.98,73.89,57.22,89.87,163.71c21.29,119.8,236.93,37.27,159.73-61.23-55.91-71.88-173.04,31.94-82.53,87.85,106.48,69.21,183.69-103.82,55.9-109.15-50.58-2.66-143.75,39.93-125.12,106.49,23.96,71.88,130.44,47.92,159.73-5.33C361.4-1.35-35.25,83.84,111.16,198.31c42.59,34.61,141.09,31.95,165.05-26.62,31.95-74.54-53.24-103.82-111.81-87.85-189,47.92,106.49,130.44,109.15,45.26,2.66-82.53-231.6,18.64-95.84,69.21,39.93,13.31,122.46-23.96,119.8-74.54-2.66-69.22-127.78-42.6-162.39-13.31C-.64,227.6,396.01,174.35,254.92,105.14c-29.29-15.97-165.05-5.33-141.09,42.6,15.97,34.61,141.09,15.97,151.74-13.31-29.28-23.96-130.44-37.27-151.74,2.66,18.64,23.96,125.12,31.95,130.44-7.98,7.98-42.59-109.15-18.63-119.8,13.31,5.32,7.99,4.64,16.07,15.28,21.39" style="fill:none;"/><path d="M204.5,75.42c-35.53-9.76-66.21,22.97-82.22,50.61-16.26,28.07-27.6,67.2-5.52,95.18,18.52,23.48,50.52,23.96,76.93,16.07,31.08-9.27,59.86-29.55,79.9-54.94,17.03-21.57,29.15-52.33,14.39-78.33-13.78-24.27-42.66-11.05-59.62,1.77-12.35,9.33-23.06,20.97-32.03,33.56-7.76,10.9-14.63,23.22-17.33,36.44-4.01,19.58,10.45,39.96,31.32,38.13,10.73-.94,20.75-6.68,29.25-12.95,10.84-7.98,20.12-18.19,27.98-29.06,15.04-20.79,27.33-48.27,22.59-74.46-4.41-24.39-28.82-43.09-53.53-41.95-24.64,1.14-43.63,21.02-54.35,41.69-10.54,20.31-17.19,47-8.22,69.09,8.65,21.32,35.07,27.75,55.21,19.26,20.36-8.57,30.27-31.83,33.46-52.29,2.96-19.02,1.46-43.89-13.12-58.24-17.58-17.27-42.72-1.7-57.6,11.09-17.15,14.73-32.95,33.36-43.67,53.25-8.06,14.96-13.36,32.62-10.3,49.67,2.04,11.39,8.84,21.89,19.86,26.23,12.02,4.73,25.17-.06,35.16-7.11,17.12-12.09,27.9-31.87,35.95-50.69,5.48-12.82,10.41-26.71,10.88-40.79,.25-7.58-1.25-15.75-6.87-21.24-4.99-4.87-12.24-6.2-18.97-6-20.1,.59-39.85,12.27-55.43,24.05-18.05,13.64-34.68,31.82-42.28,53.47-7.58,21.57-1.54,42.95,15.06,58.45,17.73,16.54,40.79,13.39,59.59,.55,23.15-15.81,39.67-41.6,50.42-67.02,9.76-23.09,16.95-51.9,7.84-76.33-7.71-20.71-31.05-32.01-52.42-29.45-21.03,2.52-36.69,19.49-46.56,37-11.47,20.36-17.36,44.32-17.61,67.62-.2,18.49,3.38,40.34,18.18,53.04,16.78,14.4,41.85,7.17,59-2.64,12.79-7.32,20.98-22.07,27.29-34.81,8.6-17.37,14.53-36.14,18.71-55.04,3.44-15.54,6.15-32.24,4.12-48.17-1.96-15.35-13.89-31.62-29.35-35.27-16.46-3.89-33.32,6.49-45.68,16.16-15.39,12.04-28.71,27.29-38,44.48-13.2,24.43-17.9,53.93-5.02,79.47,10.33,20.5,30.73,34.75,53.16,38.78,23.71,4.26,47.99-4.41,63.97-22.35,10.48-11.76,17.2-26.15,21.47-41.22,4.55-16.07,6.86-33.44,5.14-50.12-2.4-23.21-15.59-42.54-37.93-50.33-22.88-7.98-48.95-3.76-71.25,4.07-25.15,8.83-48.77,24.01-66.04,44.44-16.17,19.12-25.79,44.28-20.4,69.37,5.62,26.17,23.82,46.06,49.68,53.11,25.02,6.83,52.68,1.96,75.83-8.86,21.78-10.17,42.45-27.74,49.25-51.58,7.6-26.64-7.17-56.02-28.61-71.86-24.62-18.2-57.99-12.05-80.2,6.88-21.84,18.61-30.3,49.09-13.35,73.79,10.16,14.8,27.25,25.37,43.63,32.01,13.48,5.46,28.26,7.54,42.66,5.19,24.54-4.01,45.26-21.59,55.3-44.02,9.19-20.53,8.17-45.59-8.08-62.28-21.36-21.94-58.16-22.34-85.98-16.12-33.57,7.5-72.02,26.49-88.31,58.48-15.89,31.2-2.52,69.26,29.13,84.06,30.37,14.2,68.63,5.25,95.84-11.88,24.56-15.46,40.78-42.08,47.01-70.21,3.77-16.98,2.23-35.09-9.94-48.39-11.39-12.46-28.73-17.81-44.98-19.98-20.1-2.68-40.85-.64-60.49,4.07-19.03,4.56-37.82,12-53.79,23.45-12.66,9.08-24.1,21.78-26.52,37.69-2.78,18.29,8.28,34.91,20.67,47.19,10.65,10.55,22.85,18.98,36.85,24.43,17.25,6.71,36.16,9.2,54.59,8.57,34.48-1.17,72.36-15.58,86.56-49.45,6.94-16.56,9.95-34.94,2.67-51.91-6.2-14.44-19.24-24.56-33.15-31.01-33.66-15.61-71.09-10.61-105,1.02-11.41,3.91-23.39,8.73-32.55,16.82-4.79,4.23-8.6,9.96-8.01,16.58,1.36,15.36,22.14,24.45,34.21,29.35,21.78,8.84,45.8,13.23,69.24,13.87,19.34,.53,42.34-1.14,58.11-13.69,12.94-10.29,16.56-31.3,5.54-44.37-12.46-14.78-37.24-12.45-54-9.03-22.54,4.59-45.49,14.62-62.73,30.07-12.89,11.56-22.3,28.85-11.3,44.93,7.1,10.38,19.37,16.75,30.6,21.6,15.65,6.76,31.84,6.58,48.32,2.93,32.35-7.15,72.32-29.51,78.87-65.03,2.49-13.52-1.07-28.43-10.72-38.4-9.28-9.59-22.93-13.62-35.79-15.35-31.5-4.24-66.04,3.57-94.7,16.59-11.93,5.42-21.88,12.58-31.17,21.77-6.65,6.58-13.04,13.94-16.94,22.53-14.86,32.76,35.3,38.36,55.93,38.82,20.39,.45,40.95-1.87,60.85-6.29,16.64-3.7,34.12-8.85,48.28-18.68,8.88-6.16,16.5-15.95,11.25-26.99-3.13-6.6-9.36-11.52-15.27-15.51-8.49-5.73-17.61-10.34-27.67-12.39-13.96-2.85-28.56-2.95-42.74-2.34-16.35,.71-32.76,2.91-48.56,7.23-18.93,5.18-49.15,18.31-37.14,43,4.95,10.17,16.85,14.28,27.15,16.56,15.89,3.51,32.71,3.06,48.8,1.43,16.6-1.68,33.22-5.11,48.87-10.95,9.56-3.57,22.45-8.9,27.4-18.62,.3-.59,.56-1.18,.8-1.79,.12-.3-.01-.61-.25-.8-9.54-7.67-21.61-12.02-33.22-15.39-15.29-4.43-31.23-6.79-47.13-7.41-24.12-.94-59.16,1.63-72.36,25.62-.16,.29-.17,.59,.04,.85,7.54,9.4,21.4,13.23,32.57,15.9,15.98,3.82,32.71,5.03,49.09,3.94,13.83-.92,29.16-3.62,40.43-12.28,7.75-5.96,12.69-17.33,8.55-26.79-4.17-9.52-16.95-11.83-26.08-12.58-15.11-1.25-30.66,1.45-45.18,5.47-13.6,3.77-27.47,9.19-38.65,17.99-3.93,3.1-7.49,6.87-9.6,11.46-1.39,3.03,1.7,6.02,2.93,8.87,1.78,4.14,3.49,8.55,7.05,11.54,1.56,1.31,3.17,2.36,4.97,3.32,.78,.42,1.58-.71,.79-1.13-5.69-3.07-8.64-7.4-11.09-13.21-.98-2.32-1.99-4.58-3.24-6.77-.91-1.59,.29-3.06,1.15-4.5,3.16-5.24,8.38-9.18,13.45-12.44,13.15-8.45,28.7-13.38,43.9-16.54,17.03-3.54,69.57-8.84,58.14,23.74-4.71,13.42-21.59,18.43-34.05,20.77-16.92,3.19-34.68,2.55-51.62-.13-13.47-2.12-29.24-5.61-39.85-14.8-.42-.36-2.48-2-2.15-2.61,.79-1.44,1.75-2.79,2.75-4.1,2.36-3.08,5.35-5.63,8.52-7.85,6.9-4.84,15.16-7.6,23.3-9.48,18.52-4.28,38.18-3.62,56.89-1.03,17.33,2.4,35.22,6.77,50.67,15.22,2.7,1.47,5.27,3.15,7.7,5.04,.81,.63-3.39,5.37-3.89,5.9-4.23,4.4-9.83,7.43-15.28,10.02-14.99,7.11-31.7,10.78-48.04,13.13-17.03,2.45-34.65,3.2-51.7,.58-12.19-1.88-26.33-5.95-31.88-18.06-13-28.32,33.2-39.64,51.66-43.14,16.35-3.11,33.12-4.35,49.76-4.02,12.28,.24,25.77,.91,37.24,5.76,11.74,4.96,33.54,16.31,32.57,31.92-.82,13.07-17.29,20.99-27.53,25.47-18.02,7.88-37.76,12.02-57.19,14.5-19.49,2.48-39.66,3.22-59.11-.02-11.83-1.97-28.91-6.13-33.35-19.04-5.57-16.23,13.63-33.82,23.91-43.18,10.25-9.33,22.44-15.49,35.31-20.43,15.93-6.12,32.75-10.12,49.68-12.1,27.36-3.2,68.69-1.49,78.28,30.56,11.9,39.81-30.12,69.72-62.31,81.22-16.77,5.99-36.54,9.59-53.97,4.35-13.13-3.95-27.74-11.62-36.53-22.41-14.11-17.33-.76-36.6,13.67-48.27,18.6-15.04,42.85-24.57,66.43-27.85,17.58-2.45,43.46-1.32,49.42,19.36,2.54,8.82,1.13,18.94-4.07,26.51-5.13,7.46-13.54,11.96-21.9,14.85-21.81,7.55-46.84,6.09-69.26,2.5-21.22-3.4-44.23-9.43-61.93-22.16-5.58-4.01-11.39-9.52-12.53-16.63-1.21-7.57,4.51-13.85,10.01-18.14,11.1-8.64,25.38-13.39,38.65-17.43,18.51-5.63,36.95-9.04,56.37-7.65,34.56,2.46,75.46,21.2,75.45,61.06-.01,19.83-9.33,40.39-23.8,53.8-13.99,12.96-32.81,19.81-51.35,22.9-36.15,6.03-74.97-1.9-102.81-26.33-14.2-12.46-27.73-29.89-25.38-49.9,1.96-16.72,14.78-29.83,27.99-39,16.72-11.61,36.54-18.78,56.33-23.04,19.85-4.28,40.77-5.64,60.84-2.08,16.56,2.94,33.85,10.09,43.27,24.77,11.1,17.28,6.96,39.26-.01,57.24-5.7,14.71-13.37,29.04-24.67,40.19-12.78,12.6-29.21,21.42-46.27,26.68-33.25,10.25-74.22,5.58-92.89-27.23-9.7-17.05-10.03-37.4-1.73-55.03,8.27-17.57,24.1-30.83,40.46-40.6,31-18.52,70.84-28.54,106.27-18.24,13.14,3.82,25.34,11.34,32.78,23.05,6.3,9.92,8.19,21.92,6.89,33.46-2.85,25.32-20.95,47.94-44.03,58.03-31.56,13.8-68.78,.21-92.58-22.46-11.94-11.37-18.97-26.88-17-43.48,1.78-14.99,10.74-28.37,21.9-38.12,11.56-10.09,26.38-16.5,41.71-17.56,17.25-1.19,33.51,5.96,45.47,18.19,20.07,20.52,28.43,50.56,13.98,76.47-12.93,23.18-38.45,37.97-63.37,44.85-25.18,6.95-54.52,6.41-76.65-8.85-23.2-16-32.65-47.1-25.99-73.89,6.46-25.98,26.17-46.93,47.71-61.68,22.26-15.24,49.08-25.48,76.14-26.88,23.27-1.2,47.95,5.93,60.47,26.99,7.08,11.91,9.02,26.17,8.7,39.8-.42,18.29-4.46,37.07-11.95,53.77-11.35,25.3-33.7,44.41-62.04,46.05-24.22,1.4-48.23-10.57-62.46-30.03-17.49-23.92-15.71-54.82-3.88-80.76,8.49-18.61,21.8-34.43,37.25-47.69,13.63-11.7,33.28-24.43,51.97-18.02,10.48,3.6,17.29,13.39,21.91,22.91,3.14,6.47,3.61,13.7,3.61,20.8,0,18.41-4.03,36.99-9.09,54.6-5.33,18.55-12.52,37.08-23.18,53.25-4.2,6.38-9.18,12.41-15.38,16.93-5.58,4.06-12.65,6.75-19.15,8.94-10.25,3.46-21.7,4.81-32,.81-8.65-3.35-14.98-10.51-19.11-18.62-10.05-19.74-8.96-44.56-4.76-65.67,4.55-22.85,14.41-46.52,31.75-62.62,17.32-16.09,40.77-18.37,61.4-7,23.46,12.93,24.52,43.08,20.05,66.33-5.62,29.21-20.31,57.63-40.04,79.78-15.59,17.5-40.2,35.6-64.67,25.63-22.33-9.1-34.71-34.95-30-57.96,4.72-23.06,21.92-42.72,39.59-57.27,16.04-13.2,36.6-25.78,57.83-27.33,7.46-.54,15.5,.93,20.7,6.71,6.18,6.87,6.08,17.35,4.96,25.93-2.28,17.52-9.87,34.99-18.17,50.4-9.13,16.94-22.76,34.95-41.94,40.9-12.74,3.95-25.87-.3-33.4-11.36-9.48-13.93-7.22-32.91-2.14-47.96,7.81-23.15,24.53-43.13,41.52-60.21,10.8-10.85,23.81-21.94,39.06-25.62,22.67-5.47,35.12,15.04,38.42,34.47,3.82,22.51-.95,48.7-15.23,66.88-14.62,18.62-46.04,24.56-63.8,6.68-17.24-17.35-12.23-47.8-4.43-68.22,8.86-23.19,27.1-47.46,53.03-51.92,27.32-4.7,54.54,16.44,58.33,43.35,3.9,27.76-11.2,56.62-28.05,77.56-8.54,10.61-18.71,20.23-30.47,27.2-8.98,5.32-19.97,9.37-30.47,6.81-10.39-2.54-18.5-12.84-20.66-23.04-2.63-12.42,3.75-26.14,9.6-36.69,7.73-13.93,18.09-26.52,29.74-37.35,10.47-9.74,22.92-18.88,36.96-22.53,12.5-3.24,24.08,.77,30.78,12.01,7.65,12.84,7.97,28.72,4.06,42.79-8.84,31.82-36.45,57.4-63.93,73.8-25.79,15.4-60.83,27.36-90.01,14.44-14.11-6.25-25.61-19.66-29.64-34.55-4.78-17.67-.28-37.25,6.05-53.92,7.28-19.18,18.78-36.91,33.48-51.22,12.87-12.53,30.12-22.38,48.58-21.14,2.94,.2,5.84,.78,8.67,1.56,.55,.11,.88-.76,.3-.92h0Z" style="fill:#bcbe00;"/></g><g><path d="M67.17,285.34h20.73c6.87,0,9.28,2.26,9.28,7.8v6.81c0,5.54-2.41,7.8-9.28,7.8h-20.73v-22.41Zm6.87,16.65h12.19c2.94,0,4.08-.84,4.08-4.02v-3.03c0-3.19-1.15-4.02-4.08-4.02h-12.19v11.07Z" style="fill:#bcbe00;"/><path d="M101.34,285.34h24.51v5.2h-17.64v3.59h16.71v4.64h-16.71v3.59h18.04v5.38h-24.91v-22.4Z" style="fill:#bcbe00;"/><path d="M145.68,285.34h6.87v16.65h15.44v5.76h-22.31v-22.41Z" style="fill:#bcbe00;"/><path d="M180.84,285.34h8.94l12.32,22.41h-7.64l-2.14-3.96h-13.93l-2.01,3.96h-7.67l12.13-22.41Zm.12,13.62h8.79l-4.46-8.42-4.33,8.42Z" style="fill:#bcbe00;"/><path d="M204.54,285.34h20.73c5.29,0,6.71,2.63,6.71,6.65v1.42c0,3-.68,4.77-3.84,5.51v.06c2.04,.37,3.75,1.27,3.75,4.95v3.81h-6.87v-2.69c0-2.35-.68-3.13-2.82-3.13h-10.8v5.82h-6.87v-22.4h0Zm6.87,11.02h11.36c1.86,0,2.54-.74,2.54-2.35v-.74c0-1.98-.99-2.35-3.16-2.35h-10.74v5.44Z" style="fill:#bcbe00;"/><path d="M237,285.34h6.87v22.41h-6.87v-22.41Z" style="fill:#bcbe00;"/><path d="M248.89,285.34h6.87v8.23h3.21l8.66-8.23h9.35l-12.13,10.96,13.55,11.45h-9.72l-9.9-8.6h-3.03v8.6h-6.87v-22.41h.01Z" style="fill:#bcbe00;"/><path d="M280.57,300.41h6.87c.03,2.38,.99,2.57,2.97,2.57h8.42c1.46,0,2.94-.15,2.94-1.89,0-1.95-.8-2.07-9.66-2.07-10.34,0-11.51-1.24-11.51-6.75,0-4.05,.37-7.18,9.04-7.18h9.59c7.92,0,8.67,2.69,8.67,6.62v.71h-6.87c0-1.64-.19-2.32-3.34-2.32h-7.61c-1.55,0-2.6,.53-2.6,1.73,0,1.95,.84,2.01,8.2,1.98,10.68-.03,13.15,.62,13.15,7.15,0,6.03-2.04,7.02-11.17,7.02h-8.32c-6.25,0-8.76-1.18-8.76-6.03v-1.54h-.01Z" style="fill:#bcbe00;"/></g><g id="Layer_2"><g><path d="M71.76,265.65h1.47l4.59,8.26h-1.52l-1.06-2.03h-5.58l-1.06,2.03h-1.36l4.52-8.26Zm2.92,5.17l-2.22-4.22-2.22,4.22h4.44Z" style="fill:#003652;"/><path d="M81.29,266.77v2.3h5.2c1.5,0,1.92,.46,1.92,1.95v.93c0,1.52-.43,1.95-1.92,1.95h-4.82c-1.49,0-1.94-.43-1.94-1.95v-.22l1.28-.3v1.33h6.14v-2.48h-5.18c-1.47,0-1.92-.42-1.92-1.95v-.72c0-1.54,.45-1.95,1.92-1.95h4.4c1.38,0,1.94,.38,1.94,1.81v.18l-1.18,.34v-1.2h-5.84v-.02Z" style="fill:#003652;"/><path d="M92.19,265.65h6.66c1.2,0,1.74,.45,1.74,1.6v.96c0,.69-.22,1.26-1.38,1.41,.93,.11,1.42,.67,1.42,1.62v1.06c0,1.1-.77,1.62-2.29,1.62h-6.16v-8.27h0Zm6.99,1.82c0-.59-.26-.72-.85-.72h-4.77v2.29h4.77c.59,0,.85-.16,.85-.74v-.83Zm.06,3.64c0-.77-.24-.99-.91-.99h-4.77v2.66h4.77c.69,0,.91-.22,.91-.98v-.69Z" style="fill:#003652;"/><path d="M104.04,265.65h1.38v7.1h6.26v1.15h-7.63v-8.25h0Z" style="fill:#003652;"/><path d="M119.67,265.65h1.38v3.38h6.51v-3.38h1.38v8.26h-1.38v-3.74h-6.51v3.74h-1.38v-8.26Z" style="fill:#003652;"/><path d="M135.72,265.65h1.47l4.59,8.26h-1.52l-1.06-2.03h-5.58l-1.06,2.03h-1.36l4.52-8.26Zm2.93,5.17l-2.22-4.22-2.22,4.22h4.44Z" style="fill:#003652;"/><path d="M144.06,265.65h6.66c1.2,0,1.74,.45,1.74,1.6v.96c0,.69-.22,1.26-1.38,1.41,.93,.11,1.42,.67,1.42,1.62v1.06c0,1.1-.77,1.62-2.29,1.62h-6.16v-8.27h0Zm6.99,1.82c0-.59-.26-.72-.85-.72h-4.77v2.29h4.77c.59,0,.85-.16,.85-.74v-.83Zm.06,3.64c0-.77-.24-.99-.91-.99h-4.77v2.66h4.77c.69,0,.91-.22,.91-.98v-.69Z" style="fill:#003652;"/><path d="M155.91,265.65h1.38v8.26h-1.38v-8.26Z" style="fill:#003652;"/><path d="M164.38,273.91h-1.38v-7.14h-3.78v-1.12h8.94v1.12h-3.79v7.14h0Z" style="fill:#003652;"/><path d="M171.8,265.65h1.47l4.59,8.26h-1.52l-1.06-2.03h-5.58l-1.06,2.03h-1.36l4.52-8.26Zm2.93,5.17l-2.22-4.22-2.22,4.22h4.44Z" style="fill:#003652;"/><path d="M182.15,273.91h-1.38v-7.14h-3.78v-1.12h8.94v1.12h-3.79v7.14h.01Z" style="fill:#003652;"/><path d="M187.86,265.65h1.38v8.26h-1.38v-8.26Z" style="fill:#003652;"/><path d="M194.95,265.65h5.71c1.49,0,1.92,.43,1.92,1.95v4.35c0,1.52-.43,1.95-1.92,1.95h-5.71c-1.47,0-1.94-.42-1.94-1.95v-4.35c0-1.53,.46-1.95,1.94-1.95Zm6.27,7.1v-5.98h-6.83v5.98h6.83Z" style="fill:#003652;"/><path d="M206.37,265.65h.86l6.18,5.52c.29,.26,.61,.61,.94,1.04-.13-.77-.13-1.44-.13-2.03v-4.53h1.26v8.26h-.77l-6.35-5.74c-.24-.22-.56-.46-.83-.93,.08,.61,.1,1.2,.1,1.81v4.86h-1.26v-8.26Z" style="fill:#003652;"/><path d="M224.96,265.65h6.66c1.2,0,1.74,.45,1.74,1.6v1.84c0,1.15-.54,1.6-1.74,1.6h-5.28v3.22h-1.38v-8.26Zm1.38,1.07v2.88h4.74c.61,0,.9-.16,.9-.86v-1.15c0-.69-.27-.86-.9-.86h-4.74Z" style="fill:#003652;"/><path d="M236.34,265.65h6.66c1.2,0,1.74,.45,1.74,1.6v1.84c0,1.15-.54,1.6-1.74,1.6h-1.21l3.78,3.22h-2.05l-3.36-3.22h-2.43v3.22h-1.38v-8.26h-.01Zm1.37,1.07v2.9h4.74c.61,0,.9-.14,.9-.85v-1.2c0-.69-.29-.85-.9-.85h-4.74Z" style="fill:#003652;"/><path d="M249.95,265.65h5.71c1.49,0,1.92,.43,1.92,1.95v4.35c0,1.52-.43,1.95-1.92,1.95h-5.71c-1.47,0-1.94-.42-1.94-1.95v-4.35c.01-1.53,.47-1.95,1.94-1.95Zm6.28,7.1v-5.98h-6.83v5.98h6.83Z" style="fill:#003652;"/><path d="M264.58,273.91h-1.38v-7.14h-3.78v-1.12h8.94v1.12h-3.79v7.14h.01Z" style="fill:#003652;"/><path d="M269.71,267.12h6.83v1.01h-5.55v1.74h3.34v1.01h-3.34v2.03h5.62v.99h-6.9v-6.78Zm4.1-3.58h1.39l-2.19,2.72h-.83l1.63-2.72Z" style="fill:#003652;"/><path d="M280.45,266.77v5.98h6.46v-2.42h-3.34v-1.06h4.72v2.67c0,1.52-.45,1.95-1.94,1.95h-5.34c-1.47,0-1.94-.42-1.94-1.95v-4.35c0-1.54,.46-1.95,1.94-1.95h5.34c1.42,0,1.94,.4,1.94,1.86v.21l-1.38,.27v-1.22h-6.46Z" style="fill:#003652;"/><path d="M291.28,267.12h6.83v1.01h-5.55v1.74h3.34v1.01h-3.34v2.03h5.62v.99h-6.9v-6.78Zm4.1-3.58h1.39l-2.19,2.72h-.83l1.63-2.72Z" style="fill:#003652;"/><path d="M300.75,265.65h7.95v1.1h-6.58v2.3h4.02v1.09h-4.02v2.62h6.64v1.14h-8.02v-8.25h0Z" style="fill:#003652;"/></g></g></svg>