<?xml version="1.0" encoding="UTF-8"?><svg id="Layer_1" xmlns="http://www.w3.org/2000/svg" viewBox="0 0 376 348"><g><path d="M204.34,76.07c-55.91-15.97-114.47,82.53-95.84,130.45,39.93,90.51,204.99-13.31,183.69-90.51-21.3-74.54-127.79,37.27-111.81,77.2,31.95,77.2,167.72-85.19,82.53-130.45-79.87-42.59-138.43,138.43-42.59,125.12,71.88-13.31,53.24-204.98-53.24-74.54-74.54,87.85,10.65,154.41,58.56,50.58C297.52,6.85,60.59,137.3,124.48,217.16c63.89,82.53,178.36-119.8,103.82-157.06-101.16-50.58-141.09,210.31-21.3,149.08,34.61-15.97,61.23-117.13,50.58-146.42-23.96-55.91-74.54-15.97-101.16,18.63-85.19,122.47,106.49,202.33,127.78,47.93C305.5-19.76,73.89,57.44,89.87,163.93c21.29,119.8,236.93,37.27,159.73-61.23-55.91-71.88-173.04,31.94-82.53,87.85,106.48,69.21,183.69-103.82,55.9-109.15-50.58-2.66-143.75,39.93-125.12,106.49,23.96,71.88,130.44,47.92,159.73-5.33C361.4-1.13-35.25,84.06,111.16,198.53c42.59,34.61,141.09,31.95,165.05-26.62,31.95-74.54-53.24-103.82-111.81-87.85-189,47.92,106.49,130.44,109.15,45.26,2.66-82.53-231.6,18.64-95.84,69.21,39.93,13.31,122.46-23.96,119.8-74.54-2.66-69.22-127.78-42.6-162.39-13.31C-.64,227.82,396.01,174.57,254.92,105.36c-29.29-15.97-165.05-5.33-141.09,42.6,15.97,34.61,141.09,15.97,151.74-13.31-29.28-23.96-130.44-37.27-151.74,2.66,18.64,23.96,125.12,31.95,130.44-7.98,7.98-42.59-109.15-18.63-119.8,13.31,5.32,7.99,4.64,16.07,15.28,21.39" style="fill:none;"/><path d="M204.5,75.64c-35.53-9.76-66.21,22.97-82.22,50.61-16.26,28.07-27.6,67.2-5.52,95.18,18.52,23.48,50.52,23.96,76.93,16.07,31.08-9.27,59.86-29.55,79.9-54.94,17.03-21.57,29.15-52.33,14.39-78.33-13.78-24.27-42.66-11.05-59.62,1.77-12.35,9.33-23.06,20.97-32.03,33.56-7.76,10.9-14.63,23.22-17.33,36.44-4.01,19.58,10.45,39.96,31.32,38.13,10.73-.94,20.75-6.68,29.25-12.95,10.84-7.98,20.12-18.19,27.98-29.06,15.04-20.79,27.33-48.27,22.59-74.46-4.41-24.39-28.82-43.09-53.53-41.95-24.64,1.14-43.63,21.02-54.35,41.69-10.54,20.31-17.19,47-8.22,69.09,8.65,21.32,35.07,27.75,55.21,19.26,20.36-8.57,30.27-31.83,33.46-52.29,2.96-19.02,1.46-43.89-13.12-58.24-17.58-17.27-42.72-1.7-57.6,11.09-17.15,14.73-32.95,33.36-43.67,53.25-8.06,14.96-13.36,32.62-10.3,49.67,2.04,11.39,8.84,21.89,19.86,26.23,12.02,4.73,25.17-.06,35.16-7.11,17.12-12.09,27.9-31.87,35.95-50.69,5.48-12.82,10.41-26.71,10.88-40.79,.25-7.58-1.25-15.75-6.87-21.24-4.99-4.87-12.24-6.2-18.97-6-20.1,.59-39.85,12.27-55.43,24.05-18.05,13.64-34.68,31.82-42.28,53.47-7.58,21.57-1.54,42.95,15.06,58.45,17.73,16.54,40.79,13.39,59.59,.55,23.15-15.81,39.67-41.6,50.42-67.02,9.76-23.09,16.95-51.9,7.84-76.33-7.71-20.71-31.05-32.01-52.42-29.45-21.03,2.52-36.69,19.49-46.56,37-11.47,20.36-17.36,44.32-17.61,67.62-.2,18.49,3.38,40.34,18.18,53.04,16.78,14.4,41.85,7.17,59-2.64,12.79-7.32,20.98-22.07,27.29-34.81,8.6-17.37,14.53-36.14,18.71-55.04,3.44-15.54,6.15-32.24,4.12-48.17-1.96-15.35-13.89-31.62-29.35-35.27-16.46-3.89-33.32,6.49-45.68,16.16-15.39,12.04-28.71,27.29-38,44.48-13.2,24.43-17.9,53.93-5.02,79.47,10.33,20.5,30.73,34.75,53.16,38.78,23.71,4.26,47.99-4.41,63.97-22.35,10.48-11.76,17.2-26.15,21.47-41.22,4.55-16.07,6.86-33.44,5.14-50.12-2.4-23.21-15.59-42.54-37.93-50.33-22.88-7.98-48.95-3.76-71.25,4.07-25.15,8.83-48.77,24.01-66.04,44.44-16.17,19.12-25.79,44.28-20.4,69.37,5.62,26.17,23.82,46.06,49.68,53.11,25.02,6.83,52.68,1.96,75.83-8.86,21.78-10.17,42.45-27.74,49.25-51.58,7.6-26.64-7.17-56.02-28.61-71.86-24.62-18.2-57.99-12.05-80.2,6.88-21.84,18.61-30.3,49.09-13.35,73.79,10.16,14.8,27.25,25.37,43.63,32.01,13.48,5.46,28.26,7.54,42.66,5.19,24.54-4.01,45.26-21.59,55.3-44.02,9.19-20.53,8.17-45.59-8.08-62.28-21.36-21.94-58.16-22.34-85.98-16.12-33.57,7.5-72.02,26.49-88.31,58.48-15.89,31.2-2.52,69.26,29.13,84.06,30.37,14.2,68.63,5.25,95.84-11.88,24.56-15.46,40.78-42.08,47.01-70.21,3.77-16.98,2.23-35.09-9.94-48.39-11.39-12.46-28.73-17.81-44.98-19.98-20.1-2.68-40.85-.64-60.49,4.07-19.03,4.56-37.82,12-53.79,23.45-12.66,9.08-24.1,21.78-26.52,37.69-2.78,18.29,8.28,34.91,20.67,47.19,10.65,10.55,22.85,18.98,36.85,24.43,17.25,6.71,36.16,9.2,54.59,8.57,34.48-1.17,72.36-15.58,86.56-49.45,6.94-16.56,9.95-34.94,2.67-51.91-6.2-14.44-19.24-24.56-33.15-31.01-33.66-15.61-71.09-10.61-105,1.02-11.41,3.91-23.39,8.73-32.55,16.82-4.79,4.23-8.6,9.96-8.01,16.58,1.36,15.36,22.14,24.45,34.21,29.35,21.78,8.84,45.8,13.23,69.24,13.87,19.34,.53,42.34-1.14,58.11-13.69,12.94-10.29,16.56-31.3,5.54-44.37-12.46-14.78-37.24-12.45-54-9.03-22.54,4.59-45.49,14.62-62.73,30.07-12.89,11.56-22.3,28.85-11.3,44.93,7.1,10.38,19.37,16.75,30.6,21.6,15.65,6.76,31.84,6.58,48.32,2.93,32.35-7.15,72.32-29.51,78.87-65.03,2.49-13.52-1.07-28.43-10.72-38.4-9.28-9.59-22.93-13.62-35.79-15.35-31.5-4.24-66.04,3.57-94.7,16.59-11.93,5.42-21.88,12.58-31.17,21.77-6.65,6.58-13.04,13.94-16.94,22.53-14.86,32.76,35.3,38.36,55.93,38.82,20.39,.45,40.95-1.87,60.85-6.29,16.64-3.7,34.12-8.85,48.28-18.68,8.88-6.16,16.5-15.95,11.25-26.99-3.13-6.6-9.36-11.52-15.27-15.51-8.49-5.73-17.61-10.34-27.67-12.39-13.96-2.85-28.56-2.95-42.74-2.34-16.35,.71-32.76,2.91-48.56,7.23-18.93,5.18-49.15,18.31-37.14,43,4.95,10.17,16.85,14.28,27.15,16.56,15.89,3.51,32.71,3.06,48.8,1.43,16.6-1.68,33.22-5.11,48.87-10.95,9.56-3.57,22.45-8.9,27.4-18.62,.3-.59,.56-1.18,.8-1.79,.12-.3-.01-.61-.25-.8-9.54-7.67-21.61-12.02-33.22-15.39-15.29-4.43-31.23-6.79-47.13-7.41-24.12-.94-59.16,1.63-72.36,25.62-.16,.29-.17,.59,.04,.85,7.54,9.4,21.4,13.23,32.57,15.9,15.98,3.82,32.71,5.03,49.09,3.94,13.83-.92,29.16-3.62,40.43-12.28,7.75-5.96,12.69-17.33,8.55-26.79-4.17-9.52-16.95-11.83-26.08-12.58-15.11-1.25-30.66,1.45-45.18,5.47-13.6,3.77-27.47,9.19-38.65,17.99-3.93,3.1-7.49,6.87-9.6,11.46-1.39,3.03,1.7,6.02,2.93,8.87,1.78,4.14,3.49,8.55,7.05,11.54,1.56,1.31,3.17,2.36,4.97,3.32,.78,.42,1.58-.71,.79-1.13-5.69-3.07-8.64-7.4-11.09-13.21-.98-2.32-1.99-4.58-3.24-6.77-.91-1.59,.29-3.06,1.15-4.5,3.16-5.24,8.38-9.18,13.45-12.44,13.15-8.45,28.7-13.38,43.9-16.54,17.03-3.54,69.57-8.84,58.14,23.74-4.71,13.42-21.59,18.43-34.05,20.77-16.92,3.19-34.68,2.55-51.62-.13-13.47-2.12-29.24-5.61-39.85-14.8-.42-.36-2.48-2-2.15-2.61,.79-1.44,1.75-2.79,2.75-4.1,2.36-3.08,5.35-5.63,8.52-7.85,6.9-4.84,15.16-7.6,23.3-9.48,18.52-4.28,38.18-3.62,56.89-1.03,17.33,2.4,35.22,6.77,50.67,15.22,2.7,1.47,5.27,3.15,7.7,5.04,.81,.63-3.39,5.37-3.89,5.9-4.23,4.4-9.83,7.43-15.28,10.02-14.99,7.11-31.7,10.78-48.04,13.13-17.03,2.45-34.65,3.2-51.7,.58-12.19-1.88-26.33-5.95-31.88-18.06-13-28.32,33.2-39.64,51.66-43.14,16.35-3.11,33.12-4.35,49.76-4.02,12.28,.24,25.77,.91,37.24,5.76,11.74,4.96,33.54,16.31,32.57,31.92-.82,13.07-17.29,20.99-27.53,25.47-18.02,7.88-37.76,12.02-57.19,14.5-19.49,2.48-39.66,3.22-59.11-.02-11.83-1.97-28.91-6.13-33.35-19.04-5.57-16.23,13.63-33.82,23.91-43.18,10.25-9.33,22.44-15.49,35.31-20.43,15.93-6.12,32.75-10.12,49.68-12.1,27.36-3.2,68.69-1.49,78.28,30.56,11.9,39.81-30.12,69.72-62.31,81.22-16.77,5.99-36.54,9.59-53.97,4.35-13.13-3.95-27.74-11.62-36.53-22.41-14.11-17.33-.76-36.6,13.67-48.27,18.6-15.04,42.85-24.57,66.43-27.85,17.58-2.45,43.46-1.32,49.42,19.36,2.54,8.82,1.13,18.94-4.07,26.51-5.13,7.46-13.54,11.96-21.9,14.85-21.81,7.55-46.84,6.09-69.26,2.5-21.22-3.4-44.23-9.43-61.93-22.16-5.58-4.01-11.39-9.52-12.53-16.63-1.21-7.57,4.51-13.85,10.01-18.14,11.1-8.64,25.38-13.39,38.65-17.43,18.51-5.63,36.95-9.04,56.37-7.65,34.56,2.46,75.46,21.2,75.45,61.06-.01,19.83-9.33,40.39-23.8,53.8-13.99,12.96-32.81,19.81-51.35,22.9-36.15,6.03-74.97-1.9-102.81-26.33-14.2-12.46-27.73-29.89-25.38-49.9,1.96-16.72,14.78-29.83,27.99-39,16.72-11.61,36.54-18.78,56.33-23.04,19.85-4.28,40.77-5.64,60.84-2.08,16.56,2.94,33.85,10.09,43.27,24.77,11.1,17.28,6.96,39.26-.01,57.24-5.7,14.71-13.37,29.04-24.67,40.19-12.78,12.6-29.21,21.42-46.27,26.68-33.25,10.25-74.22,5.58-92.89-27.23-9.7-17.05-10.03-37.4-1.73-55.03,8.27-17.57,24.1-30.83,40.46-40.6,31-18.52,70.84-28.54,106.27-18.24,13.14,3.82,25.34,11.34,32.78,23.05,6.3,9.92,8.19,21.92,6.89,33.46-2.85,25.32-20.95,47.94-44.03,58.03-31.56,13.8-68.78,.21-92.58-22.46-11.94-11.37-18.97-26.88-17-43.48,1.78-14.99,10.74-28.37,21.9-38.12,11.56-10.09,26.38-16.5,41.71-17.56,17.25-1.19,33.51,5.96,45.47,18.19,20.07,20.52,28.43,50.56,13.98,76.47-12.93,23.18-38.45,37.97-63.37,44.85-25.18,6.95-54.52,6.41-76.65-8.85-23.2-16-32.65-47.1-25.99-73.89,6.46-25.98,26.17-46.93,47.71-61.68,22.26-15.24,49.08-25.48,76.14-26.88,23.27-1.2,47.95,5.93,60.47,26.99,7.08,11.91,9.02,26.17,8.7,39.8-.42,18.29-4.46,37.07-11.95,53.77-11.35,25.3-33.7,44.41-62.04,46.05-24.22,1.4-48.23-10.57-62.46-30.03-17.49-23.92-15.71-54.82-3.88-80.76,8.49-18.61,21.8-34.43,37.25-47.69,13.63-11.7,33.28-24.43,51.97-18.02,10.48,3.6,17.29,13.39,21.91,22.91,3.14,6.47,3.61,13.7,3.61,20.8,0,18.41-4.03,36.99-9.09,54.6-5.33,18.55-12.52,37.08-23.18,53.25-4.2,6.38-9.18,12.41-15.38,16.93-5.58,4.06-12.65,6.75-19.15,8.94-10.25,3.46-21.7,4.81-32,.81-8.65-3.35-14.98-10.51-19.11-18.62-10.05-19.74-8.96-44.56-4.76-65.67,4.55-22.85,14.41-46.52,31.75-62.62,17.32-16.09,40.77-18.37,61.4-7,23.46,12.93,24.52,43.08,20.05,66.33-5.62,29.21-20.31,57.63-40.04,79.78-15.59,17.5-40.2,35.6-64.67,25.63-22.33-9.1-34.71-34.95-30-57.96,4.72-23.06,21.92-42.72,39.59-57.27,16.04-13.2,36.6-25.78,57.83-27.33,7.46-.54,15.5,.93,20.7,6.71,6.18,6.87,6.08,17.35,4.96,25.93-2.28,17.52-9.87,34.99-18.17,50.4-9.13,16.94-22.76,34.95-41.94,40.9-12.74,3.95-25.87-.3-33.4-11.36-9.48-13.93-7.22-32.91-2.14-47.96,7.81-23.15,24.53-43.13,41.52-60.21,10.8-10.85,23.81-21.94,39.06-25.62,22.67-5.47,35.12,15.04,38.42,34.47,3.82,22.51-.95,48.7-15.23,66.88-14.62,18.62-46.04,24.56-63.8,6.68-17.24-17.35-12.23-47.8-4.43-68.22,8.86-23.19,27.1-47.46,53.03-51.92,27.32-4.7,54.54,16.44,58.33,43.35,3.9,27.76-11.2,56.62-28.05,77.56-8.54,10.61-18.71,20.23-30.47,27.2-8.98,5.32-19.97,9.37-30.47,6.81-10.39-2.54-18.5-12.84-20.66-23.04-2.63-12.42,3.75-26.14,9.6-36.69,7.73-13.93,18.09-26.52,29.74-37.35,10.47-9.74,22.92-18.88,36.96-22.53,12.5-3.24,24.08,.77,30.78,12.01,7.65,12.84,7.97,28.72,4.06,42.79-8.84,31.82-36.45,57.4-63.93,73.8-25.79,15.4-60.83,27.36-90.01,14.44-14.11-6.25-25.61-19.66-29.64-34.55-4.78-17.67-.28-37.25,6.05-53.92,7.28-19.18,18.78-36.91,33.48-51.22,12.87-12.53,30.12-22.38,48.58-21.14,2.94,.2,5.84,.78,8.67,1.56,.55,.11,.88-.76,.3-.92h0Z" style="fill:#bcbe00;"/></g><g><g><path d="M67.17,285.12h20.73c6.87,0,9.28,2.26,9.28,7.8v6.81c0,5.54-2.41,7.8-9.28,7.8h-20.73v-22.41Zm6.87,16.65h12.19c2.94,0,4.08-.84,4.08-4.02v-3.03c0-3.19-1.15-4.02-4.08-4.02h-12.19v11.07Z" style="fill:#bcbe00;"/><path d="M101.34,285.12h24.51v5.2h-17.64v3.59h16.71v4.64h-16.71v3.59h18.04v5.38h-24.91v-22.4Z" style="fill:#bcbe00;"/><path d="M145.68,285.12h6.87v16.65h15.44v5.76h-22.31v-22.41Z" style="fill:#bcbe00;"/><path d="M180.84,285.12h8.94l12.32,22.41h-7.64l-2.14-3.96h-13.93l-2.01,3.96h-7.67l12.13-22.41Zm.12,13.62h8.79l-4.46-8.42-4.33,8.42Z" style="fill:#bcbe00;"/><path d="M204.54,285.12h20.73c5.29,0,6.71,2.63,6.71,6.65v1.42c0,3-.68,4.77-3.84,5.51v.06c2.04,.37,3.75,1.27,3.75,4.95v3.81h-6.87v-2.69c0-2.35-.68-3.13-2.82-3.13h-10.8v5.82h-6.87v-22.4h0Zm6.87,11.02h11.36c1.86,0,2.54-.74,2.54-2.35v-.74c0-1.98-.99-2.35-3.16-2.35h-10.74v5.44Z" style="fill:#bcbe00;"/><path d="M237,285.12h6.87v22.41h-6.87v-22.41Z" style="fill:#bcbe00;"/><path d="M248.89,285.12h6.87v8.23h3.21l8.66-8.23h9.35l-12.13,10.96,13.55,11.45h-9.72l-9.9-8.6h-3.03v8.6h-6.87v-22.41h.01Z" style="fill:#bcbe00;"/><path d="M280.57,300.19h6.87c.03,2.38,.99,2.57,2.97,2.57h8.42c1.46,0,2.94-.15,2.94-1.89,0-1.95-.8-2.07-9.66-2.07-10.34,0-11.51-1.24-11.51-6.75,0-4.05,.37-7.18,9.04-7.18h9.59c7.92,0,8.67,2.69,8.67,6.62v.71h-6.87c0-1.64-.19-2.32-3.34-2.32h-7.61c-1.55,0-2.6,.53-2.6,1.73,0,1.95,.84,2.01,8.2,1.98,10.68-.03,13.15,.62,13.15,7.15,0,6.03-2.04,7.02-11.17,7.02h-8.32c-6.25,0-8.76-1.18-8.76-6.03v-1.54h-.01Z" style="fill:#bcbe00;"/></g><g><path d="M67.42,264.42h1.62l5.18,9.39,5.18-9.39h1.62l-5.92,10.68h-1.77l-5.91-10.68Z" style="fill:#003652;"/><path d="M81.95,273.98l9.75-8.38h-9.44v-1.18h11.72v1.03l-9.8,8.47h10.01v1.18h-12.23v-1.12h0Z" style="fill:#003652;"/><path d="M94.89,264.42h1.42l3.73,9.34,3.66-9.34h1.86l3.62,9.39,3.78-9.39h1.42l-4.25,10.68h-1.86l-3.63-9.39-3.63,9.39h-1.86l-4.26-10.68Z" style="fill:#003652;"/><path d="M123,264.42h9.12c2.21,0,2.83,1.15,2.83,2.38v.92c0,.77-.43,1.55-1.73,1.68v.06c1.14,.06,2.14,.49,2.14,2.11v1.27c0,1.49-1.33,2.27-3.1,2.27h-9.27v-10.69h.01Zm10.51,2.3c0-.97-1.08-1.12-1.52-1.12h-7.54v3.41h7.47c.78,0,1.59-.25,1.59-1.31v-.98Zm.41,5c0-1.33-.74-1.53-2.05-1.53h-7.42v3.73h7.64c1.34,0,1.83-.49,1.83-1.43v-.77Z" style="fill:#003652;"/><path d="M137.92,264.42h10.5v1.18h-9.05v3.41h8.69v1.18h-8.69v3.73h9.11v1.18h-10.56v-10.68Z" style="fill:#003652;"/><path d="M150.42,271.74h1.36v.75c0,1.05,.56,1.55,2.36,1.55h4.49c2.1,0,2.72-.44,2.72-1.98,0-1.34-.53-1.68-2.33-1.68h-2.75c-4.41,0-5.86-.27-5.86-3.1,0-2.43,1.45-2.98,4.43-2.98h3.11c3.59,0,4.49,.92,4.49,2.82v.37h-1.36c-.03-1.7-.21-2.01-4-2.01h-1.53c-2.79,0-3.78,.15-3.78,1.9,0,1.27,.4,1.7,2.66,1.7h4.28c2.82,0,4,.81,4,2.63v.69c0,2.63-2.15,2.82-4.29,2.82h-4.01c-2.11,0-3.97-.37-3.97-2.7v-.78h-.02Z" style="fill:#003652;"/><path d="M164.96,268.3c0-2.7,.92-4,3.81-4h5.53c2.63,0,3.35,1.23,3.35,2.66v.91h-1.27v-.49c0-1.82-1.12-1.9-2.45-1.9h-5.02c-1.39,0-2.51,.41-2.51,2.27v4.01c0,1.86,1.12,2.27,2.51,2.27h5.06c1.95,0,2.51-.41,2.51-1.86v-.66h1.36v.72c0,1.93-.62,2.98-3.62,2.98h-5.46c-2.89,0-3.81-1.3-3.81-4v-2.91h0Z" style="fill:#003652;"/><path d="M180.17,264.42h1.45v4.59h9.65v-4.59h1.45v10.68h-1.45v-4.91h-9.65v4.91h-1.45v-10.68Z" style="fill:#003652;"/><path d="M195.56,264.42h1.45v7.98c0,1.03,.35,1.64,2.32,1.64h5.02c1.96,0,2.32-.61,2.32-1.64v-7.98h1.45v8c0,2.17-1.09,2.8-3.81,2.8h-4.93c-2.72,0-3.81-.63-3.81-2.8v-8h-.01Z" style="fill:#003652;"/><path d="M215.17,265.6h-5.4v-1.18h12.25v1.18h-5.4v9.5h-1.45v-9.5Z" style="fill:#003652;"/><path d="M229.47,264.42h1.42l3.73,9.34,3.66-9.34h1.86l3.62,9.39,3.78-9.39h1.42l-4.25,10.68h-1.86l-3.63-9.39-3.63,9.39h-1.86l-4.26-10.68Z" style="fill:#003652;"/><path d="M250.17,268.3c0-2.7,.92-4,3.81-4h6.15c2.89,0,3.81,1.3,3.81,4v2.92c0,2.7-.92,4-3.81,4h-6.15c-2.89,0-3.81-1.3-3.81-4v-2.92Zm12.32-.54c0-1.86-1.12-2.27-2.51-2.27h-5.86c-1.39,0-2.51,.41-2.51,2.27v4.01c0,1.86,1.12,2.27,2.51,2.27h5.86c1.39,0,2.51-.41,2.51-2.27v-4.01Z" style="fill:#003652;"/><path d="M266.41,264.42h2.15l9.79,9.39v-9.39h1.45v10.68h-2.15l-9.78-9.39v9.39h-1.45v-10.68h-.01Z" style="fill:#003652;"/><path d="M282.53,264.42h10.49v1.18h-9.05v3.41h8.69v1.18h-8.69v3.73h9.11v1.18h-10.55v-10.68Z" style="fill:#003652;"/><path d="M295.19,264.42h2.15l9.79,9.39v-9.39h1.45v10.68h-2.16l-9.78-9.39v9.39h-1.45v-10.68Z" style="fill:#003652;"/></g></g></svg>