<svg xmlns="http://www.w3.org/2000/svg" xmlns:xlink="http://www.w3.org/1999/xlink" width="88.34" height="99.988" viewBox="0 0 88.34 99.988"><defs><clipPath id="a"><rect width="88.34" height="99.988" fill="#fff"/></clipPath></defs><g clip-path="url(#a)"><path d="M56.852,15.133c-12.988-3.568-24.2,8.4-30.056,18.5C20.853,43.9,16.707,58.2,24.779,68.427c6.77,8.583,18.468,8.759,28.122,5.874A59.979,59.979,0,0,0,82.109,54.218c6.225-7.885,10.656-19.129,5.26-28.634-5.037-8.872-15.595-4.039-21.794.647A56.168,56.168,0,0,0,53.866,38.5c-2.837,3.985-5.348,8.488-6.335,13.321-1.466,7.158,3.82,14.608,11.449,13.939,3.922-.344,7.585-2.442,10.692-4.734A48.054,48.054,0,0,0,79.9,50.4c5.5-7.6,9.991-17.645,8.258-27.219C86.546,14.267,77.623,7.431,68.59,7.848c-9.007.417-15.949,7.684-19.868,15.24-3.853,7.424-6.284,17.181-3,25.256,3.162,7.794,12.82,10.144,20.182,7.041,7.443-3.133,11.065-11.636,12.231-19.115,1.082-6.953.534-16.044-4.8-21.29-6.426-6.313-15.616-.621-21.056,4.054A70.664,70.664,0,0,0,36.316,38.5c-2.946,5.469-4.884,11.924-3.765,18.157.746,4.164,3.231,8,7.26,9.589,4.394,1.729,9.2-.022,12.853-2.6,6.258-4.42,10.2-11.65,13.142-18.53,2-4.686,3.805-9.764,3.977-14.911.091-2.771-.457-5.757-2.511-7.764-1.824-1.78-4.474-2.266-6.935-2.193-7.348.216-14.567,4.485-20.263,8.792-6.6,4.986-12.677,11.632-15.456,19.546-2.771,7.885-.563,15.7,5.505,21.367,6.481,6.046,14.911,4.895,21.783.2,8.463-5.779,14.5-15.207,18.431-24.5,3.568-8.441,6.2-18.972,2.866-27.9-2.818-7.571-11.35-11.7-19.162-10.766-7.688.921-13.412,7.125-17.02,13.526a52.089,52.089,0,0,0-6.437,24.719c-.073,6.759,1.236,14.746,6.646,19.389,6.134,5.264,15.3,2.621,21.568-.965,4.675-2.676,7.669-8.068,9.976-12.725a88.362,88.362,0,0,0,6.84-20.12c1.258-5.681,2.248-11.785,1.506-17.609C76.4,7.588,72.041,1.641,66.39.306c-6.017-1.422-12.18,2.372-16.7,5.907A52.787,52.787,0,0,0,35.8,22.474c-4.825,8.93-6.543,19.714-1.835,29.051A27.217,27.217,0,0,0,53.4,65.7a25.412,25.412,0,0,0,23.385-8.17,37.887,37.887,0,0,0,7.848-15.068A49.533,49.533,0,0,0,86.51,24.14c-.877-8.485-5.7-15.551-13.865-18.4C64.28,2.825,54.75,4.368,46.6,7.23A56.018,56.018,0,0,0,22.457,23.475C16.546,30.465,13.03,39.662,15,48.834A25.054,25.054,0,0,0,33.161,68.248c9.146,2.5,19.257.716,27.72-3.239,7.962-3.718,15.518-10.14,18-18.855,2.778-9.738-2.621-20.478-10.459-26.269-9-6.653-21.2-4.4-29.317,2.515-7.984,6.8-11.076,17.945-4.88,26.974,3.714,5.41,9.961,9.274,15.949,11.7a29.155,29.155,0,0,0,15.595,1.9c8.971-1.466,16.545-7.892,20.215-16.092,3.359-7.5,2.987-16.666-2.954-22.767-7.808-8.02-21.261-8.166-31.43-5.893C39.331,20.964,25.276,27.906,19.321,39.6A22.624,22.624,0,0,0,29.97,70.328c11.1,5.191,25.088,1.919,35.035-4.343C73.982,60.334,79.912,50.6,82.189,40.32c1.378-6.207.815-12.827-3.634-17.689-4.164-4.555-10.5-6.511-16.443-7.3A61,61,0,0,0,40,16.815a56.171,56.171,0,0,0-19.663,8.572c-4.628,3.319-8.81,7.962-9.695,13.778C9.626,45.851,13.669,51.926,18.2,56.415a39.454,39.454,0,0,0,13.471,8.931,50.559,50.559,0,0,0,19.956,3.133c12.6-.428,26.452-5.7,31.642-18.077,2.537-6.054,3.637-12.772.976-18.976-2.266-5.279-7.033-8.978-12.118-11.336-12.3-5.706-25.987-3.879-38.383.373-4.171,1.429-8.55,3.191-11.9,6.149-1.751,1.546-3.144,3.641-2.928,6.061.5,5.615,8.093,8.938,12.506,10.729a73.2,73.2,0,0,0,25.311,5.07c7.07.194,15.478-.417,21.242-5C82.7,39.706,84.028,32.026,80,27.248c-4.555-5.4-13.613-4.551-19.74-3.3-8.24,1.678-16.629,5.344-22.931,10.992-4.712,4.226-8.152,10.546-4.131,16.424,2.6,3.794,7.081,6.123,11.186,7.9C50.1,61.73,56.023,61.665,62.047,60.33c11.826-2.614,26.437-10.788,28.831-23.772a16.181,16.181,0,0,0-3.919-14.037c-3.392-3.506-8.382-4.979-13.083-5.611-11.515-1.55-24.141,1.305-34.618,6.065a38.586,38.586,0,0,0-11.394,7.958,28.66,28.66,0,0,0-6.192,8.236c-5.432,11.976,12.9,14.023,20.445,14.191a93.5,93.5,0,0,0,22.244-2.3c6.083-1.353,12.473-3.235,17.649-6.829,3.246-2.252,6.032-5.831,4.112-9.866-1.144-2.413-3.422-4.211-5.582-5.67a28.272,28.272,0,0,0-10.115-4.529A64.634,64.634,0,0,0,54.8,23.311,80.681,80.681,0,0,0,37.05,25.954c-6.92,1.894-17.967,6.693-13.577,15.719,1.809,3.718,6.16,5.22,9.925,6.054,5.809,1.283,11.957,1.119,17.839.523a71.917,71.917,0,0,0,17.865-4c3.495-1.305,8.207-3.253,10.016-6.807.11-.216.2-.431.292-.654a.253.253,0,0,0-.091-.292c-3.487-2.8-7.9-4.394-12.144-5.626a72.145,72.145,0,0,0-17.229-2.709c-8.817-.344-21.626.6-26.452,9.366a.263.263,0,0,0,.015.311c2.756,3.436,7.823,4.836,11.906,5.812a60.329,60.329,0,0,0,17.945,1.44c5.056-.336,10.66-1.323,14.779-4.489,2.833-2.179,4.639-6.335,3.125-9.793-1.524-3.48-6.2-4.325-9.534-4.6a47.957,47.957,0,0,0-16.516,2c-4.972,1.378-10.042,3.359-14.129,6.576a11.74,11.74,0,0,0-3.509,4.189c-.508,1.108.621,2.2,1.071,3.242a10.664,10.664,0,0,0,2.577,4.219,10.287,10.287,0,0,0,1.817,1.214c.285.154.578-.26.289-.413A8.834,8.834,0,0,1,29.279,42.4a22.926,22.926,0,0,0-1.184-2.475c-.333-.581.106-1.119.42-1.645a15.059,15.059,0,0,1,4.917-4.548A47.659,47.659,0,0,1,49.479,27.69C55.7,26.4,74.911,24.459,70.733,36.368c-1.722,4.906-7.892,6.737-12.447,7.593a55.717,55.717,0,0,1-18.87-.048c-4.924-.775-10.689-2.051-14.567-5.41-.154-.132-.907-.731-.786-.954a12.049,12.049,0,0,1,1.005-1.5,13.925,13.925,0,0,1,3.115-2.87A24.246,24.246,0,0,1,36.7,29.715c6.77-1.565,13.957-1.323,20.8-.377,6.335.877,12.875,2.475,18.523,5.564a20.7,20.7,0,0,1,2.815,1.842c.3.23-1.239,1.963-1.422,2.157a18.79,18.79,0,0,1-5.586,3.663,61.425,61.425,0,0,1-17.561,4.8,64.6,64.6,0,0,1-18.9.212c-4.456-.687-9.625-2.175-11.654-6.6C18.959,30.622,35.848,26.484,42.6,25.2a88.2,88.2,0,0,1,18.19-1.47c4.489.088,9.42.333,13.613,2.106C78.691,27.653,86.66,31.8,86.305,37.509c-.3,4.778-6.32,7.673-10.064,9.311a76.384,76.384,0,0,1-20.906,5.3,74.824,74.824,0,0,1-21.608-.007c-4.325-.72-10.568-2.241-12.191-6.96C19.5,39.22,26.519,32.79,30.277,29.368A40.019,40.019,0,0,1,43.184,21.9a75.093,75.093,0,0,1,18.161-4.423c10-1.17,25.11-.545,28.616,11.171C94.311,43.2,78.95,54.134,67.183,58.338c-6.13,2.19-13.357,3.506-19.729,1.59-4.8-1.444-10.14-4.248-13.354-8.192-5.158-6.335-.278-13.379,5-17.645A50.381,50.381,0,0,1,63.381,23.91c6.426-.9,15.887-.483,18.066,7.077a11.718,11.718,0,0,1-1.488,9.691c-1.875,2.727-4.95,4.372-8.006,5.428-7.973,2.76-17.123,2.226-25.318.914C38.878,45.778,30.467,43.573,24,38.92c-2.04-1.466-4.164-3.48-4.58-6.079-.442-2.767,1.649-5.063,3.659-6.631,4.058-3.158,9.278-4.895,14.129-6.372,6.766-2.058,13.507-3.3,20.606-2.8,12.634.9,27.585,7.75,27.581,22.321a27.739,27.739,0,0,1-8.7,19.667C71.577,63.767,64.7,66.271,57.92,67.4c-13.215,2.2-27.406-.695-37.583-9.625C15.146,53.22,10.2,46.849,11.059,39.534c.716-6.112,5.4-10.9,10.232-14.257a57.208,57.208,0,0,1,20.592-8.422,58.113,58.113,0,0,1,22.24-.76c6.054,1.075,12.374,3.688,15.818,9.055,4.058,6.317,2.544,14.352,0,20.924-2.084,5.377-4.887,10.616-9.018,14.692A41.494,41.494,0,0,1,54,70.518c-12.155,3.747-27.131,2.04-33.956-9.954a21.744,21.744,0,0,1-.632-20.116c3.023-6.423,8.81-11.27,14.79-14.842,11.332-6.77,25.9-10.433,38.847-6.668a20.772,20.772,0,0,1,11.983,8.426A18.833,18.833,0,0,1,87.555,39.6c-1.042,9.256-7.658,17.525-16.1,21.213-11.537,5.045-25.143.077-33.843-8.21C33.252,48.443,30.682,42.773,31.4,36.7c.651-5.48,3.926-10.371,8.006-13.935a26.174,26.174,0,0,1,15.247-6.419A21.249,21.249,0,0,1,71.277,23c7.337,7.5,10.393,18.482,5.11,27.954-4.727,8.474-14.056,13.88-23.165,16.4-9.2,2.541-19.93,2.343-28.02-3.235C16.722,58.265,13.267,46.9,15.7,37.1c2.361-9.5,9.567-17.155,17.441-22.547A55.238,55.238,0,0,1,60.976,4.73C69.482,4.291,78.5,6.9,83.081,14.6c2.588,4.354,3.3,9.567,3.18,14.549A51.514,51.514,0,0,1,81.893,48.8c-4.149,9.249-12.319,16.234-22.679,16.834A26.89,26.89,0,0,1,36.381,54.657c-6.394-8.744-5.743-20.04-1.418-29.522A51.432,51.432,0,0,1,48.58,7.7c4.983-4.277,12.166-8.931,19-6.587,3.831,1.316,6.32,4.895,8.009,8.375a17.182,17.182,0,0,1,1.32,7.6c0,6.73-1.473,13.522-3.323,19.959A70.812,70.812,0,0,1,65.11,56.518a23.529,23.529,0,0,1-5.622,6.189,26.263,26.263,0,0,1-7,3.268c-3.747,1.265-7.933,1.758-11.7.3A13.666,13.666,0,0,1,33.8,59.464c-3.674-7.216-3.275-16.289-1.74-24.006,1.663-8.353,5.268-17.006,11.606-22.891s14.9-6.715,22.445-2.559c8.576,4.727,8.963,15.748,7.329,24.247A62.619,62.619,0,0,1,58.808,63.419c-5.7,6.4-14.7,13.014-23.64,9.369C27,69.462,22.479,60.012,24.2,51.6c1.725-8.43,8.013-15.616,14.472-20.935,5.864-4.825,13.379-9.424,21.14-9.991,2.727-.2,5.666.34,7.567,2.453,2.259,2.511,2.223,6.342,1.813,9.479-.833,6.4-3.608,12.791-6.642,18.424-3.338,6.192-8.32,12.776-15.331,14.951a10.634,10.634,0,0,1-12.21-4.153c-3.465-5.092-2.639-12.03-.782-17.532,2.855-8.463,8.967-15.766,15.178-22.01,3.948-3.966,8.7-8.02,14.279-9.366,8.287-2,12.838,5.5,14.045,12.6,1.4,8.229-.347,17.8-5.567,24.448-5.344,6.807-16.83,8.978-23.322,2.442-6.3-6.342-4.471-17.474-1.619-24.938C50.459,19,57.127,10.125,66.605,8.495c9.987-1.718,19.937,6.01,21.323,15.847,1.426,10.148-4.094,20.7-10.254,28.352a42.162,42.162,0,0,1-11.138,9.943c-3.283,1.945-7.3,3.425-11.138,2.489-3.8-.929-6.763-4.694-7.552-8.422-.961-4.54,1.371-9.556,3.509-13.412A55.921,55.921,0,0,1,62.226,29.638c3.827-3.561,8.379-6.9,13.511-8.236,4.569-1.184,8.8.281,11.252,4.39,2.8,4.694,2.913,10.5,1.484,15.642C85.241,53.067,75.148,62.418,65.1,68.413c-9.428,5.63-22.237,10-32.9,5.279a19.929,19.929,0,0,1-10.835-12.63c-1.747-6.459-.1-13.617,2.212-19.711A52.016,52.016,0,0,1,35.815,22.627c4.7-4.58,11.011-8.181,17.759-7.728a16.059,16.059,0,0,1,3.169.57c.2.04.322-.278.11-.336" transform="translate(-6.652 0)" fill="#fff"/><path d="M0,250.885H7.578c2.511,0,3.392.826,3.392,2.851v2.489c0,2.025-.881,2.851-3.392,2.851H0Zm2.511,6.086H6.967c1.075,0,1.491-.307,1.491-1.47v-1.108c0-1.166-.42-1.47-1.491-1.47H2.511Z" transform="translate(0 -159.173)" fill="#fff"/><path d="M34.17,250.885h8.96v1.9H36.681V254.1H42.79v1.7H36.681v1.312h6.595v1.967H34.17Z" transform="translate(-21.679 -159.173)" fill="#fff"/><path d="M78.51,250.885h2.511v6.086h5.644v2.106H78.51Z" transform="translate(-49.81 -159.173)" fill="#fff"/><path d="M105.974,250.885h3.268l4.5,8.192h-2.793l-.782-1.448h-5.092l-.735,1.448h-2.8Zm.044,4.979h3.213l-1.63-3.078Z" transform="translate(-64.422 -159.173)" fill="#fff"/><path d="M137.364,250.885h7.578c1.934,0,2.453.961,2.453,2.431v.519c0,1.1-.249,1.744-1.4,2.014v.022c.746.135,1.371.464,1.371,1.809v1.393H144.85v-.983c0-.859-.249-1.144-1.031-1.144h-3.948v2.128H137.36v-8.188Zm2.511,4.028h4.153c.68,0,.929-.27.929-.859v-.271c0-.724-.362-.859-1.155-.859h-3.926Z" transform="translate(-87.147 -159.173)" fill="#fff"/><rect width="2.511" height="8.192" transform="translate(62.082 91.712)" fill="#fff"/><path d="M181.714,250.885h2.511v3.008H185.4l3.166-3.008h3.418l-4.434,4.006,4.953,4.186h-3.553l-3.619-3.144h-1.108v3.144H181.71v-8.192Z" transform="translate(-115.285 -159.173)" fill="#fff"/><path d="M213.4,256.235h2.511c.011.87.362.939,1.086.939h3.078c.534,0,1.075-.055,1.075-.691,0-.713-.292-.757-3.531-.757-3.78,0-4.208-.453-4.208-2.467,0-1.48.135-2.625,3.3-2.625h3.506c2.9,0,3.169.983,3.169,2.42v.26h-2.511c0-.6-.069-.848-1.221-.848h-2.782c-.567,0-.95.194-.95.632,0,.713.307.735,3,.724,3.9-.011,4.807.227,4.807,2.614,0,2.2-.746,2.566-4.083,2.566h-3.041c-2.285,0-3.2-.431-3.2-2.2v-.563Z" transform="translate(-135.391 -159.014)" fill="#fff"/><path d="M.245,230.185H.837l1.894,3.433,1.894-3.433h.592l-2.164,3.9H2.405Z" transform="translate(-0.155 -146.04)" fill="#fff"/><path d="M14.785,233.68l3.564-3.063H14.9v-.431h4.284v.377l-3.582,3.1h3.659v.431H14.789v-.409Z" transform="translate(-9.38 -146.04)" fill="#fff"/><path d="M27.725,230.185h.519l1.364,3.414,1.338-3.414h.68l1.323,3.433,1.382-3.433h.519l-1.554,3.9h-.68l-1.327-3.433-1.327,3.433h-.68Z" transform="translate(-17.59 -146.04)" fill="#fff"/><path d="M55.819,230.185h3.334c.808,0,1.035.42,1.035.87v.336c0,.281-.157.567-.632.614v.022c.417.022.782.179.782.771v.464c0,.545-.486.83-1.133.83H55.815v-3.908Zm3.842.841c0-.355-.395-.409-.556-.409H56.349v1.247h2.731c.285,0,.581-.091.581-.479Zm.15,1.828c0-.486-.271-.559-.749-.559H56.349v1.364h2.793c.49,0,.669-.179.669-.523Z" transform="translate(-35.412 -146.04)" fill="#fff"/><path d="M70.755,230.185h3.838v.431H71.285v1.247h3.177v.431H71.285v1.364h3.33v.431h-3.86Z" transform="translate(-44.89 -146.04)" fill="#fff"/><path d="M83.239,232.785h.5v.274c0,.384.2.567.863.567H86.24c.768,0,.994-.161.994-.724,0-.49-.194-.614-.852-.614H85.377c-1.612,0-2.142-.1-2.142-1.133,0-.888.53-1.089,1.619-1.089h1.137c1.312,0,1.641.336,1.641,1.031v.135h-.5c-.011-.621-.077-.735-1.462-.735h-.559c-1.02,0-1.382.055-1.382.695,0,.464.146.621.972.621h1.565c1.031,0,1.462.3,1.462.961v.252c0,.961-.786,1.031-1.568,1.031H84.7c-.771,0-1.451-.135-1.451-.987v-.285Z" transform="translate(-52.808 -145.964)" fill="#fff"/><path d="M97.789,231.527c0-.987.336-1.462,1.393-1.462H101.2c.961,0,1.225.45,1.225.972v.333h-.464v-.179c0-.665-.409-.695-.9-.695H99.233c-.508,0-.918.15-.918.83v1.466c0,.68.409.83.918.83h1.85c.713,0,.918-.15.918-.68V232.7h.5v.263c0,.706-.227,1.089-1.323,1.089h-2c-1.056,0-1.393-.475-1.393-1.462v-1.064Z" transform="translate(-62.039 -145.964)" fill="#fff"/><path d="M113,230.185h.53v1.678h3.528v-1.678h.53v3.9h-.53v-1.795h-3.528v1.795H113Z" transform="translate(-71.695 -146.04)" fill="#fff"/><path d="M128.385,230.185h.53V233.1c0,.377.128.6.848.6H131.6c.716,0,.848-.223.848-.6v-2.917h.53v2.924c0,.793-.4,1.024-1.393,1.024h-1.8c-.994,0-1.393-.23-1.393-1.024v-2.924Z" transform="translate(-81.453 -146.04)" fill="#fff"/><path d="M144.579,230.616H142.6v-.431h4.478v.431h-1.974v3.473h-.53Z" transform="translate(-90.475 -146.04)" fill="#fff"/><path d="M162.295,230.185h.519l1.364,3.414,1.338-3.414h.68l1.323,3.433,1.382-3.433h.519l-1.554,3.9h-.68l-1.327-3.433-1.327,3.433h-.68Z" transform="translate(-102.967 -146.04)" fill="#fff"/><path d="M183.005,231.527c0-.987.336-1.462,1.393-1.462h2.248c1.056,0,1.393.475,1.393,1.462v1.067c0,.987-.336,1.462-1.393,1.462H184.4c-1.056,0-1.393-.475-1.393-1.462Zm4.5-.2c0-.68-.409-.83-.918-.83h-2.142c-.508,0-.918.15-.918.83V232.8c0,.68.409.83.918.83h2.142c.508,0,.918-.15.918-.83Z" transform="translate(-116.107 -145.964)" fill="#fff"/><path d="M199.235,230.185h.786l3.579,3.433v-3.433h.53v3.9h-.786l-3.575-3.433v3.433h-.53v-3.9Z" transform="translate(-126.404 -146.04)" fill="#fff"/><path d="M215.365,230.185H219.2v.431h-3.308v1.247h3.177v.431h-3.177v1.364h3.33v.431h-3.857Z" transform="translate(-136.637 -146.04)" fill="#fff"/><path d="M228.025,230.185h.786l3.579,3.433v-3.433h.53v3.9h-.79l-3.575-3.433v3.433h-.53Z" transform="translate(-144.669 -146.04)" fill="#fff"/></g></svg>